SplineFontDB: 3.2
FontName: StarJediSpecialEdition
FullName: StarJedi Special Edition
FamilyName: StarJedi Special Edition
Weight: Book
Copyright: 1999 by Boba Fonts - bobafonts@tiscalinet.it
Version: 1.09
ItalicAngle: 0
UnderlinePosition: -125
UnderlineWidth: 50
Ascent: 1638
Descent: 410
InvalidEm: 0
sfntRevision: 0x00010000
LayerCount: 2
Layer: 0 1 "+BBcEMAQ0BD0EOAQ5 +BD8EOwQwBD0A" 1
Layer: 1 1 "+BB8ENQRABDUENAQ9BDgEOQAA +BD8EOwQwBD0A" 0
XUID: [1021 765 2111992838 20201]
StyleMap: 0x0040
FSType: 0
OS2Version: 3
OS2_WeightWidthSlopeOnly: 0
OS2_UseTypoMetrics: 0
CreationTime: 1334993607
ModificationTime: 1715351899
PfmFamily: 81
TTFWeight: 400
TTFWidth: 5
LineGap: 0
VLineGap: 0
Panose: 4 11 0 0 0 0 0 0 0 0
OS2TypoAscent: 3088
OS2TypoAOffset: 0
OS2TypoDescent: -958
OS2TypoDOffset: 0
OS2TypoLinegap: 0
OS2WinAscent: 2560
OS2WinAOffset: 0
OS2WinDescent: 708
OS2WinDOffset: 0
HheadAscent: 2560
HheadAOffset: 0
HheadDescent: -708
HheadDOffset: 0
OS2SubXSize: 819
OS2SubYSize: 737
OS2SubXOff: 0
OS2SubYOff: -958
OS2SupXSize: 819
OS2SupYSize: 737
OS2SupXOff: 0
OS2SupYOff: 2580
OS2StrikeYSize: 204
OS2StrikeYPos: 1060
OS2CapHeight: 1444
OS2XHeight: 1444
OS2Vendor: '    '
OS2CodePages: 00000001.00000000
OS2UnicodeRanges: 80000007.00000000.00000000.00000000
DEI: 91125
TtTable: prep
PUSHW_1
 22
CALL
NPUSHB
 16
 29
 22
 1
 22
 95
 14
 13
 81
 95
 1
 95
 95
 43
 13
 61
 0
SCANTYPE
PUSHW_1
 828
SCANCTRL
SCVTCI
CALL
CALL
EndTTInstrs
TtTable: fpgm
NPUSHB
 22
 21
 20
 19
 18
 17
 16
 15
 14
 13
 12
 11
 10
 9
 8
 7
 6
 5
 4
 3
 2
 1
 0
FDEF
PUSHB_3
 0
 128
 0
RS
DUP
ROLL
DIV
ROLL
SWAP
WS
FLOOR
ODD
ENDF
FDEF
PUSHB_3
 42
 0
 0
RS
EQ
JROT
PUSHB_1
 0
CALL
IF
SLOOP
IP
EIF
PUSHB_1
 0
CALL
IF
SLOOP
ALIGNRP
EIF
PUSHB_1
 0
CALL
IF
PUSHB_1
 10
LOOPCALL
EIF
PUSHB_1
 1
RS
SRP0
PUSHB_1
 0
CALL
IF
SLOOP
ALIGNRP
EIF
PUSHB_1
 0
CALL
IF
PUSHB_1
 10
LOOPCALL
EIF
ENDF
FDEF
CALL
ENDF
FDEF
CALL
PUSHB_1
 2
LOOPCALL
ENDF
FDEF
PUSHB_1
 2
LOOPCALL
ENDF
FDEF
PUSHB_1
 1
DIV
PUSHB_1
 0
SWAP
WS
PUSHB_2
 1
 3
CINDEX

StartChar: .notdef
Encoding: 65536 -1 0
Width: 3072
GlyphClass: 1
Flags: W
LayerCount: 2
Fore
SplineSet
512 0 m 1,0,-1
 512 2560 l 1,1,-1
 2560 2560 l 1,2,-1
 2560 0 l 1,3,-1
 512 0 l 1,0,-1
2494 66 m 1,4,-1
 2494 2494 l 1,5,-1
 578 2494 l 1,6,-1
 578 66 l 1,7,-1
 2494 66 l 1,4,-1
EndSplineSet
Validated: 1
EndChar

StartChar: exclam
Encoding: 33 33 4
Width: 1041
GlyphClass: 1
Flags: W
LayerCount: 2
Fore
SplineSet
0 1144 m 1,0,-1
 0 1444 l 1,1,-1
 1041 1444 l 1,2,-1
 1041 1144 l 1,3,-1
 0 1144 l 1,0,-1
414 920 m 0,4,5
 414 860 414 860 389 818.5 c 128,-1,6
 364 777 364 777 317 755.5 c 128,-1,7
 270 734 270 734 205 734 c 256,8,9
 140 734 140 734 93.5 755.5 c 128,-1,10
 47 777 47 777 23.5 818.5 c 128,-1,11
 0 860 0 860 0 920 c 0,12,13
 0 965 0 965 13 999.5 c 128,-1,14
 26 1034 26 1034 52.5 1057.5 c 128,-1,15
 79 1081 79 1081 117.5 1093 c 128,-1,16
 156 1105 156 1105 205 1105 c 0,17,18
 270 1105 270 1105 317 1083.5 c 128,-1,19
 364 1062 364 1062 389 1020.5 c 128,-1,20
 414 979 414 979 414 920 c 0,4,5
129 914 m 0,21,22
 129 872 129 872 144 841.5 c 128,-1,23
 159 811 159 811 205 811 c 0,24,25
 241 811 241 811 258.5 827.5 c 128,-1,26
 276 844 276 844 280 864 c 128,-1,27
 284 884 284 884 286 914 c 0,28,29
 284 955 284 955 269.5 985.5 c 128,-1,30
 255 1016 255 1016 205 1016 c 0,31,32
 129 1016 129 1016 129 914 c 0,21,22
435 740 m 1,33,-1
 435 1101 l 1,34,-1
 745 1101 l 1,35,-1
 745 995 l 1,36,-1
 551 995 l 1,37,-1
 551 952 l 1,38,-1
 677 952 l 1,39,-1
 677 891 l 1,40,-1
 551 891 l 1,41,-1
 551 740 l 1,42,-1
 435 740 l 1,33,-1
570 578 m 1,43,-1
 570 702 l 1,44,-1
 688 702 l 1,45,-1
 688 341 l 1,46,-1
 570 341 l 1,47,-1
 570 471 l 1,48,-1
 474 471 l 1,49,-1
 474 341 l 1,50,-1
 358 341 l 1,51,-1
 358 702 l 1,52,-1
 474 702 l 1,53,-1
 474 578 l 1,54,-1
 570 578 l 1,43,-1
345 702 m 1,55,-1
 345 596 l 1,56,-1
 229 596 l 1,57,-1
 229 341 l 1,58,-1
 111 341 l 1,59,-1
 111 596 l 1,60,-1
 -2 596 l 1,61,-1
 -2 702 l 1,62,-1
 345 702 l 1,55,-1
0 0 m 1,63,-1
 0 300 l 1,64,-1
 1041 300 l 1,65,-1
 1041 0 l 1,66,-1
 0 0 l 1,63,-1
702 341 m 1,67,-1
 702 702 l 1,68,-1
 1009 702 l 1,69,-1
 1009 597 l 1,70,-1
 817 597 l 1,71,-1
 817 556 l 1,72,-1
 941 556 l 1,73,-1
 941 492 l 1,74,-1
 817 492 l 1,75,-1
 817 451 l 1,76,-1
 1041 451 l 1,77,-1
 1041 341 l 1,78,-1
 702 341 l 1,67,-1
EndSplineSet
Validated: 1
EndChar

StartChar: quotedbl
Encoding: 34 34 5
Width: 1139
GlyphClass: 1
Flags: W
LayerCount: 2
Fore
SplineSet
635 813 m 1,0,-1
 635 1444 l 1,1,-1
 942 1444 l 1,2,-1
 942 813 l 1,3,-1
 635 813 l 1,0,-1
197 813 m 1,4,-1
 197 1444 l 1,5,-1
 504 1444 l 1,6,-1
 504 813 l 1,7,-1
 197 813 l 1,4,-1
EndSplineSet
Validated: 1
EndChar

StartChar: numbersign
Encoding: 35 35 6
Width: 1121
GlyphClass: 1
Flags: W
LayerCount: 2
Fore
SplineSet
0 1144 m 1,0,-1
 0 1444 l 1,1,-1
 1121 1444 l 1,2,-1
 1121 1144 l 1,3,-1
 0 1144 l 1,0,-1
778 922 m 0,4,5
 778 862 778 862 753 820.5 c 128,-1,6
 728 779 728 779 681 757.5 c 128,-1,7
 634 736 634 736 569 736 c 256,8,9
 504 736 504 736 457.5 757.5 c 128,-1,10
 411 779 411 779 387.5 820.5 c 128,-1,11
 364 862 364 862 364 922 c 0,12,13
 364 967 364 967 377 1001.5 c 128,-1,14
 390 1036 390 1036 416.5 1059.5 c 128,-1,15
 443 1083 443 1083 481.5 1095 c 128,-1,16
 520 1107 520 1107 569 1107 c 0,17,18
 634 1107 634 1107 681 1085.5 c 128,-1,19
 728 1064 728 1064 753 1022.5 c 128,-1,20
 778 981 778 981 778 922 c 0,4,5
492 921 m 0,21,22
 492 879 492 879 507 848.5 c 128,-1,23
 522 818 522 818 568 818 c 0,24,25
 604 818 604 818 621.5 834.5 c 128,-1,26
 639 851 639 851 643 871 c 128,-1,27
 647 891 647 891 649 921 c 0,28,29
 647 962 647 962 632.5 992.5 c 128,-1,30
 618 1023 618 1023 568 1023 c 0,31,32
 492 1023 492 1023 492 921 c 0,21,22
570 578 m 1,33,-1
 570 702 l 1,34,-1
 688 702 l 1,35,-1
 688 341 l 1,36,-1
 570 341 l 1,37,-1
 570 471 l 1,38,-1
 474 471 l 1,39,-1
 474 341 l 1,40,-1
 358 341 l 1,41,-1
 358 702 l 1,42,-1
 474 702 l 1,43,-1
 474 578 l 1,44,-1
 570 578 l 1,33,-1
345 1102 m 1,45,-1
 345 996 l 1,46,-1
 229 996 l 1,47,-1
 229 741 l 1,48,-1
 111 741 l 1,49,-1
 111 996 l 1,50,-1
 -2 996 l 1,51,-1
 -2 1102 l 1,52,-1
 345 1102 l 1,45,-1
0 0 m 1,53,-1
 0 300 l 1,54,-1
 1121 300 l 1,55,-1
 1121 0 l 1,56,-1
 0 0 l 1,53,-1
702 341 m 1,57,-1
 702 702 l 1,58,-1
 1009 702 l 1,59,-1
 1009 597 l 1,60,-1
 817 597 l 1,61,-1
 817 556 l 1,62,-1
 941 556 l 1,63,-1
 941 492 l 1,64,-1
 817 492 l 1,65,-1
 817 451 l 1,66,-1
 1041 451 l 1,67,-1
 1041 341 l 1,68,-1
 702 341 l 1,57,-1
345 702 m 1,69,-1
 345 596 l 1,70,-1
 229 596 l 1,71,-1
 229 341 l 1,72,-1
 111 341 l 1,73,-1
 111 596 l 1,74,-1
 -2 596 l 1,75,-1
 -2 702 l 1,76,-1
 345 702 l 1,69,-1
EndSplineSet
Validated: 1
EndChar

StartChar: dollar
Encoding: 36 36 7
Width: 1121
GlyphClass: 1
Flags: W
LayerCount: 2
Fore
SplineSet
0 1144 m 1,0,-1
 0 1444 l 1,1,-1
 1121 1444 l 1,2,-1
 1121 1144 l 1,3,-1
 0 1144 l 1,0,-1
722 922 m 0,4,5
 722 862 722 862 697 820.5 c 128,-1,6
 672 779 672 779 625 757.5 c 128,-1,7
 578 736 578 736 513 736 c 256,8,9
 448 736 448 736 401.5 757.5 c 128,-1,10
 355 779 355 779 331.5 820.5 c 128,-1,11
 308 862 308 862 308 922 c 0,12,13
 308 967 308 967 321 1001.5 c 128,-1,14
 334 1036 334 1036 360.5 1059.5 c 128,-1,15
 387 1083 387 1083 425.5 1095 c 128,-1,16
 464 1107 464 1107 513 1107 c 0,17,18
 578 1107 578 1107 625 1085.5 c 128,-1,19
 672 1064 672 1064 697 1022.5 c 128,-1,20
 722 981 722 981 722 922 c 0,4,5
434 921 m 0,21,22
 434 879 434 879 449 848.5 c 128,-1,23
 464 818 464 818 510 818 c 0,24,25
 546 818 546 818 563.5 834.5 c 128,-1,26
 581 851 581 851 585 871 c 128,-1,27
 589 891 589 891 591 921 c 0,28,29
 589 962 589 962 574.5 992.5 c 128,-1,30
 560 1023 560 1023 510 1023 c 0,31,32
 434 1023 434 1023 434 921 c 0,21,22
0 741 m 1,33,-1
 0 1102 l 1,34,-1
 310 1102 l 1,35,-1
 310 996 l 1,36,-1
 116 996 l 1,37,-1
 116 953 l 1,38,-1
 242 953 l 1,39,-1
 242 892 l 1,40,-1
 116 892 l 1,41,-1
 116 741 l 1,42,-1
 0 741 l 1,33,-1
570 578 m 1,43,-1
 570 702 l 1,44,-1
 688 702 l 1,45,-1
 688 341 l 1,46,-1
 570 341 l 1,47,-1
 570 471 l 1,48,-1
 474 471 l 1,49,-1
 474 341 l 1,50,-1
 358 341 l 1,51,-1
 358 702 l 1,52,-1
 474 702 l 1,53,-1
 474 578 l 1,54,-1
 570 578 l 1,43,-1
345 702 m 1,55,-1
 345 596 l 1,56,-1
 229 596 l 1,57,-1
 229 341 l 1,58,-1
 111 341 l 1,59,-1
 111 596 l 1,60,-1
 -2 596 l 1,61,-1
 -2 702 l 1,62,-1
 345 702 l 1,55,-1
0 0 m 1,63,-1
 0 300 l 1,64,-1
 1121 300 l 1,65,-1
 1121 0 l 1,66,-1
 0 0 l 1,63,-1
702 341 m 1,67,-1
 702 702 l 1,68,-1
 1009 702 l 1,69,-1
 1009 597 l 1,70,-1
 817 597 l 1,71,-1
 817 556 l 1,72,-1
 941 556 l 1,73,-1
 941 492 l 1,74,-1
 817 492 l 1,75,-1
 817 451 l 1,76,-1
 1041 451 l 1,77,-1
 1041 341 l 1,78,-1
 702 341 l 1,67,-1
733 742 m 1,79,-1
 733 1103 l 1,80,-1
 968 1103 l 2,81,82
 1012 1101 1012 1101 1040 1082 c 128,-1,83
 1068 1063 1068 1063 1081 1030 c 1,84,85
 1091 982 1091 982 1082 956 c 128,-1,86
 1073 930 1073 930 1050.5 913 c 128,-1,87
 1028 896 1028 896 986 886 c 1,88,-1
 1013 851 l 1,89,-1
 1121 851 l 1,90,-1
 1121 742 l 1,91,-1
 978 742 l 1,92,-1
 863 863 l 1,93,-1
 863 742 l 1,94,-1
 733 742 l 1,79,-1
863 1021 m 1,95,-1
 863 954 l 1,96,-1
 954 954 l 2,97,98
 962 954 962 954 970.5 959 c 128,-1,99
 979 964 979 964 979 986 c 0,100,101
 978 1007 978 1007 969 1014 c 128,-1,102
 960 1021 960 1021 954 1021 c 2,103,-1
 863 1021 l 1,95,-1
EndSplineSet
Validated: 33
EndChar

StartChar: percent
Encoding: 37 37 8
Width: 1121
GlyphClass: 1
Flags: W
LayerCount: 2
Fore
SplineSet
0 1144 m 1,0,-1
 0 1444 l 1,1,-1
 1121 1444 l 1,2,-1
 1121 1144 l 1,3,-1
 0 1144 l 1,0,-1
570 578 m 1,4,-1
 570 702 l 1,5,-1
 688 702 l 1,6,-1
 688 341 l 1,7,-1
 570 341 l 1,8,-1
 570 471 l 1,9,-1
 474 471 l 1,10,-1
 474 341 l 1,11,-1
 358 341 l 1,12,-1
 358 702 l 1,13,-1
 474 702 l 1,14,-1
 474 578 l 1,15,-1
 570 578 l 1,4,-1
0 0 m 1,16,-1
 0 300 l 1,17,-1
 1121 300 l 1,18,-1
 1121 0 l 1,19,-1
 0 0 l 1,16,-1
702 341 m 1,20,-1
 702 702 l 1,21,-1
 1009 702 l 1,22,-1
 1009 597 l 1,23,-1
 817 597 l 1,24,-1
 817 556 l 1,25,-1
 941 556 l 1,26,-1
 941 492 l 1,27,-1
 817 492 l 1,28,-1
 817 451 l 1,29,-1
 1041 451 l 1,30,-1
 1041 341 l 1,31,-1
 702 341 l 1,20,-1
345 702 m 1,32,-1
 345 596 l 1,33,-1
 229 596 l 1,34,-1
 229 341 l 1,35,-1
 111 341 l 1,36,-1
 111 596 l 1,37,-1
 -2 596 l 1,38,-1
 -2 702 l 1,39,-1
 345 702 l 1,32,-1
28 1103 m 1,40,-1
 200 1103 l 1,41,-1
 200 742 l 1,42,-1
 28 742 l 1,43,-1
 28 1103 l 1,40,-1
268 742 m 1,44,-1
 268 1103 l 1,45,-1
 397 1103 l 1,46,-1
 518 968 l 1,47,-1
 518 1103 l 1,48,-1
 651 1103 l 1,49,-1
 651 742 l 1,50,-1
 518 742 l 1,51,-1
 397 878 l 1,52,-1
 397 742 l 1,53,-1
 268 742 l 1,44,-1
EndSplineSet
Validated: 1
EndChar

StartChar: ampersand
Encoding: 38 38 9
Width: 1041
GlyphClass: 1
Flags: W
LayerCount: 2
Fore
SplineSet
0 1144 m 1,0,-1
 0 1444 l 1,1,-1
 1041 1444 l 1,2,-1
 1041 1144 l 1,3,-1
 0 1144 l 1,0,-1
572 978 m 1,4,-1
 572 1102 l 1,5,-1
 690 1102 l 1,6,-1
 690 741 l 1,7,-1
 572 741 l 1,8,-1
 572 871 l 1,9,-1
 476 871 l 1,10,-1
 476 741 l 1,11,-1
 360 741 l 1,12,-1
 360 1102 l 1,13,-1
 476 1102 l 1,14,-1
 476 978 l 1,15,-1
 572 978 l 1,4,-1
345 1102 m 1,16,-1
 345 996 l 1,17,-1
 229 996 l 1,18,-1
 229 741 l 1,19,-1
 111 741 l 1,20,-1
 111 996 l 1,21,-1
 -2 996 l 1,22,-1
 -2 1102 l 1,23,-1
 345 1102 l 1,16,-1
702 741 m 1,24,-1
 702 1102 l 1,25,-1
 1009 1102 l 1,26,-1
 1009 997 l 1,27,-1
 817 997 l 1,28,-1
 817 956 l 1,29,-1
 941 956 l 1,30,-1
 941 892 l 1,31,-1
 817 892 l 1,32,-1
 817 851 l 1,33,-1
 1041 851 l 1,34,-1
 1041 741 l 1,35,-1
 702 741 l 1,24,-1
EndSplineSet
Validated: 1
EndChar

StartChar: quotesingle
Encoding: 39 39 10
Width: 647
GlyphClass: 1
Flags: W
LayerCount: 2
Fore
SplineSet
170 813 m 1,0,-1
 170 1444 l 1,1,-1
 477 1444 l 1,2,-1
 477 813 l 1,3,-1
 170 813 l 1,0,-1
EndSplineSet
Validated: 1
EndChar

StartChar: parenleft
Encoding: 40 40 11
Width: 758
GlyphClass: 1
Flags: W
LayerCount: 2
Fore
SplineSet
725 -105 m 1,0,-1
 350 -105 l 1,1,2
 265 37 265 37 202.5 190.5 c 128,-1,3
 140 344 140 344 106 502 c 128,-1,4
 72 660 72 660 72 821 c 0,5,6
 72 1275 72 1275 350 1749 c 1,7,-1
 725 1749 l 1,8,9
 667 1642 667 1642 624 1531 c 128,-1,10
 581 1420 581 1420 551.5 1300.5 c 128,-1,11
 522 1181 522 1181 508 1061 c 128,-1,12
 494 941 494 941 494 821 c 0,13,14
 494 702 494 702 508.5 581 c 128,-1,15
 523 460 523 460 551.5 342 c 128,-1,16
 580 224 580 224 623 113.5 c 128,-1,17
 666 3 666 3 725 -105 c 1,0,-1
EndSplineSet
Validated: 1
EndChar

StartChar: parenright
Encoding: 41 41 12
Width: 758
GlyphClass: 1
Flags: W
LayerCount: 2
Fore
SplineSet
410 -105 m 1,0,-1
 35 -105 l 1,1,2
 266 319 266 319 266 821 c 0,3,4
 266 941 266 941 251 1067 c 128,-1,5
 236 1193 236 1193 208 1306 c 128,-1,6
 180 1419 180 1419 134 1537 c 128,-1,7
 88 1655 88 1655 35 1749 c 1,8,-1
 410 1749 l 1,9,10
 496 1604 496 1604 557.5 1453 c 128,-1,11
 619 1302 619 1302 653.5 1142.5 c 128,-1,12
 688 983 688 983 688 821 c 256,13,14
 688 659 688 659 653.5 499.5 c 128,-1,15
 619 340 619 340 557 189.5 c 128,-1,16
 495 39 495 39 410 -105 c 1,0,-1
EndSplineSet
Validated: 1
EndChar

StartChar: asterisk
Encoding: 42 42 13
Width: 1041
GlyphClass: 1
Flags: W
LayerCount: 2
Fore
SplineSet
570 578 m 1,0,-1
 570 702 l 1,1,-1
 688 702 l 1,2,-1
 688 341 l 1,3,-1
 570 341 l 1,4,-1
 570 471 l 1,5,-1
 474 471 l 1,6,-1
 474 341 l 1,7,-1
 358 341 l 1,8,-1
 358 702 l 1,9,-1
 474 702 l 1,10,-1
 474 578 l 1,11,-1
 570 578 l 1,0,-1
345 702 m 1,12,-1
 345 596 l 1,13,-1
 229 596 l 1,14,-1
 229 341 l 1,15,-1
 111 341 l 1,16,-1
 111 596 l 1,17,-1
 -2 596 l 1,18,-1
 -2 702 l 1,19,-1
 345 702 l 1,12,-1
0 0 m 1,20,-1
 0 300 l 1,21,-1
 1041 300 l 1,22,-1
 1041 0 l 1,23,-1
 0 0 l 1,20,-1
702 341 m 1,24,-1
 702 702 l 1,25,-1
 1009 702 l 1,26,-1
 1009 597 l 1,27,-1
 817 597 l 1,28,-1
 817 556 l 1,29,-1
 941 556 l 1,30,-1
 941 492 l 1,31,-1
 817 492 l 1,32,-1
 817 451 l 1,33,-1
 1041 451 l 1,34,-1
 1041 341 l 1,35,-1
 702 341 l 1,24,-1
EndSplineSet
Validated: 1
EndChar

StartChar: plus
Encoding: 43 43 14
Width: 1456
GlyphClass: 1
Flags: W
LayerCount: 2
Fore
SplineSet
-100 1014 m 1,0,-1
 -100 1444 l 1,1,-1
 1556 1444 l 1,2,-1
 1556 1014 l 1,3,-1
 -100 1014 l 1,0,-1
EndSplineSet
Validated: 1
EndChar

StartChar: comma
Encoding: 44 44 15
Width: 758
GlyphClass: 1
Flags: W
LayerCount: 2
Fore
SplineSet
188 397 m 1,0,-1
 623 397 l 1,1,-1
 387 -233 l 1,2,-1
 61 -233 l 1,3,-1
 188 397 l 1,0,-1
EndSplineSet
Validated: 1
EndChar

StartChar: hyphen
Encoding: 45 45 16
Width: 758
GlyphClass: 1
Flags: W
LayerCount: 2
Fore
SplineSet
92 377 m 1,0,-1
 92 737 l 1,1,-1
 666 737 l 1,2,-1
 666 377 l 1,3,-1
 92 377 l 1,0,-1
EndSplineSet
Validated: 1
EndChar

StartChar: period
Encoding: 46 46 17
Width: 758
GlyphClass: 1
Flags: W
LayerCount: 2
Fore
SplineSet
156 0 m 1,0,-1
 156 397 l 1,1,-1
 602 397 l 1,2,-1
 602 0 l 1,3,-1
 156 0 l 1,0,-1
EndSplineSet
Validated: 1
EndChar

StartChar: slash
Encoding: 47 47 18
Width: 758
GlyphClass: 1
Flags: W
LayerCount: 2
Fore
SplineSet
518 1468 m 1,0,-1
 881 1468 l 1,1,-1
 240 -25 l 1,2,-1
 -123 -25 l 1,3,-1
 518 1468 l 1,0,-1
EndSplineSet
Validated: 1
EndChar

StartChar: zero
Encoding: 48 48 19
Width: 1516
GlyphClass: 1
Flags: W
LayerCount: 2
Fore
SplineSet
47 721 m 0,0,1
 47 883 47 883 93.5 1019.5 c 128,-1,2
 140 1156 140 1156 230.5 1257.5 c 128,-1,3
 321 1359 321 1359 454 1413.5 c 128,-1,4
 587 1468 587 1468 760 1468 c 0,5,6
 923 1468 923 1468 1054.5 1416 c 128,-1,7
 1186 1364 1186 1364 1278.5 1264.5 c 128,-1,8
 1371 1165 1371 1165 1419.5 1027.5 c 128,-1,9
 1468 890 1468 890 1468 721 c 0,10,11
 1468 496 1468 496 1387 327.5 c 128,-1,12
 1306 159 1306 159 1145.5 67 c 128,-1,13
 985 -25 985 -25 760 -25 c 0,14,15
 536 -25 536 -25 374.5 68.5 c 128,-1,16
 213 162 213 162 130 332 c 128,-1,17
 47 502 47 502 47 721 c 0,0,1
584 721 m 0,18,19
 584 613 584 613 588 545 c 128,-1,20
 592 477 592 477 607.5 421 c 128,-1,21
 623 365 623 365 660.5 331 c 128,-1,22
 698 297 698 297 760 297 c 0,23,24
 839 297 839 297 877 353.5 c 128,-1,25
 915 410 915 410 923.5 493.5 c 128,-1,26
 932 577 932 577 932 721 c 0,27,28
 932 871 932 871 923.5 955 c 128,-1,29
 915 1039 915 1039 877.5 1093 c 128,-1,30
 840 1147 840 1147 760 1147 c 0,31,32
 678 1147 678 1147 639.5 1092.5 c 128,-1,33
 601 1038 601 1038 592.5 954.5 c 128,-1,34
 584 871 584 871 584 721 c 0,18,19
EndSplineSet
Validated: 1
EndChar

StartChar: one
Encoding: 49 49 20
Width: 1065
GlyphClass: 1
Flags: W
LayerCount: 2
Fore
SplineSet
119 705 m 1,0,-1
 -27 1081 l 1,1,-1
 512 1444 l 1,2,-1
 952 1444 l 1,3,-1
 952 0 l 1,4,-1
 436 0 l 1,5,-1
 436 938 l 1,6,-1
 119 705 l 1,0,-1
EndSplineSet
Validated: 1
EndChar

StartChar: two
Encoding: 50 50 21
Width: 1212
GlyphClass: 1
Flags: W
LayerCount: 2
Fore
SplineSet
586 348 m 1,0,-1
 1171 348 l 1,1,-1
 1171 0 l 1,2,-1
 41 0 l 1,3,-1
 41 406 l 1,4,5
 277 524 277 524 459 641 c 0,6,7
 550 704 550 704 602.5 765 c 128,-1,8
 655 826 655 826 655 907 c 0,9,10
 655 1011 655 1011 578 1059.5 c 128,-1,11
 501 1108 501 1108 389 1108 c 0,12,13
 212 1108 212 1108 70 1047 c 1,14,-1
 70 1423 l 1,15,16
 184 1444 184 1444 296 1456 c 128,-1,17
 408 1468 408 1468 522 1468 c 0,18,19
 797 1468 797 1468 984 1360 c 128,-1,20
 1171 1252 1171 1252 1171 995 c 0,21,22
 1171 878 1171 878 1118.5 780 c 128,-1,23
 1066 682 1066 682 983 606.5 c 128,-1,24
 900 531 900 531 812 477 c 128,-1,25
 724 423 724 423 586 352 c 1,26,-1
 586 348 l 1,0,-1
EndSplineSet
Validated: 1
EndChar

StartChar: three
Encoding: 51 51 22
Width: 1212
GlyphClass: 1
Flags: W
LayerCount: 2
Fore
SplineSet
223 567 m 1,0,-1
 223 883 l 1,1,2
 301 879 301 879 338 879 c 0,3,4
 408 879 408 879 464 885 c 128,-1,5
 520 891 520 891 566 918 c 128,-1,6
 612 945 612 945 612 1001 c 0,7,8
 612 1080 612 1080 551 1113.5 c 128,-1,9
 490 1147 490 1147 403 1147 c 256,10,11
 316 1147 316 1147 223.5 1130 c 128,-1,12
 131 1113 131 1113 57 1090 c 1,13,-1
 57 1413 l 1,14,15
 152 1443 152 1443 267 1455.5 c 128,-1,16
 382 1468 382 1468 528 1468 c 0,17,18
 640 1468 640 1468 747 1446 c 128,-1,19
 854 1424 854 1424 946 1376.5 c 128,-1,20
 1038 1329 1038 1329 1093.5 1250 c 128,-1,21
 1149 1171 1149 1171 1149 1063 c 0,22,23
 1149 817 1149 817 874 737 c 1,24,-1
 874 733 l 1,25,26
 1169 656 1169 656 1169 399 c 0,27,28
 1169 251 1169 251 1077.5 156 c 128,-1,29
 986 61 986 61 843 18 c 128,-1,30
 700 -25 700 -25 539 -25 c 0,31,32
 416 -25 416 -25 277.5 -8.5 c 128,-1,33
 139 8 139 8 43 35 c 1,34,-1
 43 371 l 1,35,36
 113 347 113 347 212.5 329 c 128,-1,37
 312 311 312 311 403 311 c 0,38,39
 512 311 512 311 572.5 338.5 c 128,-1,40
 633 366 633 366 633 440 c 0,41,42
 633 522 633 522 562.5 552 c 128,-1,43
 492 582 492 582 399 582 c 0,44,45
 336 582 336 582 223 567 c 1,0,-1
EndSplineSet
Validated: 1
EndChar

StartChar: four
Encoding: 52 52 23
Width: 1442
GlyphClass: 1
Flags: W
LayerCount: 2
Fore
SplineSet
457 584 m 1,0,-1
 810 584 l 1,1,-1
 810 1011 l 1,2,3
 511 887 511 887 457 584 c 1,0,-1
1158 584 m 1,4,-1
 1409 584 l 1,5,-1
 1409 276 l 1,6,-1
 1157 276 l 1,7,-1
 1157 0 l 1,8,-1
 810 0 l 1,9,-1
 810 276 l 1,10,-1
 33 276 l 1,11,12
 140 1260 140 1260 1157 1444 c 1,13,-1
 1158 584 l 1,4,-1
EndSplineSet
Validated: 1
EndChar

StartChar: five
Encoding: 53 53 24
Width: 1212
GlyphClass: 1
Flags: W
LayerCount: 2
Fore
SplineSet
1104 1444 m 1,0,-1
 1104 1108 l 1,1,-1
 565 1108 l 1,2,-1
 565 885 l 1,3,4
 620 891 620 891 725 891 c 0,5,6
 845 891 845 891 947 837 c 128,-1,7
 1049 783 1049 783 1109 682 c 128,-1,8
 1169 581 1169 581 1169 449 c 0,9,10
 1169 273 1169 273 1076 167.5 c 128,-1,11
 983 62 983 62 837 18.5 c 128,-1,12
 691 -25 691 -25 516 -25 c 0,13,14
 454 -25 454 -25 375 -18 c 128,-1,15
 296 -11 296 -11 222.5 3 c 128,-1,16
 149 17 149 17 76 37 c 1,17,-1
 76 367 l 1,18,19
 259 324 259 324 377 324 c 0,20,21
 633 324 633 324 633 487 c 0,22,23
 633 587 633 587 549.5 625.5 c 128,-1,24
 466 664 466 664 350 664 c 0,25,26
 233 664 233 664 94 631 c 1,27,-1
 94 1444 l 1,28,-1
 1104 1444 l 1,0,-1
EndSplineSet
Validated: 1
EndChar

StartChar: six
Encoding: 54 54 25
Width: 1401
GlyphClass: 1
Flags: W
LayerCount: 2
Fore
SplineSet
1237 1430 m 1,0,-1
 1237 1096 l 1,1,2
 1212 1102 1212 1102 1164.5 1114 c 128,-1,3
 1117 1126 1117 1126 1081.5 1132 c 128,-1,4
 1046 1138 1046 1138 993.5 1142.5 c 128,-1,5
 941 1147 941 1147 881 1147 c 0,6,7
 741 1147 741 1147 645 1079 c 128,-1,8
 549 1011 549 1011 549 858 c 1,9,10
 600 900 600 900 679.5 923 c 128,-1,11
 759 946 759 946 870 946 c 0,12,13
 1000 946 1000 946 1114.5 891.5 c 128,-1,14
 1229 837 1229 837 1298.5 732 c 128,-1,15
 1368 627 1368 627 1368 483 c 0,16,17
 1368 314 1368 314 1278.5 199.5 c 128,-1,18
 1189 85 1189 85 1044.5 30 c 128,-1,19
 900 -25 900 -25 735 -25 c 0,20,21
 530 -25 530 -25 369 66 c 128,-1,22
 208 157 208 157 120.5 320 c 128,-1,23
 33 483 33 483 33 690 c 0,24,25
 33 938 33 938 131 1114 c 128,-1,26
 229 1290 229 1290 403 1379 c 128,-1,27
 577 1468 577 1468 801 1468 c 0,28,29
 1055 1468 1055 1468 1237 1430 c 1,0,-1
897 483 m 256,30,31
 897 569 897 569 850 620.5 c 128,-1,32
 803 672 803 672 721 672 c 0,33,34
 637 672 637 672 593 619 c 128,-1,35
 549 566 549 566 549 471 c 0,36,37
 549 391 549 391 594.5 338 c 128,-1,38
 640 285 640 285 721 285 c 0,39,40
 801 285 801 285 849 341 c 128,-1,41
 897 397 897 397 897 483 c 256,30,31
EndSplineSet
Validated: 1
EndChar

StartChar: seven
Encoding: 55 55 26
Width: 1400
GlyphClass: 1
Flags: W
LayerCount: 2
Fore
SplineSet
40 1444 m 1,0,-1
 1360 1444 l 1,1,-1
 1360 1014 l 1,2,3
 544 384 544 384 624 0 c 1,4,-1
 40 0 l 1,5,6
 16 508 16 508 739 1014 c 1,7,-1
 40 1014 l 1,8,-1
 40 1444 l 1,0,-1
EndSplineSet
Validated: 33
EndChar

StartChar: eight
Encoding: 56 56 27
Width: 1401
GlyphClass: 1
Flags: W
LayerCount: 2
Fore
SplineSet
25 385 m 0,0,1
 25 667 25 667 311 735 c 1,2,-1
 311 739 l 1,3,4
 222 769 222 769 164.5 810.5 c 128,-1,5
 107 852 107 852 78 917 c 128,-1,6
 49 982 49 982 49 1073 c 0,7,8
 49 1185 49 1185 104.5 1261.5 c 128,-1,9
 160 1338 160 1338 254.5 1383.5 c 128,-1,10
 349 1429 349 1429 462 1448.5 c 128,-1,11
 575 1468 575 1468 698 1468 c 0,12,13
 870 1468 870 1468 1014.5 1431.5 c 128,-1,14
 1159 1395 1159 1395 1250 1306.5 c 128,-1,15
 1341 1218 1341 1218 1341 1073 c 0,16,17
 1341 940 1341 940 1275.5 862 c 128,-1,18
 1210 784 1210 784 1083 737 c 1,19,-1
 1083 739 l 1,20,-1
 1083 735 l 1,21,22
 1215 702 1215 702 1295.5 614.5 c 128,-1,23
 1376 527 1376 527 1376 385 c 0,24,25
 1376 271 1376 271 1316.5 191 c 128,-1,26
 1257 111 1257 111 1160 64 c 128,-1,27
 1063 17 1063 17 942 -4 c 128,-1,28
 821 -25 821 -25 698 -25 c 0,29,30
 531 -25 531 -25 378 14 c 128,-1,31
 225 53 225 53 125 144 c 128,-1,32
 25 235 25 235 25 385 c 0,0,1
860 467 m 0,33,34
 860 549 860 549 820 600 c 128,-1,35
 780 651 780 651 698 651 c 256,36,37
 616 651 616 651 578.5 599.5 c 128,-1,38
 541 548 541 548 541 463 c 0,39,40
 541 379 541 379 579 325.5 c 128,-1,41
 617 272 617 272 698 272 c 0,42,43
 780 272 780 272 820 326.5 c 128,-1,44
 860 381 860 381 860 467 c 0,33,34
545 1036 m 0,45,46
 545 961 545 961 585.5 914 c 128,-1,47
 626 867 626 867 698 866 c 0,48,49
 767 866 767 866 806.5 913.5 c 128,-1,50
 846 961 846 961 846 1032 c 0,51,52
 846 1101 846 1101 806.5 1148.5 c 128,-1,53
 767 1196 767 1196 698 1196 c 0,54,55
 627 1196 627 1196 586 1149.5 c 128,-1,56
 545 1103 545 1103 545 1036 c 0,45,46
EndSplineSet
Validated: 5
EndChar

StartChar: nine
Encoding: 57 57 28
Width: 1401
GlyphClass: 1
Flags: W
LayerCount: 2
Fore
SplineSet
164 14 m 1,0,-1
 164 348 l 1,1,2
 220 333 220 333 268 322 c 128,-1,3
 316 311 316 311 380 304 c 128,-1,4
 444 297 444 297 520 297 c 0,5,6
 658 297 658 297 755 365 c 128,-1,7
 852 433 852 433 852 586 c 1,8,9
 742 498 742 498 530 498 c 0,10,11
 401 498 401 498 287 551.5 c 128,-1,12
 173 605 173 605 103 711 c 128,-1,13
 33 817 33 817 33 961 c 0,14,15
 33 1089 33 1089 85.5 1185.5 c 128,-1,16
 138 1282 138 1282 228 1344.5 c 128,-1,17
 318 1407 318 1407 430 1437.5 c 128,-1,18
 542 1468 542 1468 666 1468 c 0,19,20
 821 1468 821 1468 951 1416.5 c 128,-1,21
 1081 1365 1081 1365 1174 1269.5 c 128,-1,22
 1267 1174 1267 1174 1317.5 1041.5 c 128,-1,23
 1368 909 1368 909 1368 754 c 0,24,25
 1368 506 1368 506 1270 329.5 c 128,-1,26
 1172 153 1172 153 998.5 64 c 128,-1,27
 825 -25 825 -25 600 -25 c 0,28,29
 351 -25 351 -25 164 14 c 1,0,-1
504 961 m 0,30,31
 504 876 504 876 552 824 c 128,-1,32
 600 772 600 772 680 772 c 0,33,34
 765 772 765 772 808.5 825 c 128,-1,35
 852 878 852 878 852 973 c 0,36,37
 852 1054 852 1054 808 1106.5 c 128,-1,38
 764 1159 764 1159 680 1159 c 0,39,40
 599 1159 599 1159 551.5 1103.5 c 128,-1,41
 504 1048 504 1048 504 961 c 0,30,31
EndSplineSet
Validated: 1
EndChar

StartChar: colon
Encoding: 58 58 29
Width: 758
GlyphClass: 1
Flags: W
LayerCount: 2
Fore
SplineSet
156 0 m 1,0,-1
 156 397 l 1,1,-1
 602 397 l 1,2,-1
 602 0 l 1,3,-1
 156 0 l 1,0,-1
156 680 m 1,4,-1
 156 1077 l 1,5,-1
 602 1077 l 1,6,-1
 602 680 l 1,7,-1
 156 680 l 1,4,-1
EndSplineSet
Validated: 1
EndChar

StartChar: semicolon
Encoding: 59 59 30
Width: 1360
GlyphClass: 1
Flags: W
LayerCount: 2
Fore
SplineSet
60 0 m 1,0,-1
 60 1014 l 1,1,-1
 0 1014 l 1,2,-1
 0 1444 l 1,3,-1
 1298 1444 l 1,4,-1
 1298 1014 l 1,5,-1
 530 1014 l 1,6,-1
 530 920 l 1,7,-1
 852 920 l 1,8,-1
 852 640 l 1,9,-1
 528 640 l 1,10,-1
 530 430 l 1,11,-1
 1760 430 l 1,12,-1
 1760 0 l 1,13,-1
 60 0 l 1,0,-1
EndSplineSet
Validated: 1
EndChar

StartChar: less
Encoding: 60 60 31
Width: 0
GlyphClass: 1
Flags: W
LayerCount: 2
Fore
SplineSet
-1656 -512 m 1,0,-1
 -1656 -82 l 1,1,-1
 0 -82 l 1,2,-1
 0 -512 l 1,3,-1
 -1656 -512 l 1,0,-1
EndSplineSet
Validated: 1
EndChar

StartChar: equal
Encoding: 61 61 32
Width: 1456
GlyphClass: 1
Flags: W
LayerCount: 2
Fore
SplineSet
-100 0 m 1,0,-1
 -100 430 l 1,1,-1
 1556 430 l 1,2,-1
 1556 0 l 1,3,-1
 -100 0 l 1,0,-1
EndSplineSet
Validated: 1
EndChar

StartChar: greater
Encoding: 62 62 33
Width: 0
GlyphClass: 1
Flags: W
LayerCount: 2
Fore
SplineSet
0 -512 m 1,0,-1
 0 -82 l 1,1,-1
 1656 -82 l 1,2,-1
 1656 -512 l 1,3,-1
 0 -512 l 1,0,-1
EndSplineSet
Validated: 1
EndChar

StartChar: question
Encoding: 63 63 34
Width: 1176
GlyphClass: 1
Flags: W
LayerCount: 2
Fore
SplineSet
711 535 m 1,0,-1
 301 535 l 1,1,2
 309 678 309 678 348 753.5 c 128,-1,3
 387 829 387 829 437.5 866.5 c 128,-1,4
 488 904 488 904 531.5 938 c 128,-1,5
 575 972 575 972 575 1024 c 256,6,7
 575 1076 575 1076 523 1092 c 128,-1,8
 471 1108 471 1108 373 1108 c 0,9,10
 304 1108 304 1108 222.5 1087.5 c 128,-1,11
 141 1067 141 1067 84 1040 c 1,12,-1
 84 1393 l 1,13,14
 202 1430 202 1430 305.5 1449 c 128,-1,15
 409 1468 409 1468 530 1468 c 0,16,17
 652 1468 652 1468 780 1439.5 c 128,-1,18
 908 1411 908 1411 1000 1333 c 128,-1,19
 1092 1255 1092 1255 1092 1120 c 0,20,21
 1092 1016 1092 1016 1043.5 947.5 c 128,-1,22
 995 879 995 879 896.5 799 c 128,-1,23
 798 719 798 719 754.5 667 c 128,-1,24
 711 615 711 615 711 535 c 1,0,-1
283 385 m 1,25,-1
 729 385 l 1,26,-1
 729 0 l 1,27,-1
 283 0 l 1,28,-1
 283 385 l 1,25,-1
EndSplineSet
Validated: 1
EndChar

StartChar: at
Encoding: 64 64 35
Width: 3001
GlyphClass: 1
Flags: W
LayerCount: 2
Fore
SplineSet
2939 645 m 1,0,-1
 2939 469 l 1,1,-1
 2780 469 l 1,2,3
 2663 477 2663 477 2744 410 c 0,4,5
 2893 294 2893 294 2890 185.5 c 128,-1,6
 2887 77 2887 77 2744 55 c 1,7,-1
 2224 56 l 2,8,9
 2129 55 2129 55 2025 152 c 2,10,-1
 1920 250 l 1,11,-1
 1920 55 l 1,12,-1
 1680 55 l 1,13,-1
 1680 645 l 1,14,-1
 2113 645 l 1,15,16
 2191 640 2191 640 2242 608 c 128,-1,17
 2293 576 2293 576 2317 525 c 1,18,19
 2335 446 2335 446 2318.5 402.5 c 128,-1,20
 2302 359 2302 359 2260.5 331 c 128,-1,21
 2219 303 2219 303 2143 287 c 1,22,23
 2193 228 2193 228 2256 228 c 2,24,-1
 2532 228 l 1,25,26
 2663 223 2663 223 2565 294 c 1,27,28
 2405 426 2405 426 2429 535.5 c 128,-1,29
 2453 645 2453 645 2580 645 c 2,30,-1
 2939 645 l 1,0,-1
1378 1310 m 1,31,-1
 1378 1139 l 1,32,-1
 1168 1139 l 1,33,-1
 1168 723 l 1,34,-1
 952 723 l 1,35,-1
 952 1139 l 1,36,-1
 692 1139 l 1,37,38
 574 1146 574 1146 657 1079 c 0,39,40
 806 963 806 963 803 853.5 c 128,-1,41
 800 744 800 744 657 723 c 1,42,-1
 27 723 l 1,43,-1
 27 899 l 1,44,-1
 444 899 l 1,45,46
 574 894 574 894 477 963 c 1,47,48
 317 1093 317 1093 341.5 1201.5 c 128,-1,49
 366 1310 366 1310 491 1310 c 2,50,-1
 1378 1310 l 1,31,-1
902 55 m 1,51,-1
 1121 645 l 1,52,-1
 1449 645 l 1,53,-1
 1670 55 l 1,54,-1
 1420 55 l 1,55,-1
 1378 161 l 1,56,-1
 1182 161 l 1,57,-1
 1141 55 l 1,58,-1
 902 55 l 1,51,-1
1288 509 m 1,59,-1
 1192 274 l 1,60,-1
 1375 274 l 1,61,-1
 1288 509 l 1,59,-1
1920 502 m 1,62,-1
 1920 394 l 1,63,-1
 2086 394 l 2,64,65
 2099 394 2099 394 2115 402 c 128,-1,66
 2131 410 2131 410 2132 447 c 0,67,68
 2129 481 2129 481 2113 491.5 c 128,-1,69
 2097 502 2097 502 2085 502 c 2,70,-1
 1920 502 l 1,62,-1
260 645 m 1,71,-1
 377 391 l 1,72,-1
 439 645 l 1,73,-1
 655 645 l 1,74,-1
 487 55 l 1,75,-1
 272 55 l 1,76,-1
 27 645 l 1,77,-1
 260 645 l 1,71,-1
655 645 m 1,78,-1
 748 391 l 1,79,-1
 843 645 l 1,80,-1
 1076 645 l 1,81,-1
 858 55 l 1,82,-1
 643 55 l 1,83,-1
 559 304 l 1,84,-1
 629 553 l 1,85,-1
 655 645 l 1,78,-1
1283 723 m 1,86,-1
 1500 1310 l 1,87,-1
 1830 1310 l 1,88,-1
 2051 723 l 1,89,-1
 1800 723 l 1,90,-1
 1758 830 l 1,91,-1
 1562 830 l 1,92,-1
 1520 723 l 1,93,-1
 1283 723 l 1,86,-1
1663 1175 m 1,94,-1
 1568 942 l 1,95,-1
 1750 942 l 1,96,-1
 1663 1175 l 1,94,-1
2091 723 m 1,97,-1
 2091 1310 l 1,98,-1
 2521 1310 l 1,99,100
 2602 1305 2602 1305 2652.5 1275 c 128,-1,101
 2703 1245 2703 1245 2728 1192 c 1,102,103
 2747 1113 2747 1113 2729.5 1070.5 c 128,-1,104
 2712 1028 2712 1028 2671.5 1000 c 128,-1,105
 2631 972 2631 972 2554 956 c 1,106,107
 2603 899 2603 899 2684 900 c 2,108,-1
 2939 899 l 1,109,-1
 2939 723 l 1,110,-1
 2740 723 l 2,111,112
 2540 723 2540 723 2435 820 c 2,113,-1
 2330 917 l 1,114,-1
 2330 723 l 1,115,-1
 2091 723 l 1,97,-1
2326 1169 m 1,116,-1
 2326 1062 l 1,117,-1
 2493 1062 l 2,118,119
 2506 1062 2506 1062 2521 1070 c 128,-1,120
 2536 1078 2536 1078 2539 1113 c 1,121,122
 2536 1148 2536 1148 2520 1158.5 c 128,-1,123
 2504 1169 2504 1169 2493 1169 c 2,124,-1
 2326 1169 l 1,116,-1
EndSplineSet
Validated: 37
EndChar

StartChar: A
Encoding: 65 65 36
Width: 1515
GlyphClass: 1
Flags: W
LayerCount: 2
Fore
SplineSet
-100 1014 m 1,0,-1
 -100 1444 l 1,1,-1
 1112 1444 l 1,2,-1
 1595 0 l 1,3,-1
 1049 0 l 1,4,-1
 958 260 l 1,5,-1
 529 260 l 1,6,-1
 438 0 l 1,7,-1
 -80 0 l 1,8,-1
 203 864 l 1,9,-1
 661 864 l 1,10,-1
 548 552 l 1,11,-1
 946 552 l 1,12,-1
 792 1014 l 1,13,-1
 -100 1014 l 1,0,-1
EndSplineSet
Validated: 1
EndChar

StartChar: B
Encoding: 66 66 37
Width: 1628
GlyphClass: 1
Flags: W
LayerCount: 2
Fore
SplineSet
60 0 m 1,0,-1
 60 507 l 1,1,-1
 60 760 l 1,2,-1
 60 864 l 1,3,-1
 945 864 l 2,4,5
 975 864 975 864 1009 877 c 128,-1,6
 1043 890 1043 890 1045 937 c 1,7,8
 1040 984 1040 984 1004.5 998.5 c 128,-1,9
 969 1013 969 1013 945 1014 c 2,10,-1
 -240 1014 l 1,11,-1
 -240 1444 l 1,12,-1
 1045 1444 l 2,13,14
 1282 1442 1282 1442 1405.5 1362 c 128,-1,15
 1529 1282 1529 1282 1555 1094 c 1,16,17
 1564 950 1564 950 1494 868 c 128,-1,18
 1424 786 1424 786 1263 733 c 1,19,-1
 1263 729 l 1,20,21
 1342 719 1342 719 1409 686.5 c 128,-1,22
 1476 654 1476 654 1521.5 609.5 c 128,-1,23
 1567 565 1567 565 1592 509 c 128,-1,24
 1617 453 1617 453 1617 399 c 0,25,26
 1617 228 1617 228 1529.5 140 c 128,-1,27
 1442 52 1442 52 1304.5 25 c 128,-1,28
 1167 -2 1167 -2 971 0 c 2,29,-1
 60 0 l 1,0,-1
558 559 m 1,30,-1
 558 292 l 1,31,-1
 879 292 l 2,32,33
 962 289 962 289 1024 328 c 128,-1,34
 1086 367 1086 367 1086 424 c 1,35,36
 1092 487 1092 487 1035.5 523 c 128,-1,37
 979 559 979 559 879 559 c 2,38,-1
 558 559 l 1,30,-1
EndSplineSet
Validated: 33
EndChar

StartChar: C
Encoding: 67 67 38
Width: 1068
GlyphClass: 1
Flags: W
LayerCount: 2
Fore
SplineSet
478 723 m 1,0,1
 486 607 486 607 530 548 c 128,-1,2
 574 489 574 489 635 454.5 c 128,-1,3
 696 420 696 420 820 405 c 1,4,-1
 1050 405 l 1,5,-1
 1050 0 l 1,6,-1
 816 0 l 1,7,8
 592 13 592 13 477 65.5 c 128,-1,9
 362 118 362 118 249.5 205 c 128,-1,10
 137 292 137 292 73.5 422.5 c 128,-1,11
 10 553 10 553 10 723 c 256,12,13
 10 893 10 893 73.5 1023.5 c 128,-1,14
 137 1154 137 1154 249.5 1241 c 128,-1,15
 362 1328 362 1328 477 1380.5 c 128,-1,16
 592 1433 592 1433 816 1444 c 1,17,-1
 1050 1444 l 1,18,-1
 1050 1041 l 1,19,-1
 820 1041 l 1,20,21
 696 1026 696 1026 635 991.5 c 128,-1,22
 574 957 574 957 530 898 c 128,-1,23
 486 839 486 839 478 723 c 1,0,1
EndSplineSet
Validated: 1
EndChar

StartChar: D
Encoding: 68 68 39
Width: 1662
GlyphClass: 1
Flags: W
LayerCount: 2
Fore
SplineSet
60 0 m 1,0,-1
 60 864 l 1,1,-1
 542 864 l 1,2,-1
 542 452 l 1,3,-1
 816 452 l 2,4,5
 910 452 910 452 1010 510 c 128,-1,6
 1110 568 1110 568 1108 736 c 1,7,8
 1100 902 1100 902 1005 958 c 128,-1,9
 910 1014 910 1014 815 1014 c 2,10,-1
 -240 1014 l 1,11,-1
 -240 1444 l 1,12,-1
 912 1444 l 2,13,14
 1085 1444 1085 1444 1217 1398 c 128,-1,15
 1349 1352 1349 1352 1440 1274 c 128,-1,16
 1531 1196 1531 1196 1591.5 1063 c 128,-1,17
 1652 930 1652 930 1652 717 c 1,18,19
 1641 520 1641 520 1586 382 c 128,-1,20
 1531 244 1531 244 1440 164 c 128,-1,21
 1349 84 1349 84 1217.5 40 c 128,-1,22
 1086 -4 1086 -4 888 0 c 1,23,-1
 60 0 l 1,0,-1
EndSplineSet
Validated: 33
EndChar

StartChar: E
Encoding: 69 69 40
Width: 1360
GlyphClass: 1
Flags: W
LayerCount: 2
Fore
SplineSet
60 0 m 1,0,-1
 60 1014 l 1,1,-1
 -240 1014 l 1,2,-1
 -240 1444 l 1,3,-1
 1298 1444 l 1,4,-1
 1298 1014 l 1,5,-1
 530 1014 l 1,6,-1
 530 920 l 1,7,-1
 852 920 l 1,8,-1
 852 640 l 1,9,-1
 530 640 l 1,10,-1
 530 430 l 1,11,-1
 1420 430 l 1,12,-1
 1420 0 l 1,13,-1
 60 0 l 1,0,-1
EndSplineSet
Validated: 1
EndChar

StartChar: F
Encoding: 70 70 41
Width: 1328
GlyphClass: 1
Flags: W
LayerCount: 2
Fore
SplineSet
60 0 m 1,0,-1
 60 1014 l 1,1,-1
 -240 1014 l 1,2,-1
 -240 1444 l 1,3,-1
 1298 1444 l 1,4,-1
 1298 1014 l 1,5,-1
 530 1014 l 1,6,-1
 530 920 l 1,7,-1
 852 920 l 1,8,-1
 852 640 l 1,9,-1
 530 640 l 1,10,-1
 530 0 l 1,11,-1
 60 0 l 1,0,-1
EndSplineSet
Validated: 1
EndChar

StartChar: G
Encoding: 71 71 42
Width: 1440
GlyphClass: 1
Flags: W
LayerCount: 2
Fore
SplineSet
1001 430 m 1,0,-1
 1001 722 l 1,1,-1
 1440 722 l 1,2,-1
 1440 0 l 1,3,-1
 819 0 l 2,4,5
 591 0 591 0 406.5 83.5 c 128,-1,6
 222 167 222 167 116 334 c 128,-1,7
 10 501 10 501 10 743 c 0,8,9
 10 913 10 913 73.5 1046.5 c 128,-1,10
 137 1180 137 1180 249.5 1268.5 c 128,-1,11
 362 1357 362 1357 477 1410.5 c 128,-1,12
 592 1464 592 1464 816 1476 c 1,13,14
 1048 1464 1048 1464 1170 1420 c 128,-1,15
 1292 1376 1292 1376 1416 1260 c 1,16,-1
 1132 944 l 1,17,18
 1060 1004 1060 1004 1004 1030 c 128,-1,19
 948 1056 948 1056 820 1064 c 1,20,21
 696 1048 696 1048 638 1010 c 128,-1,22
 580 972 580 972 536 912 c 128,-1,23
 492 852 492 852 480 728 c 1,24,25
 492 604 492 604 536 554 c 128,-1,26
 580 504 580 504 646 472 c 128,-1,27
 712 440 712 440 788 432 c 128,-1,28
 864 424 864 424 1001 430 c 1,0,-1
EndSplineSet
Validated: 33
EndChar

StartChar: H
Encoding: 72 72 43
Width: 1398
GlyphClass: 1
Flags: W
LayerCount: 2
Fore
SplineSet
888 946 m 1,0,-1
 888 1444 l 1,1,-1
 1358 1444 l 1,2,-1
 1358 0 l 1,3,-1
 888 0 l 1,4,-1
 888 520 l 1,5,-1
 510 520 l 1,6,-1
 510 0 l 1,7,-1
 40 0 l 1,8,-1
 40 1014 l 1,9,-1
 -260 1014 l 1,10,-1
 -260 1444 l 1,11,-1
 510 1444 l 1,12,-1
 510 946 l 1,13,-1
 888 946 l 1,0,-1
EndSplineSet
Validated: 1
EndChar

StartChar: I
Encoding: 73 73 44
Width: 1662
GlyphClass: 1
Flags: WO
LayerCount: 2
Fore
SplineSet
875 0 m 1,0,1
 875 0 875 0 741 0 c 1,2,-1
 741 423 l 1,3,-1
 874 423 l 1,4,5
 874 423 874 423 873 1036 c 1,6,-1
 642 1036 l 9,7,-1
 642 1461 l 1,8,-1
 1340 1462 l 1,9,-1
 1344 0 l 1,10,-1
 875 0 l 1,0,1
EndSplineSet
EndChar

StartChar: J
Encoding: 74 74 45
Width: 879
GlyphClass: 1
Flags: W
LayerCount: 2
Fore
SplineSet
800 1444 m 1,0,-1
 801 454 l 1,1,2
 795 288 795 288 753 226 c 128,-1,3
 711 164 711 164 630 105 c 128,-1,4
 549 46 549 46 216 0 c 1,5,-1
 5 430 l 1,6,7
 83 410 83 410 181 430 c 0,8,9
 259 448 259 448 289 472 c 128,-1,10
 319 496 319 496 331 586 c 1,11,-1
 331 1444 l 1,12,-1
 800 1444 l 1,0,-1
EndSplineSet
Validated: 33
EndChar

StartChar: K
Encoding: 75 75 46
Width: 1404
GlyphClass: 1
Flags: W
LayerCount: 2
Fore
SplineSet
530 1444 m 1,0,-1
 530 974 l 1,1,-1
 860 1444 l 1,2,-1
 1330 1444 l 1,3,-1
 792 722 l 1,4,-1
 912 576 l 2,5,6
 1032 430 1032 430 1224 430 c 2,7,-1
 1804 430 l 1,8,-1
 1804 0 l 1,9,-1
 1114 0 l 2,10,11
 894 0 894 0 712 215 c 2,12,-1
 530 430 l 1,13,-1
 530 0 l 1,14,-1
 60 0 l 1,15,-1
 60 1444 l 1,16,-1
 530 1444 l 1,0,-1
EndSplineSet
Validated: 1
EndChar

StartChar: L
Encoding: 76 76 47
Width: 1312
GlyphClass: 1
Flags: W
LayerCount: 2
Fore
SplineSet
60 0 m 1,0,-1
 60 1014 l 1,1,-1
 -240 1014 l 1,2,-1
 -240 1444 l 1,3,-1
 530 1444 l 1,4,-1
 530 430 l 1,5,-1
 1312 430 l 1,6,-1
 1312 0 l 1,7,-1
 60 0 l 1,0,-1
EndSplineSet
Validated: 1
EndChar

StartChar: M
Encoding: 77 77 48
Width: 1650
GlyphClass: 1
Flags: W
LayerCount: 2
Fore
SplineSet
40 0 m 1,0,-1
 40 1014 l 1,1,-1
 -260 1014 l 1,2,-1
 -260 1444 l 1,3,-1
 510 1444 l 1,4,-1
 824 1012 l 1,5,-1
 1140 1444 l 1,6,-1
 1610 1444 l 1,7,-1
 1610 0 l 1,8,-1
 1140 0 l 1,9,-1
 1140 412 l 1,10,-1
 838 0 l 1,11,-1
 812 0 l 1,12,-1
 508 412 l 1,13,-1
 510 0 l 1,14,-1
 40 0 l 1,0,-1
EndSplineSet
Validated: 1
EndChar

StartChar: N
Encoding: 78 78 49
Width: 1430
GlyphClass: 1
Flags: W
LayerCount: 2
Fore
SplineSet
60 0 m 1,0,-1
 60 1444 l 1,1,2
 732 1392 732 1392 960 904 c 1,3,-1
 960 1444 l 1,4,-1
 1830 1444 l 1,5,-1
 1830 1014 l 1,6,-1
 1430 1014 l 1,7,-1
 1430 0 l 1,8,-1
 960 0 l 1,9,10
 884 332 884 332 530 540 c 1,11,-1
 530 0 l 1,12,-1
 60 0 l 1,0,-1
EndSplineSet
Validated: 1
EndChar

StartChar: O
Encoding: 79 79 50
Width: 1430
GlyphClass: 1
Flags: W
LayerCount: 2
Fore
SplineSet
835 1455 m 0,0,1
 1094 1455 1094 1455 1282 1369.5 c 128,-1,2
 1470 1284 1470 1284 1569 1117.5 c 128,-1,3
 1668 951 1668 951 1668 714 c 256,4,5
 1668 477 1668 477 1569 310 c 128,-1,6
 1470 143 1470 143 1282.5 59 c 128,-1,7
 1095 -25 1095 -25 835 -25 c 256,8,9
 575 -25 575 -25 388.5 59.5 c 128,-1,10
 202 144 202 144 106 309.5 c 128,-1,11
 10 475 10 475 10 714 c 0,12,13
 10 888 10 888 60 1014 c 24,14,15
 60 1014 60 1014 -240 1014 c 1,16,-1
 -244 1450 l 1,17,-1
 -244 1450 l 1,18,19
 548 1452 548 1452 835 1455 c 1025,20,-1
523 710 m 0,21,22
 523 571 523 571 585.5 468 c 128,-1,23
 648 365 648 365 832 365 c 0,24,25
 974 365 974 365 1044.5 419 c 128,-1,26
 1115 473 1115 473 1132.5 542.5 c 128,-1,27
 1150 612 1150 612 1156 710 c 1,28,29
 1150 849 1150 849 1089 952.5 c 128,-1,30
 1028 1056 1028 1056 832 1056 c 0,31,32
 523 1056 523 1056 523 710 c 0,21,22
530 540 m 1025,33,-1
EndSplineSet
Validated: 11
EndChar

StartChar: P
Encoding: 80 80 51
Width: 1501
GlyphClass: 1
Flags: W
LayerCount: 2
Fore
SplineSet
60 0 m 1,0,-1
 60 864 l 1,1,-1
 944 864 l 2,2,3
 980 864 980 864 1011 877 c 128,-1,4
 1042 890 1042 890 1042 936 c 0,5,6
 1042 984 1042 984 1006 998 c 128,-1,7
 970 1012 970 1012 944 1014 c 2,8,-1
 -240 1014 l 1,9,-1
 -240 1444 l 1,10,-1
 1000 1444 l 1,11,12
 1174 1427 1174 1427 1288 1346.5 c 128,-1,13
 1402 1266 1402 1266 1450 1121 c 1,14,15
 1494 947 1494 947 1486 859.5 c 128,-1,16
 1478 772 1478 772 1454 695.5 c 128,-1,17
 1430 619 1430 619 1322 519 c 128,-1,18
 1214 419 1214 419 1034 389 c 1,19,-1
 580 390 l 1,20,-1
 580 0 l 1,21,-1
 60 0 l 1,0,-1
EndSplineSet
Validated: 33
EndChar

StartChar: Q
Encoding: 81 81 52
Width: 1430
GlyphClass: 1
Flags: W
LayerCount: 2
Fore
SplineSet
835 1455 m 0,0,1
 1094 1455 1094 1455 1282 1369.5 c 128,-1,2
 1470 1284 1470 1284 1569 1117.5 c 128,-1,3
 1668 951 1668 951 1668 714 c 256,4,5
 1668 477 1668 477 1569 310 c 0,6,7
 1492 180 1492 180 1354 100 c 1,8,9
 1435.74240838 -37.5664921466 1435.74240838 -37.5664921466 1442 -40 c 2,10,11
 1475 -92 1475 -92 1550 -82 c 1,12,-1
 1550 -512 l 1,13,14
 1264 -520 1264 -520 1176 -400 c 1,15,-1
 920.802734375 -22.6015625 l 4,16,17
 879 -25 879 -25 835 -25 c 256,18,19
 575 -25 575 -25 388.5 59.5 c 128,-1,20
 202 144 202 144 106 309.5 c 128,-1,21
 10 475 10 475 10 714 c 0,22,23
 10 888 10 888 60 1014 c 24,24,25
 60 1014 60 1014 -240 1014 c 1,26,-1
 -244 1450 l 1,27,-1
 -244 1450 l 1,28,29
 548 1452 548 1452 835 1455 c 1025,30,-1
1347.56432464 92.1783767926 m 1025,31,32
523 710 m 0,33,34
 523 571 523 571 585.5 468 c 128,-1,35
 648 365 648 365 832 365 c 0,36,37
 974 365 974 365 1044.5 419 c 128,-1,38
 1115 473 1115 473 1132.5 542.5 c 128,-1,39
 1150 612 1150 612 1156 710 c 1,40,41
 1150 849 1150 849 1089 952.5 c 128,-1,42
 1028 1056 1028 1056 832 1056 c 0,43,44
 523 1056 523 1056 523 710 c 0,33,34
530 540 m 1025,45,-1
1140 0 m 1025,46,-1
510 0 m 1025,47,-1
510 1444 m 1025,48,-1
EndSplineSet
Validated: 43
EndChar

StartChar: R
Encoding: 82 82 53
Width: 1550
GlyphClass: 1
Flags: W
LayerCount: 2
Fore
SplineSet
60 0 m 1,0,-1
 62 864 l 1,1,-1
 946 864 l 2,2,3
 976 864 976 864 1008 877 c 128,-1,4
 1040 890 1040 890 1044 936 c 1,5,6
 1040 984 1040 984 1005 999 c 128,-1,7
 970 1014 970 1014 944 1014 c 2,8,-1
 0 1014 l 1,9,-1
 0 1444 l 1,10,-1
 1000 1444 l 1,11,12
 1174 1429 1174 1429 1286 1345.5 c 128,-1,13
 1398 1262 1398 1262 1450 1122 c 1,14,15
 1490 913 1490 913 1454 799 c 128,-1,16
 1418 685 1418 685 1328 609 c 128,-1,17
 1238 533 1238 533 1216 522.5 c 128,-1,18
 1194 512 1194 512 1184 490 c 1,19,20
 1190 452 1190 452 1312 430 c 1,21,-1
 1948 430 l 1,22,-1
 1948 0 l 1,23,-1
 1264 0 l 1,24,25
 952 -6 952 -6 770 192 c 1,26,-1
 582 390 l 1,27,-1
 582 0 l 1,28,-1
 60 0 l 1,0,-1
EndSplineSet
Validated: 33
EndChar

StartChar: S
Encoding: 83 83 54
Width: 1135
GlyphClass: 1
Flags: W
LayerCount: 2
Fore
SplineSet
1298 1014 m 1,0,-1
 844 1014 l 1,1,2
 587 1022 587 1022 768 872 c 1,3,4
 1092 588 1092 588 1086 320 c 128,-1,5
 1080 52 1080 52 768 0 c 1,6,-1
 -492 0 l 1,7,-1
 -492 430 l 1,8,-1
 304 430 l 1,9,10
 587 422 587 422 376 588 c 1,11,12
 28 908 28 908 80 1176 c 128,-1,13
 132 1444 132 1444 408 1444 c 2,14,-1
 1298 1444 l 1,15,-1
 1298 1014 l 1,0,-1
EndSplineSet
Validated: 33
EndChar

StartChar: T
Encoding: 84 84 55
Width: 1070
GlyphClass: 1
Flags: W
LayerCount: 2
Fore
SplineSet
1228 1444 m 1,0,-1
 1228 1014 l 1,1,-1
 770 1014 l 1,2,-1
 770 0 l 1,3,-1
 300 0 l 1,4,-1
 300 1014 l 1,5,-1
 -158 1014 l 1,6,-1
 -158 1444 l 1,7,-1
 1228 1444 l 1,0,-1
EndSplineSet
Validated: 1
EndChar

StartChar: U
Encoding: 85 85 56
Width: 1430
GlyphClass: 1
Flags: W
LayerCount: 2
Fore
SplineSet
1666 1022 m 4,0,1
 1666 791 1666 791 1668 714 c 260,2,3
 1674 455 1674 455 1560.67936572 295.964182583 c 4,4,5
 1442 131 1442 131 1282.5 59 c 4,6,7
 1095 -25 1095 -25 835 -25 c 260,8,9
 575 -25 575 -25 388.5 59.5 c 132,-1,10
 202 144 202 144 110.226192669 302.21421993 c 4,11,12
 18 460 18 460 10 714 c 4,13,14
 5 864 5 864 0 1014 c 28,15,16
 0 1014 0 1014 -240 1014 c 5,17,-1
 -244 1450 l 5,18,-1
 -244 1450 l 5,19,20
 139 1451 139 1451 522 1452 c 5,21,22
 523 710 523 710 523 710 c 4,23,24
 523 571 523 571 585.5 468 c 132,-1,25
 648 365 648 365 832 365 c 4,26,27
 974 365 974 365 1044.5 419 c 132,-1,28
 1115 473 1115 473 1123.5 542.5 c 132,-1,29
 1132 612 1132 612 1133 710 c 28,30,31
 1133 710 1133 710 1124 1453 c 5,32,33
 1394 1452 1394 1452 1664 1452 c 5,34,35
 1666 1022 1666 1022 1666 1022 c 4,0,1
530 540 m 1029,36,-1
1140 0 m 1029,37,-1
510 0 m 1029,38,-1
EndSplineSet
Validated: 37
EndChar

StartChar: V
Encoding: 86 86 57
Width: 1430
GlyphClass: 1
Flags: W
LayerCount: 2
Fore
SplineSet
1018 1457 m 1,0,-1
 743 581 l 1,1,2
 562 1018 562 1018 382 1456 c 1,3,4
 68 1456 68 1456 -245 1456 c 1,5,6
 -245 1456 -245 1456 -245 1456 c 1,7,-1
 -240 1014 l 1,8,-1
 79 1014 l 1,9,10
 510 0 510 0 510 0 c 257,11,12
 1078 0 1078 0 1078 0 c 149,-1,13
 1078 0 1078 0 1504 1455 c 5,14,15
 1504 1455 1504 1455 1018 1457 c 1,0,-1
EndSplineSet
Validated: 5
EndChar

StartChar: W
Encoding: 87 87 58
Width: 1800
GlyphClass: 1
Flags: W
LayerCount: 2
Fore
SplineSet
1008 356 m 1,0,-1
 756 0 l 1,1,-1
 384 0 l 1,2,-1
 52 1014 l 1,3,-1
 -248 1014 l 1,4,-1
 -248 1444 l 1,5,-1
 414 1444 l 1,6,-1
 612 820 l 1,7,-1
 1004 1332 l 1,8,-1
 1417 820 l 1,9,-1
 1551 1444 l 1,10,-1
 2016 1444 l 1,11,-1
 1659 0 l 1,12,-1
 1244 0 l 1,13,-1
 1008 356 l 1,0,-1
EndSplineSet
Validated: 1
EndChar

StartChar: X
Encoding: 88 88 59
Width: 1472
GlyphClass: 1
Flags: W
LayerCount: 2
Fore
SplineSet
-130 1011.5 m 1,0,-1
 190 1011.5 l 1,1,-1
 400 722 l 1,2,-1
 -130 0 l 1,3,-1
 440 0 l 1,4,-1
 734 446 l 1,5,-1
 1032 0 l 1,6,-1
 1602 0 l 1,7,-1
 1072 722 l 1,8,-1
 1602 1444 l 1,9,-1
 1032 1444 l 1,10,-1
 734 998 l 1,11,-1
 440 1444 l 1,12,-1
 -130 1444 l 1,13,-1
 -130 1011.5 l 1,0,-1
EndSplineSet
Validated: 9
EndChar

StartChar: Y
Encoding: 89 89 60
Width: 1472
GlyphClass: 1
Flags: W
LayerCount: 2
Fore
SplineSet
440 1444 m 1,0,-1
 738 998 l 1,1,-1
 1032 1444 l 1,2,-1
 1602 1444 l 1,3,-1
 972 530 l 1,4,-1
 973 458 l 1,5,6
 967 292 967 292 925 230 c 128,-1,7
 883 168 883 168 802 109 c 128,-1,8
 721 50 721 50 516 0 c 1,9,-1
 177 434 l 1,10,11
 255 414 255 414 353 434 c 0,12,13
 431 452 431 452 461 476 c 128,-1,14
 491 500 491 500 502 530 c 1,15,-1
 164 1014 l 1,16,-1
 -136 1014 l 5,17,-1
 -136 1444 l 5,18,-1
 440 1444 l 1,0,-1
EndSplineSet
Validated: 33
EndChar

StartChar: Z
Encoding: 90 90 61
Width: 1400
GlyphClass: 1
Flags: W
LayerCount: 2
Fore
SplineSet
-115 1444 m 1,0,-1
 1360 1444 l 1,1,-1
 1360 1014 l 1,2,3
 876 668 876 668 804 432 c 1,4,-1
 1360 430 l 1,5,-1
 1360 0 l 1,6,-1
 40 0 l 1,7,8
 16 508 16 508 739 1014 c 1,9,-1
 -115 1014 l 1,10,-1
 -115 1444 l 1,0,-1
EndSplineSet
Validated: 33
EndChar

StartChar: bracketleft
Encoding: 91 91 62
Width: 1404
GlyphClass: 1
Flags: W
LayerCount: 2
Fore
SplineSet
530 1444 m 1,0,-1
 530 974 l 1,1,-1
 860 1444 l 1,2,-1
 1330 1444 l 1,3,-1
 792 722 l 1,4,-1
 912 576 l 2,5,6
 1032 430 1032 430 1224 430 c 2,7,-1
 1804 430 l 1,8,-1
 1804 0 l 1,9,-1
 1114 0 l 2,10,11
 894 0 894 0 712 215 c 2,12,-1
 530 430 l 1,13,-1
 530 0 l 1,14,-1
 60 0 l 1,15,-1
 60 1014 l 1,16,-1
 -240 1014 l 1,17,-1
 -240 1444 l 1,18,-1
 530 1444 l 1,0,-1
EndSplineSet
Validated: 1
EndChar

StartChar: backslash
Encoding: 92 92 63
Width: 56
GlyphClass: 1
Flags: W
LayerCount: 2
Fore
SplineSet
-296 0 m 1,0,-1
 -296 430 l 1,1,-1
 354 430 l 1,2,-1
 354 0 l 1,3,-1
 -296 0 l 1,0,-1
EndSplineSet
Validated: 1
EndChar

StartChar: bracketright
Encoding: 93 93 64
Width: 1800
GlyphClass: 1
Flags: W
LayerCount: 2
Fore
SplineSet
639 0 m 1,0,-1
 224 0 l 1,1,-1
 -133 1444 l 1,2,-1
 332 1444 l 1,3,-1
 466 820 l 1,4,-1
 879 1332 l 1,5,-1
 1271 820 l 1,6,-1
 1469 1444 l 1,7,-1
 2131 1444 l 1,8,-1
 2131 1014 l 1,9,-1
 1831 1014 l 1,10,-1
 1499 0 l 1,11,-1
 1127 0 l 1,12,-1
 875 356 l 1,13,-1
 639 0 l 1,0,-1
EndSplineSet
Validated: 1
EndChar

StartChar: asciicircum
Encoding: 94 94 65
Width: 1860
GlyphClass: 1
Flags: W
LayerCount: 2
Fore
SplineSet
116 932 m 1,0,-1
 116 828 l 1,1,-1
 166 828 l 1,2,-1
 166 841 l 1,3,-1
 132 841 l 1,4,-1
 132 932 l 1,5,-1
 116 932 l 1,0,-1
282 932 m 1,6,-1
 282 853 l 1,7,8
 291 828 291 828 324 822 c 1,9,10
 357 824 357 824 370 861 c 1,11,-1
 370 932 l 1,12,-1
 350 931 l 1,13,-1
 346 849 l 1,14,15
 307 836 307 836 300 856 c 1,16,-1
 300 932 l 1,17,-1
 282 932 l 1,6,-1
491 899 m 1,18,19
 478 849 478 849 537 824 c 1,20,-1
 578 832 l 1,21,-1
 578 849 l 1,22,23
 528 829 528 829 507 866 c 1,24,25
 503 911 503 911 532 920 c 1,26,27
 562 924 562 924 578 911 c 1,28,29
 587 928 587 928 562 936 c 1,30,31
 511 943 511 943 491 899 c 1,18,19
748 903 m 1,32,-1
 766 871 l 1,33,-1
 732 870 l 1,34,-1
 748 903 l 1,32,-1
691 828 m 1,35,-1
 712 828 l 1,36,-1
 720 853 l 1,37,-1
 774 853 l 1,38,-1
 783 828 l 1,39,-1
 803 828 l 1,40,-1
 747 937 l 1,41,-1
 691 828 l 1,35,-1
916 857 m 1,42,43
 912 836 912 836 943 826 c 1,44,45
 971 825 971 825 987 845 c 1,46,-1
 985 877 l 1,47,-1
 937 903 l 1,48,49
 932 920 932 920 945 920 c 0,50,51
 970 924 970 924 978 911 c 1,52,-1
 982 916 l 1,53,-1
 978 928 l 1,54,-1
 962 936 l 1,55,56
 935 943 935 943 920 920 c 1,57,-1
 920 895 l 1,58,-1
 970 866 l 1,59,60
 974 845 974 845 962 841 c 1,61,-1
 941 841 l 1,62,63
 932 866 932 866 916 857 c 1,42,43
528 230 m 1,64,-1
 624 230 l 1,65,-1
 624 399 l 1,66,-1
 937 399 l 1,67,-1
 937 232 l 1,68,-1
 1024 232 l 1,69,-1
 1024 636 l 1,70,-1
 937 636 l 1,71,-1
 937 470 l 1,72,-1
 624 470 l 1,73,-1
 624 636 l 1,74,-1
 528 636 l 1,75,-1
 528 230 l 1,64,-1
1112 932 m 1,76,-1
 1112 828 l 1,77,-1
 1128 828 l 1,78,-1
 1128 878 l 1,79,-1
 1166 878 l 1,80,-1
 1162 895 l 1,81,-1
 1128 895 l 1,82,-1
 1128 920 l 1,83,-1
 1170 920 l 1,84,-1
 1166 932 l 1,85,-1
 1112 932 l 1,76,-1
1291 932 m 1,86,-1
 1291 828 l 1,87,-1
 1307 828 l 1,88,-1
 1307 932 l 1,89,-1
 1291 932 l 1,86,-1
1437 932 m 1,90,-1
 1437 828 l 1,91,-1
 1491 828 l 1,92,-1
 1491 841 l 1,93,-1
 1453 845 l 1,94,-1
 1453 932 l 1,95,-1
 1437 932 l 1,90,-1
1082 230 m 1,96,-1
 1208 230 l 1,97,-1
 1370 392 l 1,98,-1
 1524 234 l 1,99,-1
 1648 234 l 1,100,-1
 1430 454 l 1,101,-1
 1620 638 l 1,102,-1
 1495 638 l 1,103,-1
 1360 506 l 1,104,-1
 1226 638 l 1,105,-1
 1100 638 l 1,106,-1
 1294 450 l 1,107,-1
 1082 230 l 1,96,-1
1641 328 m 1,108,-1
 1653 324 l 1,109,-1
 1641 320 l 1,110,-1
 1641 328 l 1,108,-1
1628 336 m 1,111,-1
 1632 295 l 1,112,-1
 1641 295 l 1,113,-1
 1645 311 l 1,114,-1
 1657 295 l 1,115,116
 1628 282 1628 282 1620 307 c 1,117,-1
 1628 336 l 1,111,-1
1670 324 m 1,118,-1
 1666 299 l 1,119,-1
 1653 307 l 1,120,121
 1666 320 1666 320 1662 332 c 1,122,-1
 1637 341 l 1,123,124
 1662 341 1662 341 1670 324 c 1,118,-1
1612 328 m 1,125,-1
 1612 299 l 1,126,-1
 1628 282 l 1,127,128
 1662 266 1662 266 1682 316 c 1,129,-1
 1678 332 l 1,130,-1
 1657 349 l 1,131,132
 1620 349 1620 349 1612 328 c 1,125,-1
1596 828 m 1,133,-1
 1616 828 l 1,134,-1
 1628 891 l 1,135,-1
 1660 828 l 1,136,-1
 1695 891 l 1,137,-1
 1704 829 l 1,138,-1
 1724 828 l 1,139,-1
 1698 935 l 1,140,-1
 1662 861 l 1,141,-1
 1620 936 l 1,142,-1
 1596 828 l 1,133,-1
104 110 m 1,143,-1
 1736 110 l 1,144,-1
 1736 190 l 1,145,-1
 104 190 l 1,146,-1
 104 110 l 1,143,-1
107 753 m 1,147,-1
 107 677 l 1,148,-1
 304 677 l 1,149,-1
 304 234 l 1,150,-1
 396 234 l 1,151,-1
 396 676 l 1,152,-1
 1737 676 l 1,153,-1
 1737 753 l 1,154,-1
 107 753 l 1,147,-1
24 982 m 1,155,-1
 1824 982 l 1,156,-1
 1824 45 l 1,157,-1
 24 45 l 1,158,-1
 24 982 l 1,155,-1
EndSplineSet
Validated: 33
EndChar

StartChar: underscore
Encoding: 95 95 66
Width: 2048
GlyphClass: 1
Flags: W
LayerCount: 2
Fore
SplineSet
499 2515 m 1,0,-1
 878 2554 l 1,1,-1
 898 2490 l 1,2,-1
 731 2371 l 1,3,-1
 625 2361 l 1,4,-1
 555 1623 l 1,5,6
 635 1831 635 1831 746.5 1908 c 128,-1,7
 858 1985 858 1985 1007 2005 c 128,-1,8
 1156 2025 1156 2025 1310 2007.5 c 128,-1,9
 1464 1990 1464 1990 1544.5 1938 c 128,-1,10
 1625 1886 1625 1886 1680.5 1772 c 128,-1,11
 1736 1658 1736 1658 1752 1539 c 1,12,-1
 1772 1499 l 1,13,-1
 1777 1316 l 1,14,-1
 1858 667 l 1,15,-1
 1575 519 l 1,16,-1
 1580 494 l 1,17,-1
 1610 469 l 1,18,19
 1926 548 1926 548 1944 459 c 1,20,-1
 2066 440 l 1,21,22
 2135 360 2135 360 2065 326 c 1,23,-1
 620 286 l 1,24,-1
 135 227 l 1,25,26
 60 281 60 281 317 400 c 1,27,-1
 630 425 l 1,28,-1
 585 474 l 1,29,-1
 565 524 l 1,30,-1
 605 583 l 1,31,-1
 610 608 l 1,32,-1
 469 672 l 1,33,-1
 529 1316 l 1,34,-1
 529 1480 l 1,35,36
 489 1490 489 1490 469 1549 c 1,37,-1
 555 2356 l 1,38,-1
 489 2386 l 1,39,-1
 464 2470 l 1,40,-1
 499 2515 l 1,0,-1
1302 1482 m 1,41,-1
 1302 1309 l 1,42,-1
 1312 1289 l 1,43,-1
 1307 462 l 1,44,-1
 1388 457 l 1,45,-1
 1393 1348 l 1,46,-1
 1408 1348 l 1,47,-1
 1408 1472 l 1,48,-1
 1302 1482 l 1,41,-1
918 1492 m 1,49,-1
 883 1393 l 1,50,-1
 979 1373 l 1,51,-1
 999 1487 l 1,52,-1
 918 1492 l 1,49,-1
764 1400 m 1,53,-1
 779 1490 l 1,54,-1
 749 1492 l 1,55,-1
 729 1400 l 1,56,-1
 764 1400 l 1,53,-1
610 1423 m 1,57,-1
 620 1423 l 1,58,-1
 628 1460 l 1,59,-1
 557 1465 l 1,60,-1
 557 1428 l 1,61,-1
 610 1423 l 1,57,-1
1557 1462 m 1,62,-1
 1537 1356 l 1,63,-1
 1577 1358 l 1,64,-1
 1613 1455 l 1,65,-1
 1557 1462 l 1,62,-1
1618 1361 m 1,66,-1
 1691 1358 l 1,67,-1
 1724 1403 l 1,68,-1
 1731 1447 l 1,69,-1
 1651 1462 l 1,70,-1
 1618 1361 l 1,66,-1
544 1395 m 1,71,-1
 879 1361 l 1,72,-1
 1092 1319 l 1,73,-1
 1077 591 l 1,74,-1
 1056 782 l 2,75,76
 1034 992 1034 992 1009 1071 c 128,-1,77
 984 1150 984 1150 928.5 1209.5 c 128,-1,78
 873 1269 873 1269 817.5 1297.5 c 128,-1,79
 762 1326 762 1326 701 1330 c 128,-1,80
 640 1334 640 1334 557 1338 c 1,81,-1
 544 1395 l 1,71,-1
1432 1315 m 1,82,-1
 1724 1356 l 1,83,-1
 1734 1284 l 1,84,85
 1668 1264 1668 1264 1633 1249 c 128,-1,86
 1598 1234 1598 1234 1572.5 1194.5 c 128,-1,87
 1547 1155 1547 1155 1514 1073.5 c 128,-1,88
 1481 992 1481 992 1451 749 c 2,89,-1
 1428 536 l 1,90,-1
 1432 1315 l 1,82,-1
524 1415 m 1,91,-1
 537 1319 l 1,92,93
 600 1321 600 1321 669.5 1317.5 c 128,-1,94
 739 1314 739 1314 798.5 1283 c 128,-1,95
 858 1252 858 1252 912 1195 c 128,-1,96
 966 1138 966 1138 989 1067 c 128,-1,97
 1012 996 1012 996 1067 539 c 1,98,-1
 1090 526 l 1,99,-1
 1108 1336 l 1,100,-1
 878 1376 l 1,101,-1
 524 1415 l 1,91,-1
1416 1334 m 1,102,-1
 1413 464 l 1,103,-1
 1436 467 l 1,104,105
 1489 965 1489 965 1530.5 1066.5 c 128,-1,106
 1572 1168 1572 1168 1600 1200 c 128,-1,107
 1628 1232 1628 1232 1674.5 1249.5 c 128,-1,108
 1721 1267 1721 1267 1747 1267 c 1,109,-1
 1747 1371 l 1,110,-1
 1416 1334 l 1,102,-1
1067 459 m 1,111,112
 1030 592 1030 592 1010.5 667 c 128,-1,113
 991 742 991 742 965.5 830 c 128,-1,114
 940 918 940 918 896 1005 c 128,-1,115
 852 1092 852 1092 759 1123 c 1,116,117
 661 1116 661 1116 624 1070 c 128,-1,118
 587 1024 587 1024 554.5 943.5 c 128,-1,119
 522 863 522 863 486 682 c 1,120,-1
 1067 459 l 1,111,112
1767 648 m 1,121,122
 1728 928 1728 928 1695 1021 c 128,-1,123
 1662 1114 1662 1114 1624 1100 c 1,124,125
 1562 1061 1562 1061 1540.5 1014 c 128,-1,126
 1519 967 1519 967 1510.5 921 c 128,-1,127
 1502 875 1502 875 1481 732 c 1,128,-1
 1466 568 l 1,129,-1
 1456 472 l 1,130,-1
 1767 635 l 1,131,-1
 1767 648 l 1,121,122
555 1514 m 1,132,-1
 544 1499 l 1,133,-1
 560 1475 l 1,134,-1
 681 1492 l 1,135,-1
 812 1504 l 1,136,-1
 991 1507 l 1,137,-1
 1289 1495 l 1,138,-1
 1484 1475 l 1,139,-1
 1688 1472 l 1,140,-1
 1754 1445 l 1,141,-1
 1749 1512 l 1,142,143
 1666 1544 1666 1544 1572 1558 c 128,-1,144
 1478 1572 1478 1572 1339 1581 c 128,-1,145
 1200 1590 1200 1590 1063 1587 c 128,-1,146
 926 1584 926 1584 812 1579 c 128,-1,147
 698 1574 698 1574 555 1514 c 1,132,-1
582 1519 m 1,148,149
 722 1556 722 1556 896 1561 c 128,-1,150
 1070 1566 1070 1566 1158.5 1566 c 128,-1,151
 1247 1566 1247 1566 1364 1561 c 128,-1,152
 1481 1556 1481 1556 1573.5 1541.5 c 128,-1,153
 1666 1527 1666 1527 1744 1497 c 1,154,-1
 1749 1460 l 1,155,-1
 1666 1480 l 1,156,-1
 1396 1499 l 1,157,-1
 1199 1509 l 1,158,-1
 959 1514 l 1,159,-1
 787 1512 l 1,160,-1
 645 1499 l 1,161,-1
 560 1485 l 1,162,-1
 555 1497 l 1,163,-1
 582 1519 l 1,148,149
954 1933 m 1,164,165
 1105 1916 1105 1916 1187 1912 c 128,-1,166
 1269 1908 1269 1908 1352.5 1903 c 128,-1,167
 1436 1898 1436 1898 1452.5 1907 c 128,-1,168
 1469 1916 1469 1916 1460 1933 c 128,-1,169
 1451 1950 1451 1950 1417 1965 c 128,-1,170
 1383 1980 1383 1980 1308.5 1987.5 c 128,-1,171
 1234 1995 1234 1995 1173.5 1995 c 128,-1,172
 1113 1995 1113 1995 1063.5 1987.5 c 128,-1,173
 1014 1980 1014 1980 954 1933 c 1,164,165
1443 1883 m 1,174,175
 1459 1814 1459 1814 1495.5 1795.5 c 128,-1,176
 1532 1777 1532 1777 1556 1772 c 128,-1,177
 1580 1767 1580 1767 1596.5 1785.5 c 128,-1,178
 1613 1804 1613 1804 1599 1829 c 128,-1,179
 1585 1854 1585 1854 1558.5 1872.5 c 128,-1,180
 1532 1891 1532 1891 1510.5 1893.5 c 128,-1,181
 1489 1896 1489 1896 1443 1883 c 1,174,175
1493 1888 m 1,182,183
 1528 1887 1528 1887 1554 1868.5 c 128,-1,184
 1580 1850 1580 1850 1592.5 1827 c 128,-1,185
 1605 1804 1605 1804 1596 1796.5 c 128,-1,186
 1587 1789 1587 1789 1574 1793 c 128,-1,187
 1561 1797 1561 1797 1541 1802 c 128,-1,188
 1521 1807 1521 1807 1500 1826.5 c 128,-1,189
 1479 1846 1479 1846 1472.5 1863 c 128,-1,190
 1466 1880 1466 1880 1493 1888 c 1,182,183
577 2364 m 1,191,-1
 524 1777 l 1,192,-1
 595 2364 l 1,193,-1
 577 2364 l 1,191,-1
340 338 m 1,194,195
 193 308 193 308 151.5 287 c 128,-1,196
 110 266 110 266 127.5 252.5 c 128,-1,197
 145 239 145 239 179.5 244 c 128,-1,198
 214 249 214 249 250.5 271 c 128,-1,199
 287 293 287 293 340 338 c 1,194,195
2077 370 m 1,200,201
 2057 420 2057 420 2016.5 417.5 c 128,-1,202
 1976 415 1976 415 1942 395 c 128,-1,203
 1908 375 1908 375 1846 366.5 c 128,-1,204
 1784 358 1784 358 1739 346.5 c 128,-1,205
 1694 335 1694 335 1817.5 344 c 128,-1,206
 1941 353 1941 353 2077 370 c 1,200,201
353 145 m 1,207,208
 381 5 381 5 297 -23 c 1,209,-1
 353 -51 l 1,210,211
 409 173 409 173 522 201 c 1,212,213
 802 201 802 201 830 89 c 0,214,215
 886 -136 886 -136 690 -220 c 1,216,-1
 522 -220 l 1,217,-1
 381 -79 l 1,218,219
 353 -248 353 -248 -12 -220 c 1,220,-1
 -40 61 l 1,221,-1
 -124 61 l 1,222,-1
 -124 201 l 1,223,224
 353 229 353 229 353 145 c 1,207,208
101 33 m 1,225,-1
 213 33 l 1,226,-1
 213 89 l 1,227,-1
 101 89 l 1,228,-1
 101 33 l 1,225,-1
101 -136 m 1,229,-1
 241 -108 l 1,230,-1
 213 -51 l 1,231,-1
 101 -51 l 1,232,-1
 101 -136 l 1,229,-1
578 -136 m 1,233,-1
 690 -108 l 1,234,-1
 662 89 l 1,235,-1
 522 61 l 1,236,237
 493 -79 493 -79 578 -136 c 1,233,-1
858 201 m 1,238,239
 1223 229 1223 229 1251 145 c 1,240,241
 1279 5 1279 5 1195 -23 c 1,242,243
 1279 5 1279 5 1279 -108 c 1,244,-1
 1391 201 l 1,245,-1
 1588 201 l 1,246,-1
 1700 -136 l 1,247,-1
 1700 -220 l 1,248,-1
 1419 -136 l 1,249,-1
 1363 -220 l 1,250,-1
 1223 -164 l 1,251,252
 1111 -248 1111 -248 858 -220 c 1,253,-1
 858 201 l 1,238,239
998 33 m 1,254,-1
 1111 33 l 1,255,-1
 1111 89 l 1,256,-1
 998 89 l 1,257,-1
 998 33 l 1,254,-1
998 -136 m 1,258,-1
 1139 -108 l 1,259,-1
 1111 -51 l 1,260,-1
 998 -51 l 1,261,-1
 998 -136 l 1,258,-1
1447 -51 m 1,262,-1
 1532 -51 l 1,263,-1
 1503 89 l 1,264,-1
 1447 33 l 1,265,-1
 1447 -51 l 1,262,-1
224 -287 m 1,266,-1
 617 -287 l 1,267,-1
 617 -427 l 1,268,-1
 421 -455 l 1,269,-1
 561 -455 l 1,270,-1
 561 -539 l 1,271,-1
 449 -539 l 1,272,-1
 393 -708 l 1,273,-1
 280 -680 l 1,274,-1
 224 -427 l 1,275,-1
 224 -287 l 1,266,-1
1094 -399 m 0,276,277
 1150 -624 1150 -624 954 -708 c 1,278,279
 673 -708 673 -708 645 -567 c 1,280,281
 589 -427 589 -427 785 -287 c 1,282,283
 1066 -287 1066 -287 1094 -399 c 0,276,277
841 -624 m 1,284,-1
 954 -596 l 1,285,-1
 926 -399 l 1,286,-1
 785 -427 l 1,287,288
 757 -567 757 -567 841 -624 c 1,284,-1
1126 -283 m 1,289,290
 1238 -227 1238 -227 1350 -395 c 1,291,292
 1350 -283 1350 -283 1407 -283 c 2,293,-1
 1855 -283 l 1,294,-1
 1855 -423 l 1,295,-1
 1743 -423 l 1,296,-1
 1743 -563 l 1,297,-1
 1996 -563 l 1,298,299
 1799 -367 1799 -367 1940 -283 c 1,300,-1
 2220 -283 l 1,301,-1
 2220 -395 l 1,302,-1
 2080 -451 l 1,303,304
 2248 -620 2248 -620 2080 -704 c 1,305,-1
 1631 -704 l 1,306,-1
 1603 -451 l 1,307,-1
 1491 -423 l 1,308,-1
 1463 -704 l 1,309,-1
 1378 -704 l 1,310,-1
 1238 -563 l 1,311,-1
 1238 -704 l 1,312,-1
 1126 -704 l 1,313,-1
 1126 -283 l 1,289,290
EndSplineSet
Validated: 37
EndChar

StartChar: grave
Encoding: 96 96 67
Width: 1630
GlyphClass: 1
Flags: W
LayerCount: 2
Fore
SplineSet
1703 1444 m 1,0,-1
 1195 0 l 1,1,-1
 428 0 l 1,2,-1
 57 1014 l 1,3,-1
 -242 1014 l 1,4,-1
 -242 1444 l 1,5,-1
 492 1444 l 1,6,-1
 824 335 l 1,7,-1
 1152 1444 l 1,8,-1
 1703 1444 l 1,0,-1
EndSplineSet
Validated: 1
EndChar

StartChar: a
Encoding: 97 97 68
Width: 1515
GlyphClass: 1
Flags: W
LayerCount: 2
Fore
SplineSet
-80 0 m 1,0,-1
 395 1444 l 1,1,-1
 1112 1444 l 1,2,-1
 1595 0 l 1,3,-1
 1049 0 l 1,4,-1
 958 260 l 1,5,-1
 529 260 l 1,6,-1
 438 0 l 1,7,-1
 -80 0 l 1,0,-1
755 1124 m 1,8,-1
 548 552 l 1,9,-1
 946 552 l 1,10,-1
 755 1124 l 1,8,-1
EndSplineSet
Validated: 1
EndChar

StartChar: b
Encoding: 98 98 69
Width: 1628
GlyphClass: 1
Flags: W
LayerCount: 2
Fore
SplineSet
60 0 m 1,0,-1
 60 1444 l 1,1,-1
 1045 1444 l 2,2,3
 1282 1442 1282 1442 1405.5 1362 c 128,-1,4
 1529 1282 1529 1282 1555 1094 c 1,5,6
 1564 950 1564 950 1494 868 c 128,-1,7
 1424 786 1424 786 1263 733 c 1,8,-1
 1263 729 l 1,9,10
 1342 719 1342 719 1409 686.5 c 128,-1,11
 1476 654 1476 654 1521.5 609.5 c 128,-1,12
 1567 565 1567 565 1592 509 c 128,-1,13
 1617 453 1617 453 1617 399 c 0,14,15
 1617 228 1617 228 1529.5 140 c 128,-1,16
 1442 52 1442 52 1304.5 25 c 128,-1,17
 1167 -2 1167 -2 971 0 c 2,18,-1
 60 0 l 1,0,-1
558 559 m 1,19,-1
 558 292 l 1,20,-1
 879 292 l 2,21,22
 962 289 962 289 1024 328 c 128,-1,23
 1086 367 1086 367 1086 424 c 1,24,25
 1092 487 1092 487 1035.5 523 c 128,-1,26
 979 559 979 559 879 559 c 2,27,-1
 558 559 l 1,19,-1
558 1094 m 1,28,-1
 558 875 l 1,29,-1
 908 875 l 2,30,31
 937 875 937 875 969 905.5 c 128,-1,32
 1001 936 1001 936 1003 987 c 1,33,34
 999 1046 999 1046 964.5 1070 c 128,-1,35
 930 1094 930 1094 907 1094 c 2,36,-1
 558 1094 l 1,28,-1
EndSplineSet
Validated: 33
EndChar

StartChar: c
Encoding: 99 99 70
Width: 1484
GlyphClass: 1
Flags: W
LayerCount: 2
Fore
SplineSet
1032 430 m 2,0,-1
 1484 430 l 1,1,-1
 1484 0 l 1,2,-1
 844 0 l 2,3,4
 609 0 609 0 419 83.5 c 128,-1,5
 229 167 229 167 119.5 334 c 128,-1,6
 10 501 10 501 10 743 c 0,7,8
 10 913 10 913 75.5 1046.5 c 128,-1,9
 141 1180 141 1180 257 1268.5 c 128,-1,10
 373 1357 373 1357 523.5 1400.5 c 128,-1,11
 674 1444 674 1444 844 1444 c 2,12,-1
 1240 1444 l 1,13,-1
 1484 1444 l 1,14,-1
 1484 1014 l 1,15,-1
 1032 1014 l 2,16,17
 880 1014 880 1014 807 1005 c 128,-1,18
 734 996 734 996 677 975 c 128,-1,19
 620 954 620 954 576 902 c 128,-1,20
 532 850 532 850 525 718 c 1,21,22
 530 590 530 590 576 535 c 128,-1,23
 622 480 622 480 688 462 c 128,-1,24
 754 444 754 444 824 437 c 128,-1,25
 894 430 894 430 1032 430 c 2,0,-1
EndSplineSet
Validated: 1
EndChar

StartChar: d
Encoding: 100 100 71
Width: 1662
GlyphClass: 1
Flags: W
LayerCount: 2
Fore
SplineSet
60 0 m 1,0,-1
 60 1444 l 1,1,-1
 912 1444 l 2,2,3
 1085 1444 1085 1444 1217 1398 c 128,-1,4
 1349 1352 1349 1352 1440 1274 c 128,-1,5
 1531 1196 1531 1196 1591.5 1063 c 128,-1,6
 1652 930 1652 930 1652 717 c 1,7,8
 1641 520 1641 520 1586 382 c 128,-1,9
 1531 244 1531 244 1440 164 c 128,-1,10
 1349 84 1349 84 1217.5 40 c 128,-1,11
 1086 -4 1086 -4 888 0 c 1,12,-1
 60 0 l 1,0,-1
550 974 m 1,13,-1
 550 456 l 1,14,-1
 825 456 l 2,15,16
 918 456 918 456 975 484.5 c 128,-1,17
 1032 513 1032 513 1068 557 c 128,-1,18
 1104 601 1104 601 1114 715 c 1,19,20
 1111 819 1111 819 1073.5 868.5 c 128,-1,21
 1036 918 1036 918 977 946 c 128,-1,22
 918 974 918 974 823 974 c 2,23,-1
 550 974 l 1,13,-1
EndSplineSet
Validated: 33
EndChar

StartChar: e
Encoding: 101 101 72
Width: 1360
GlyphClass: 1
Flags: W
LayerCount: 2
Fore
SplineSet
60 0 m 1,0,-1
 60 1444 l 1,1,-1
 1298 1444 l 1,2,-1
 1298 1014 l 1,3,-1
 530 1014 l 1,4,-1
 530 920 l 1,5,-1
 852 920 l 1,6,-1
 852 640 l 1,7,-1
 530 640 l 1,8,-1
 530 430 l 1,9,-1
 1420 430 l 1,10,-1
 1420 0 l 1,11,-1
 60 0 l 1,0,-1
EndSplineSet
Validated: 1
EndChar

StartChar: f
Encoding: 102 102 73
Width: 1328
GlyphClass: 1
Flags: W
LayerCount: 2
Fore
SplineSet
60 0 m 1,0,-1
 60 1444 l 1,1,-1
 1298 1444 l 1,2,-1
 1298 1014 l 1,3,-1
 530 1014 l 1,4,-1
 530 920 l 1,5,-1
 852 920 l 1,6,-1
 852 640 l 1,7,-1
 530 640 l 1,8,-1
 530 0 l 1,9,-1
 60 0 l 1,0,-1
EndSplineSet
Validated: 1
EndChar

StartChar: g
Encoding: 103 103 74
Width: 1484
GlyphClass: 1
Flags: W
LayerCount: 2
Fore
SplineSet
1032 430 m 1,0,-1
 1032 722 l 1,1,-1
 1484 722 l 1,2,-1
 1484 0 l 1,3,-1
 844 0 l 2,4,5
 609 0 609 0 419 83.5 c 128,-1,6
 229 167 229 167 119.5 334 c 128,-1,7
 10 501 10 501 10 743 c 0,8,9
 10 913 10 913 75.5 1046.5 c 128,-1,10
 141 1180 141 1180 257 1268.5 c 128,-1,11
 373 1357 373 1357 523.5 1400.5 c 128,-1,12
 674 1444 674 1444 844 1444 c 2,13,-1
 1240 1444 l 1,14,-1
 1484 1444 l 1,15,-1
 1484 1014 l 1,16,-1
 1032 1014 l 2,17,18
 880 1014 880 1014 807 1005 c 128,-1,19
 734 996 734 996 677 975 c 128,-1,20
 620 954 620 954 576 902 c 128,-1,21
 532 850 532 850 525 718 c 1,22,23
 530 590 530 590 576 535 c 128,-1,24
 622 480 622 480 688 462 c 128,-1,25
 754 444 754 444 824 437 c 128,-1,26
 894 430 894 430 1032 430 c 1,0,-1
EndSplineSet
Validated: 1
EndChar

StartChar: h
Encoding: 104 104 75
Width: 1398
GlyphClass: 1
Flags: W
LayerCount: 2
Fore
SplineSet
888 946 m 1,0,-1
 888 1444 l 1,1,-1
 1358 1444 l 1,2,-1
 1358 0 l 1,3,-1
 888 0 l 1,4,-1
 888 520 l 1,5,-1
 510 520 l 1,6,-1
 510 0 l 1,7,-1
 40 0 l 1,8,-1
 40 1444 l 1,9,-1
 510 1444 l 1,10,-1
 510 946 l 1,11,-1
 888 946 l 1,0,-1
EndSplineSet
Validated: 1
EndChar

StartChar: i
Encoding: 105 105 76
Width: 550
GlyphClass: 1
Flags: W
LayerCount: 2
Fore
SplineSet
40 1444 m 1,0,-1
 510 1444 l 1,1,-1
 510 0 l 1,2,-1
 40 0 l 1,3,-1
 40 1444 l 1,0,-1
EndSplineSet
Validated: 1
EndChar

StartChar: j
Encoding: 106 106 77
Width: 877
GlyphClass: 1
Flags: W
LayerCount: 2
Fore
SplineSet
796 1444 m 1,0,-1
 796 -8 l 1,1,2
 790 -174 790 -174 760 -242 c 128,-1,3
 730 -310 730 -310 625 -379 c 128,-1,4
 520 -448 520 -448 144 -480 c 1,5,-1
 -84 -84 l 1,6,7
 88 -84 88 -84 141 -76 c 128,-1,8
 194 -68 194 -68 231 -50 c 128,-1,9
 268 -32 268 -32 291 1 c 128,-1,10
 314 34 314 34 326 124 c 1,11,-1
 326 1444 l 1,12,-1
 796 1444 l 1,0,-1
EndSplineSet
Validated: 1
EndChar

StartChar: k
Encoding: 107 107 78
Width: 1404
GlyphClass: 1
Flags: W
LayerCount: 2
Fore
SplineSet
530 1444 m 1,0,-1
 530 974 l 1,1,-1
 860 1444 l 1,2,-1
 1330 1444 l 1,3,-1
 792 722 l 1,4,-1
 912 576 l 2,5,6
 1032 430 1032 430 1224 430 c 2,7,-1
 1464 430 l 1,8,-1
 1464 0 l 1,9,-1
 1114 0 l 2,10,11
 894 0 894 0 712 215 c 2,12,-1
 530 430 l 1,13,-1
 530 0 l 1,14,-1
 60 0 l 1,15,-1
 60 1444 l 1,16,-1
 530 1444 l 1,0,-1
EndSplineSet
Validated: 1
EndChar

StartChar: l
Encoding: 108 108 79
Width: 1312
GlyphClass: 1
Flags: W
LayerCount: 2
Fore
SplineSet
60 0 m 1,0,-1
 60 1444 l 1,1,-1
 530 1444 l 1,2,-1
 530 430 l 1,3,-1
 1312 430 l 1,4,-1
 1312 0 l 1,5,-1
 60 0 l 1,0,-1
EndSplineSet
Validated: 1
EndChar

StartChar: m
Encoding: 109 109 80
Width: 1650
GlyphClass: 1
Flags: W
LayerCount: 2
Fore
SplineSet
40 0 m 1,0,-1
 40 1444 l 1,1,-1
 510 1444 l 1,2,-1
 824 1012 l 1,3,-1
 1140 1444 l 1,4,-1
 1610 1444 l 1,5,-1
 1610 0 l 1,6,-1
 1140 0 l 1,7,-1
 1140 412 l 1,8,-1
 838 0 l 1,9,-1
 812 0 l 1,10,-1
 508 412 l 1,11,-1
 510 0 l 1,12,-1
 40 0 l 1,0,-1
EndSplineSet
Validated: 1
EndChar

StartChar: n
Encoding: 110 110 81
Width: 1430
GlyphClass: 1
Flags: W
LayerCount: 2
Fore
SplineSet
60 0 m 1,0,-1
 60 1444 l 1,1,2
 732 1392 732 1392 960 904 c 1,3,-1
 960 1444 l 1,4,-1
 1430 1444 l 1,5,-1
 1430 0 l 1,6,-1
 960 0 l 1,7,8
 884 332 884 332 530 540 c 1,9,-1
 530 0 l 1,10,-1
 60 0 l 1,0,-1
EndSplineSet
Validated: 1
EndChar

StartChar: o
Encoding: 111 111 82
Width: 1677
GlyphClass: 1
Flags: W
LayerCount: 2
Fore
SplineSet
1668 714 m 256,0,1
 1668 477 1668 477 1569 310 c 128,-1,2
 1470 143 1470 143 1282.5 59 c 128,-1,3
 1095 -25 1095 -25 835 -25 c 256,4,5
 575 -25 575 -25 388.5 59.5 c 128,-1,6
 202 144 202 144 106 309.5 c 128,-1,7
 10 475 10 475 10 714 c 0,8,9
 10 895 10 895 65 1032.5 c 128,-1,10
 120 1170 120 1170 226 1264 c 128,-1,11
 332 1358 332 1358 486 1406.5 c 128,-1,12
 640 1455 640 1455 835 1455 c 0,13,14
 1094 1455 1094 1455 1282 1369.5 c 128,-1,15
 1470 1284 1470 1284 1569 1117.5 c 128,-1,16
 1668 951 1668 951 1668 714 c 256,0,1
523 710 m 0,17,18
 523 571 523 571 585.5 468 c 128,-1,19
 648 365 648 365 832 365 c 0,20,21
 974 365 974 365 1044.5 419 c 128,-1,22
 1115 473 1115 473 1132.5 542.5 c 128,-1,23
 1150 612 1150 612 1156 710 c 1,24,25
 1150 849 1150 849 1089 952.5 c 128,-1,26
 1028 1056 1028 1056 832 1056 c 0,27,28
 523 1056 523 1056 523 710 c 0,17,18
EndSplineSet
Validated: 1
EndChar

StartChar: p
Encoding: 112 112 83
Width: 1501
GlyphClass: 1
Flags: W
LayerCount: 2
Fore
SplineSet
60 0 m 1,0,-1
 60 1444 l 1,1,-1
 1000 1444 l 1,2,3
 1174 1427 1174 1427 1288 1346.5 c 128,-1,4
 1402 1266 1402 1266 1450 1121 c 1,5,6
 1494 947 1494 947 1486 859.5 c 128,-1,7
 1478 772 1478 772 1454 695.5 c 128,-1,8
 1430 619 1430 619 1322 519 c 128,-1,9
 1214 419 1214 419 1034 389 c 1,10,-1
 582 389 l 1,11,-1
 580 0 l 1,12,-1
 60 0 l 1,0,-1
582 1052 m 1,13,-1
 582 808 l 1,14,-1
 920 808 l 1,15,16
 1064 856 1064 856 1070 932 c 1,17,18
 1060 1012 1060 1012 916 1052 c 1,19,-1
 582 1052 l 1,13,-1
EndSplineSet
Validated: 33
EndChar

StartChar: q
Encoding: 113 113 84
Width: 1639
GlyphClass: 1
Flags: W
LayerCount: 2
Fore
SplineSet
1639 430 m 1,0,-1
 1639 0 l 1,1,-1
 780 -25 l 1,2,3
 595 -20 595 -20 453.5 28 c 128,-1,4
 312 76 312 76 212 171.5 c 128,-1,5
 112 267 112 267 61 405 c 128,-1,6
 10 543 10 543 10 721 c 0,7,8
 10 903 10 903 63 1033.5 c 128,-1,9
 116 1164 116 1164 218 1260 c 128,-1,10
 320 1356 320 1356 464 1404 c 128,-1,11
 608 1452 608 1452 832 1464 c 1,12,13
 1060 1452 1060 1452 1234 1388 c 128,-1,14
 1408 1324 1408 1324 1518 1176 c 128,-1,15
 1628 1028 1628 1028 1616 736 c 1,16,17
 1592 604 1592 604 1521.5 506 c 128,-1,18
 1451 408 1451 408 1597 430 c 1,19,-1
 1639 430 l 1,0,-1
527 702 m 0,20,21
 527 563 527 563 589.5 460 c 128,-1,22
 652 357 652 357 836 357 c 1,23,-1
 836 428 l 1,24,25
 1112 400 1112 400 1133 501.5 c 128,-1,26
 1154 603 1154 603 1160 702 c 1,27,28
 1154 839 1154 839 1093 942.5 c 128,-1,29
 1032 1046 1032 1046 836 1046 c 0,30,31
 527 1046 527 1046 527 702 c 0,20,21
EndSplineSet
Validated: 33
EndChar

StartChar: r
Encoding: 114 114 85
Width: 1550
GlyphClass: 1
Flags: W
LayerCount: 2
Fore
SplineSet
60 0 m 1,0,-1
 60 1444 l 1,1,-1
 1000 1444 l 1,2,3
 1174 1429 1174 1429 1286 1345.5 c 128,-1,4
 1398 1262 1398 1262 1450 1122 c 1,5,6
 1490 913 1490 913 1454 799 c 128,-1,7
 1418 685 1418 685 1328 609 c 128,-1,8
 1238 533 1238 533 1216 522.5 c 128,-1,9
 1194 512 1194 512 1184 490 c 1,10,11
 1190 452 1190 452 1312 430 c 1,12,-1
 1610 430 l 1,13,-1
 1610 0 l 1,14,-1
 1264 0 l 1,15,16
 952 -6 952 -6 770 192 c 1,17,-1
 582 390 l 1,18,-1
 582 0 l 1,19,-1
 60 0 l 1,0,-1
582 1052 m 1,20,-1
 582 808 l 1,21,-1
 920 808 l 1,22,23
 1064 856 1064 856 1070 932 c 1,24,25
 1060 1012 1060 1012 916 1052 c 1,26,-1
 582 1052 l 1,20,-1
EndSplineSet
Validated: 33
EndChar

StartChar: s
Encoding: 115 115 86
Width: 1135
GlyphClass: 1
Flags: W
LayerCount: 2
Fore
SplineSet
1196 1014 m 1,0,-1
 844 1014 l 1,1,2
 587 1022 587 1022 768 872 c 1,3,4
 1092 588 1092 588 1086 320 c 128,-1,5
 1080 52 1080 52 768 0 c 1,6,-1
 0 0 l 1,7,-1
 0 430 l 1,8,-1
 304 430 l 1,9,10
 587 422 587 422 376 588 c 1,11,12
 28 908 28 908 80 1176 c 128,-1,13
 132 1444 132 1444 408 1444 c 2,14,-1
 1196 1444 l 1,15,-1
 1196 1014 l 1,0,-1
EndSplineSet
Validated: 33
EndChar

StartChar: t
Encoding: 116 116 87
Width: 1366
GlyphClass: 1
Flags: W
LayerCount: 2
Fore
SplineSet
1376 1444 m 1,0,-1
 1376 1014 l 1,1,-1
 918 1014 l 1,2,-1
 918 0 l 1,3,-1
 448 0 l 1,4,-1
 448 1014 l 1,5,-1
 -10 1014 l 1,6,-1
 -10 1444 l 1,7,-1
 1376 1444 l 1,0,-1
EndSplineSet
Validated: 1
EndChar

StartChar: u
Encoding: 117 117 88
Width: 1454
GlyphClass: 1
Flags: W
LayerCount: 2
Fore
SplineSet
480 1444 m 1,0,-1
 480 692 l 1,1,2
 476 540 476 540 536 486 c 128,-1,3
 596 432 596 432 728 436 c 1,4,5
 836 432 836 432 906 490 c 128,-1,6
 976 548 976 548 972 692 c 1,7,-1
 974 1444 l 1,8,-1
 1444 1444 l 1,9,-1
 1444 597 l 2,10,11
 1441 417 1441 417 1384.5 309.5 c 128,-1,12
 1328 202 1328 202 1241.5 130 c 128,-1,13
 1155 58 1155 58 1024.5 18 c 128,-1,14
 894 -22 894 -22 734 -26 c 1,15,16
 601 -23 601 -23 463.5 10.5 c 128,-1,17
 326 44 326 44 223.5 116 c 128,-1,18
 121 188 121 188 65.5 301 c 128,-1,19
 10 414 10 414 10 596 c 2,20,-1
 10 1444 l 1,21,-1
 480 1444 l 1,0,-1
EndSplineSet
Validated: 33
EndChar

StartChar: v
Encoding: 118 118 89
Width: 1630
GlyphClass: 1
Flags: W
LayerCount: 2
Fore
SplineSet
471 1444 m 1,0,-1
 799 335 l 1,1,-1
 1131 1444 l 1,2,-1
 1710 1444 l 1,3,-1
 1195 0 l 1,4,-1
 428 0 l 1,5,-1
 -80 1444 l 1,6,-1
 471 1444 l 1,0,-1
EndSplineSet
Validated: 1
EndChar

StartChar: w
Encoding: 119 119 90
Width: 1800
GlyphClass: 1
Flags: W
LayerCount: 2
Fore
SplineSet
639 0 m 1,0,-1
 224 0 l 1,1,-1
 -133 1444 l 1,2,-1
 332 1444 l 1,3,-1
 466 820 l 1,4,-1
 879 1332 l 1,5,-1
 1271 820 l 1,6,-1
 1469 1444 l 1,7,-1
 1920 1444 l 1,8,-1
 1499 0 l 1,9,-1
 1127 0 l 1,10,-1
 875 356 l 1,11,-1
 639 0 l 1,0,-1
EndSplineSet
Validated: 1
EndChar

StartChar: x
Encoding: 120 120 91
Width: 1472
GlyphClass: 1
Flags: W
LayerCount: 2
Fore
SplineSet
1602 1444 m 1,0,-1
 1072 722 l 1,1,-1
 1602 0 l 1,2,-1
 1032 0 l 1,3,-1
 734 446 l 1,4,-1
 440 0 l 1,5,-1
 -130 0 l 1,6,-1
 400 722 l 1,7,-1
 -130 1444 l 1,8,-1
 440 1444 l 1,9,-1
 734 998 l 1,10,-1
 1032 1444 l 1,11,-1
 1602 1444 l 1,0,-1
EndSplineSet
Validated: 1
EndChar

StartChar: y
Encoding: 121 121 92
Width: 1472
GlyphClass: 1
Flags: W
LayerCount: 2
Fore
SplineSet
1602 1444 m 1,0,-1
 972 530 l 1,1,-1
 972 0 l 1,2,-1
 500 0 l 1,3,-1
 500 530 l 1,4,-1
 -130 1444 l 1,5,-1
 440 1444 l 1,6,-1
 734 998 l 1,7,-1
 1032 1444 l 1,8,-1
 1602 1444 l 1,0,-1
EndSplineSet
Validated: 1
EndChar

StartChar: z
Encoding: 122 122 93
Width: 1400
GlyphClass: 1
Flags: W
LayerCount: 2
Fore
SplineSet
40 1444 m 5,0,-1
 1360 1444 l 5,1,-1
 1360 1014 l 5,2,3
 876 668 876 668 804 432 c 5,4,-1
 1360 430 l 5,5,-1
 1360 0 l 5,6,-1
 40 0 l 5,7,8
 16 508 16 508 739 1014 c 5,9,-1
 40 1014 l 5,10,-1
 40 1444 l 5,0,-1
EndSplineSet
Validated: 33
EndChar

StartChar: braceleft
Encoding: 123 123 94
Width: 2588
GlyphClass: 1
Flags: W
LayerCount: 2
Fore
SplineSet
2538 475 m 1,0,-1
 2178 475 l 1,1,-1
 2178 928 l 1,2,-1
 2538 928 l 1,3,-1
 2538 786 l 1,4,-1
 2313 786 l 1,5,-1
 2313 752 l 1,6,-1
 2535 752 l 1,7,-1
 2535 664 l 1,8,-1
 2313 664 l 1,9,-1
 2313 616 l 1,10,-1
 2538 616 l 1,11,-1
 2538 475 l 1,0,-1
2538 983 m 1,12,-1
 1488 983 l 1,13,-1
 1488 1097 l 1,14,-1
 2538 1097 l 1,15,-1
 2538 983 l 1,12,-1
2538 173 m 1,16,-1
 2483 173 l 2,17,18
 2448 173 2448 173 2396 254 c 1,19,-1
 2396 173 l 1,20,-1
 2318 173 l 1,21,-1
 2318 447 l 1,22,-1
 2396 447 l 1,23,-1
 2396 359 l 1,24,-1
 2442 447 l 1,25,-1
 2538 447 l 1,26,-1
 2462 305 l 1,27,28
 2476 244 2476 244 2538 258 c 1,29,-1
 2538 173 l 1,16,-1
2135 475 m 1,30,-1
 2033 475 l 2,31,32
 1983 475 1983 475 1934 532 c 2,33,-1
 1866 611 l 1,34,-1
 1866 475 l 1,35,-1
 1718 475 l 1,36,-1
 1718 928 l 1,37,-1
 1951 928 l 1,38,39
 2046 916 2046 916 2087 876 c 128,-1,40
 2128 836 2128 836 2140 764 c 1,41,42
 2141 692 2141 692 2114.5 672 c 128,-1,43
 2088 652 2088 652 2052 635 c 1,44,45
 2069 616 2069 616 2109 616 c 0,46,47
 2121 616 2121 616 2135 616 c 1,48,-1
 2135 475 l 1,30,-1
2293 172 m 1,49,-1
 2256 172 l 1,50,51
 2106 195 2106 195 2097 342 c 1,52,53
 2108 446 2108 446 2209 447 c 2,54,-1
 2293 447 l 1,55,-1
 2293 361 l 1,56,-1
 2217 362 l 1,57,58
 2182 358 2182 358 2176 328 c 1,59,60
 2176 285 2176 285 2250 258 c 1,61,-1
 2293 258 l 1,62,-1
 2293 172 l 1,49,-1
1477 983 m 1,63,-1
 1340 983 l 1,64,-1
 1340 1097 l 1,65,-1
 1477 1097 l 1,66,-1
 1477 1061 l 1,67,-1
 1392 1061 l 1,68,-1
 1392 1055 l 1,69,-1
 1441 1055 l 1,70,-1
 1441 1026 l 1,71,-1
 1392 1026 l 1,72,-1
 1392 1019 l 1,73,-1
 1477 1019 l 1,74,-1
 1477 983 l 1,63,-1
2099 173 m 1,75,-1
 2019 173 l 1,76,-1
 2013 207 l 1,77,-1
 1954 207 l 1,78,-1
 1946 173 l 1,79,-1
 1867 173 l 1,80,-1
 1922 447 l 1,81,-1
 2046 447 l 1,82,-1
 2099 173 l 1,75,-1
1329 983 m 1,83,-1
 1275 983 l 1,84,-1
 1275 1026 l 1,85,-1
 1232 1026 l 1,86,-1
 1232 983 l 1,87,-1
 1184 983 l 1,88,-1
 1184 1097 l 1,89,-1
 1232 1097 l 1,90,-1
 1232 1055 l 1,91,-1
 1275 1055 l 1,92,-1
 1275 1097 l 1,93,-1
 1329 1097 l 1,94,-1
 1329 983 l 1,83,-1
1681 475 m 1,95,-1
 1489 475 l 1,96,-1
 1489 928 l 1,97,-1
 1681 928 l 1,98,-1
 1681 475 l 1,95,-1
1169 1061 m 1,99,-1
 1120 1061 l 1,100,-1
 1120 983 l 1,101,-1
 1072 983 l 1,102,-1
 1072 1061 l 1,103,-1
 1029 1061 l 1,104,-1
 1029 1097 l 1,105,-1
 1169 1097 l 1,106,-1
 1169 1061 l 1,99,-1
1862 254 m 0,107,108
 1862 218 1862 218 1839.5 196 c 128,-1,109
 1817 174 1817 174 1789 174 c 2,110,-1
 1643 174 l 1,111,-1
 1643 447 l 1,112,-1
 1777 447 l 2,113,114
 1805 447 1805 447 1827 425 c 128,-1,115
 1849 403 1849 403 1849 368 c 0,116,117
 1849 340 1849 340 1837 318 c 1,118,119
 1862 295 1862 295 1862 254 c 0,107,108
1464 756 m 1,120,121
 1468 668 1468 668 1418.5 639.5 c 128,-1,122
 1369 611 1369 611 1314 611 c 2,123,-1
 1183 611 l 1,124,-1
 1183 475 l 1,125,-1
 1034 475 l 1,126,-1
 1034 928 l 1,127,-1
 1291 928 l 1,128,129
 1365 920 1365 920 1402.5 884 c 128,-1,130
 1440 848 1440 848 1464 756 c 1,120,121
1319 174 m 1,131,-1
 1135 174 l 1,132,-1
 1135 447 l 1,133,-1
 1319 447 l 1,134,-1
 1319 362 l 1,135,-1
 1203 362 l 1,136,-1
 1203 345 l 1,137,-1
 1316 345 l 1,138,-1
 1316 289 l 1,139,-1
 1203 289 l 1,140,-1
 1203 259 l 1,141,-1
 1319 259 l 1,142,-1
 1319 174 l 1,131,-1
2538 17 m 1,143,-1
 58 17 l 1,144,-1
 58 131 l 1,145,-1
 2538 131 l 1,146,-1
 2538 17 l 1,143,-1
1001 475 m 1,147,-1
 842 475 l 1,148,-1
 842 616 l 1,149,-1
 750 475 l 1,150,-1
 658 616 l 1,151,-1
 658 475 l 1,152,-1
 499 475 l 1,153,-1
 499 928 l 1,154,-1
 658 928 l 1,155,-1
 750 786 l 1,156,-1
 842 928 l 1,157,-1
 1001 928 l 1,158,-1
 1001 475 l 1,147,-1
1101 174 m 1,159,-1
 1046 174 l 2,160,161
 1012 174 1012 174 960 255 c 1,162,-1
 960 174 l 1,163,-1
 882 174 l 1,164,-1
 882 447 l 1,165,-1
 960 447 l 1,166,-1
 960 359 l 1,167,-1
 1006 447 l 1,168,-1
 1101 447 l 1,169,-1
 1026 305 l 1,170,171
 1045 247 1045 247 1101 259 c 1,172,-1
 1101 174 l 1,159,-1
1018 984 m 1,173,-1
 254 983 l 1,174,-1
 254 928 l 1,175,-1
 450 928 l 1,176,-1
 450 730 l 1,177,-1
 254 730 l 1,178,-1
 254 673 l 1,179,-1
 450 673 l 1,180,-1
 450 475 l 1,181,-1
 58 475 l 1,182,-1
 58 1097 l 1,183,-1
 1018 1098 l 1,184,-1
 1018 984 l 1,173,-1
856 174 m 1,185,-1
 779 174 l 1,186,-1
 779 447 l 1,187,-1
 856 447 l 1,188,-1
 856 174 l 1,185,-1
753 174 m 1,189,-1
 699 174 l 2,190,191
 665 174 665 174 611 255 c 1,192,-1
 611 174 l 1,193,-1
 534 174 l 1,194,-1
 534 447 l 1,195,-1
 681 447 l 2,196,197
 710 447 710 447 731.5 419.5 c 128,-1,198
 753 392 753 392 753 355 c 0,199,200
 753 294 753 294 710 271 c 1,201,202
 723 251 723 251 753 259 c 1,203,-1
 753 174 l 1,189,-1
508 362 m 1,204,-1
 437 362 l 1,205,-1
 437 173 l 1,206,-1
 360 173 l 1,207,-1
 360 362 l 1,208,-1
 289 362 l 1,209,-1
 289 447 l 1,210,-1
 508 447 l 1,211,-1
 508 362 l 1,204,-1
1972 778 m 256,212,213
 1972 804 1972 804 1946 804 c 2,214,-1
 1866 804 l 1,215,-1
 1866 752 l 1,216,-1
 1946 752 l 2,217,218
 1972 752 1972 752 1972 778 c 256,212,213
2000 300 m 1,219,-1
 1984 369 l 1,220,-1
 1967 300 l 1,221,-1
 2000 300 l 1,219,-1
1760 364 m 256,222,223
 1760 384 1760 384 1751 384 c 2,224,-1
 1719 384 l 1,225,-1
 1719 344 l 1,226,-1
 1751 344 l 2,227,228
 1760 344 1760 344 1760 364 c 256,222,223
1765 259 m 0,229,230
 1765 279 1765 279 1754 279 c 2,231,-1
 1721 279 l 1,232,-1
 1721 235 l 1,233,-1
 1754 235 l 2,234,235
 1765 235 1765 235 1765 259 c 0,229,230
1291 778 m 256,236,237
 1291 804 1291 804 1265 804 c 2,238,-1
 1179 804 l 1,239,-1
 1179 752 l 1,240,-1
 1265 752 l 2,241,242
 1291 752 1291 752 1291 778 c 256,236,237
662 356 m 0,243,244
 662 376 662 376 651 376 c 2,245,-1
 613 376 l 1,246,-1
 613 333 l 1,247,-1
 651 333 l 2,248,249
 662 333 662 333 662 356 c 0,243,244
1538 363 m 1,250,-1
 1462 363 l 2,251,252
 1456 363 1456 363 1458 352 c 2,253,-1
 1477 320 l 1,254,-1
 1522 252 l 2,255,256
 1538 224 1538 224 1536 207 c 128,-1,257
 1534 190 1534 190 1505 181.5 c 128,-1,258
 1476 173 1476 173 1454 173 c 2,259,-1
 1347 173 l 1,260,-1
 1347 259 l 1,261,262
 1354 259 1354 259 1373 258 c 0,263,264
 1391 258 1391 258 1401 258 c 0,265,266
 1423 258 1423 258 1421 270 c 1,267,-1
 1365 350 l 2,268,269
 1340 381 1340 381 1338 404 c 1,270,271
 1346 440 1346 440 1367 445 c 128,-1,272
 1388 450 1388 450 1431 449 c 2,273,-1
 1538 449 l 1,274,-1
 1538 363 l 1,250,-1
264 361 m 1,275,-1
 188 361 l 2,276,277
 182 361 182 361 184 350 c 2,278,-1
 203 318 l 1,279,-1
 248 250 l 2,280,281
 264 222 264 222 262 205 c 128,-1,282
 260 188 260 188 231 179.5 c 128,-1,283
 202 171 202 171 180 171 c 2,284,-1
 73 171 l 1,285,-1
 73 257 l 1,286,287
 80 257 80 257 99 256 c 0,288,289
 117 256 117 256 127 256 c 0,290,291
 149 256 149 256 147 268 c 1,292,-1
 91 348 l 2,293,294
 66 379 66 379 64 402 c 1,295,296
 72 438 72 438 93 443 c 128,-1,297
 114 448 114 448 157 447 c 2,298,-1
 264 447 l 1,299,-1
 264 361 l 1,275,-1
EndSplineSet
Validated: 33
EndChar

StartChar: bar
Encoding: 124 124 95
Width: 56
GlyphClass: 1
Flags: W
LayerCount: 2
Fore
SplineSet
-296 1014 m 1,0,-1
 -296 1444 l 1,1,-1
 354 1444 l 1,2,-1
 354 1014 l 1,3,-1
 -296 1014 l 1,0,-1
EndSplineSet
Validated: 1
EndChar

StartChar: braceright
Encoding: 125 125 96
Width: 2515
GlyphClass: 1
Flags: W
LayerCount: 2
Fore
SplineSet
2484 769 m 1,0,-1
 2346 769 l 1,1,2
 2343 828 2343 828 2316 874 c 0,3,4
 2285 928 2285 928 2232 931 c 1,5,-1
 2232 769 l 1,6,-1
 1952 769 l 2,7,8
 1885 769 1885 769 1795 881 c 1,9,-1
 1795 769 l 1,10,-1
 1660 769 l 1,11,-1
 1660 1137 l 1,12,-1
 1920 1137 l 2,13,14
 1969 1137 1969 1137 2008 1100 c 128,-1,15
 2047 1063 2047 1063 2047 1014 c 0,16,17
 2047 933 2047 933 1969 900 c 1,18,19
 1978 883 1978 883 1994 883 c 2,20,-1
 2094 883 l 1,21,-1
 2094 1137 l 1,22,-1
 2095 1137 l 2,23,24
 2266 1137 2266 1137 2346 1022 c 1,25,-1
 2346 1137 l 1,26,-1
 2484 1137 l 1,27,-1
 2484 769 l 1,0,-1
2479 128 m 1,28,-1
 2232 128 l 1,29,-1
 2232 698 l 1,30,-1
 2479 698 l 1,31,-1
 2479 128 l 1,28,-1
1628 954 m 2,32,33
 1628 879 1628 879 1568.5 824 c 128,-1,34
 1509 769 1509 769 1434 769 c 0,35,36
 1361 769 1361 769 1301 824 c 128,-1,37
 1241 879 1241 879 1241 954 c 2,38,-1
 1241 1137 l 1,39,-1
 1365 1137 l 1,40,-1
 1365 954 l 1,41,42
 1370 926 1370 926 1388 914 c 128,-1,43
 1406 902 1406 902 1434 906 c 1,44,45
 1462 904 1462 904 1480 915 c 128,-1,46
 1498 926 1498 926 1505 954 c 1,47,-1
 1505 1137 l 1,48,-1
 1628 1137 l 1,49,-1
 1628 954 l 2,32,33
2202 412 m 0,50,51
 2202 296 2202 296 2106 212 c 128,-1,52
 2010 128 2010 128 1889 128 c 2,53,-1
 1576 128 l 1,54,-1
 1576 698 l 1,55,-1
 1889 698 l 2,56,57
 2010 698 2010 698 2106 613.5 c 128,-1,58
 2202 529 2202 529 2202 412 c 0,50,51
1226 1022 m 1,59,-1
 1097 1022 l 1,60,-1
 1097 769 l 1,61,-1
 958 769 l 1,62,-1
 958 1022 l 1,63,-1
 829 1022 l 1,64,-1
 829 1137 l 1,65,-1
 1226 1137 l 1,66,-1
 1226 1022 l 1,59,-1
1552 128 m 1,67,-1
 960 128 l 1,68,-1
 960 698 l 1,69,-1
 1549 698 l 1,70,-1
 1548 544 l 1,71,-1
 1180 544 l 1,72,-1
 1182 508 l 1,73,-1
 1382 508 l 1,74,-1
 1382 376 l 1,75,-1
 1182 376 l 1,76,-1
 1182 305 l 1,77,-1
 1552 305 l 1,78,-1
 1552 128 l 1,67,-1
816 769 m 1,79,-1
 329 769 l 2,80,81
 285 769 285 769 245 806 c 0,82,83
 226 823 226 823 180 881 c 1,84,-1
 180 769 l 1,85,-1
 50 769 l 1,86,-1
 50 1137 l 1,87,-1
 299 1137 l 2,88,89
 347 1137 347 1137 384 1100 c 128,-1,90
 421 1063 421 1063 421 1014 c 0,91,92
 421 933 421 933 346 900 c 1,93,94
 354 883 354 883 369 883 c 2,95,-1
 465 883 l 1,96,-1
 465 1137 l 1,97,-1
 816 1137 l 1,98,-1
 816 1022 l 1,99,-1
 595 1022 l 1,100,-1
 595 1003 l 1,101,-1
 705 1004 l 1,102,-1
 705 930 l 1,103,-1
 595 930 l 1,104,-1
 595 883 l 1,105,-1
 816 883 l 1,106,-1
 816 769 l 1,79,-1
934 28 m 2,107,108
 934 -84 934 -84 837 -125 c 0,109,110
 774 -155 774 -155 636 -152 c 1,111,-1
 524 28 l 1,112,113
 634 27 634 27 650 27 c 0,114,115
 755 27 755 27 755 100 c 2,116,-1
 754 698 l 1,117,-1
 934 698 l 1,118,-1
 934 28 l 2,107,108
687 620 m 1,119,-1
 50 620 l 1,120,-1
 50 698 l 1,121,-1
 687 698 l 1,122,-1
 687 620 l 1,119,-1
687 230 m 1,123,-1
 489 230 l 1,124,-1
 489 406 l 1,125,-1
 687 406 l 1,126,-1
 687 354 l 1,127,-1
 562 354 l 1,128,-1
 562 342 l 1,129,-1
 637 342 l 1,130,-1
 637 296 l 1,131,-1
 562 296 l 1,132,-1
 562 287 l 1,133,-1
 687 287 l 1,134,-1
 687 230 l 1,123,-1
494 544 m 1,135,-1
 355 544 l 1,136,-1
 355 534 l 1,137,-1
 439 534 l 1,138,-1
 439 487 l 1,139,-1
 355 487 l 1,140,-1
 355 419 l 1,141,-1
 274 419 l 1,142,-1
 274 601 l 1,143,-1
 494 601 l 1,144,-1
 494 544 l 1,135,-1
480 230 m 1,145,-1
 403 230 l 1,146,-1
 403 295 l 1,147,-1
 340 295 l 1,148,-1
 340 230 l 1,149,-1
 265 230 l 1,150,-1
 265 406 l 1,151,-1
 340 406 l 1,152,-1
 340 341 l 1,153,-1
 403 341 l 1,154,-1
 403 406 l 1,155,-1
 480 406 l 1,156,-1
 480 230 l 1,145,-1
268 511 m 0,157,158
 268 473 268 473 234 446 c 128,-1,159
 200 419 200 419 157 419 c 0,160,161
 116 419 116 419 83 446.5 c 128,-1,162
 50 474 50 474 50 511 c 256,163,164
 50 548 50 548 83 575.5 c 128,-1,165
 116 603 116 603 157 603 c 0,166,167
 200 603 200 603 234 575.5 c 128,-1,168
 268 548 268 548 268 511 c 0,157,158
687 128 m 1,169,-1
 50 128 l 1,170,-1
 50 208 l 1,171,-1
 687 208 l 1,172,-1
 687 128 l 1,169,-1
256 352 m 1,173,-1
 187 352 l 1,174,-1
 187 229 l 1,175,-1
 112 229 l 1,176,-1
 112 352 l 1,177,-1
 45 352 l 1,178,-1
 45 406 l 1,179,-1
 256 406 l 1,180,-1
 256 352 l 1,173,-1
1910 1009 m 256,181,182
 1910 1037 1910 1037 1881 1037 c 2,183,-1
 1787 1037 l 1,184,-1
 1787 981 l 1,185,-1
 1881 981 l 2,186,187
 1910 981 1910 981 1910 1009 c 256,181,182
1982 412 m 0,188,189
 1982 455 1982 455 1950.5 487.5 c 128,-1,190
 1919 520 1919 520 1879 520 c 2,191,-1
 1782 520 l 1,192,-1
 1782 305 l 1,193,-1
 1879 305 l 2,194,195
 1919 305 1919 305 1950.5 336.5 c 128,-1,196
 1982 368 1982 368 1982 412 c 0,188,189
297 1009 m 256,197,198
 297 1037 297 1037 269 1037 c 2,199,-1
 178 1037 l 1,200,-1
 178 981 l 1,201,-1
 269 981 l 2,202,203
 297 981 297 981 297 1009 c 256,197,198
205 510 m 256,204,205
 205 548 205 548 158 548 c 0,206,207
 113 548 113 548 113 510 c 256,208,209
 113 472 113 472 158 472 c 0,210,211
 205 472 205 472 205 510 c 256,204,205
EndSplineSet
Validated: 33
EndChar

StartChar: asciitilde
Encoding: 126 126 97
Width: 1472
GlyphClass: 1
Flags: W
LayerCount: 2
Fore
SplineSet
1708 1444 m 1,0,-1
 1708 1014 l 1,1,-1
 1308 1014 l 1,2,-1
 972 530 l 1,3,-1
 972 0 l 1,4,-1
 500 0 l 1,5,-1
 500 530 l 1,6,-1
 -130 1444 l 1,7,-1
 440 1444 l 1,8,-1
 734 998 l 1,9,-1
 1032 1444 l 1,10,-1
 1708 1444 l 1,0,-1
EndSplineSet
Validated: 1
EndChar

StartChar: paragraph
Encoding: 182 182 98
Width: 2048
GlyphClass: 1
Flags: W
LayerCount: 2
Fore
SplineSet
499 2515 m 1,0,-1
 878 2554 l 1,1,-1
 898 2490 l 1,2,-1
 731 2371 l 1,3,-1
 625 2361 l 1,4,-1
 555 1623 l 1,5,6
 635 1831 635 1831 746.5 1908 c 128,-1,7
 858 1985 858 1985 1007 2005 c 128,-1,8
 1156 2025 1156 2025 1310 2007.5 c 128,-1,9
 1464 1990 1464 1990 1544.5 1938 c 128,-1,10
 1625 1886 1625 1886 1680.5 1772 c 128,-1,11
 1736 1658 1736 1658 1752 1539 c 1,12,-1
 1772 1499 l 1,13,-1
 1777 1316 l 1,14,-1
 1858 667 l 1,15,-1
 1575 519 l 1,16,-1
 1580 494 l 1,17,-1
 1610 469 l 1,18,19
 1926 548 1926 548 1944 459 c 1,20,-1
 2066 440 l 1,21,22
 2135 360 2135 360 2065 326 c 1,23,-1
 620 286 l 1,24,-1
 135 227 l 1,25,26
 60 281 60 281 317 400 c 1,27,-1
 630 425 l 1,28,-1
 585 474 l 1,29,-1
 565 524 l 1,30,-1
 605 583 l 1,31,-1
 610 608 l 1,32,-1
 469 672 l 1,33,-1
 529 1316 l 1,34,-1
 529 1480 l 1,35,36
 489 1490 489 1490 469 1549 c 1,37,-1
 555 2356 l 1,38,-1
 489 2386 l 1,39,-1
 464 2470 l 1,40,-1
 499 2515 l 1,0,-1
1302 1482 m 1,41,-1
 1302 1309 l 1,42,-1
 1312 1289 l 1,43,-1
 1307 462 l 1,44,-1
 1388 457 l 1,45,-1
 1393 1348 l 1,46,-1
 1408 1348 l 1,47,-1
 1408 1472 l 1,48,-1
 1302 1482 l 1,41,-1
918 1492 m 1,49,-1
 883 1393 l 1,50,-1
 979 1373 l 1,51,-1
 999 1487 l 1,52,-1
 918 1492 l 1,49,-1
764 1400 m 1,53,-1
 779 1490 l 1,54,-1
 749 1492 l 1,55,-1
 729 1400 l 1,56,-1
 764 1400 l 1,53,-1
610 1423 m 1,57,-1
 620 1423 l 1,58,-1
 628 1460 l 1,59,-1
 557 1465 l 1,60,-1
 557 1428 l 1,61,-1
 610 1423 l 1,57,-1
1557 1462 m 1,62,-1
 1537 1356 l 1,63,-1
 1577 1358 l 1,64,-1
 1613 1455 l 1,65,-1
 1557 1462 l 1,62,-1
1618 1361 m 1,66,-1
 1691 1358 l 1,67,-1
 1724 1403 l 1,68,-1
 1731 1447 l 1,69,-1
 1651 1462 l 1,70,-1
 1618 1361 l 1,66,-1
544 1395 m 1,71,-1
 879 1361 l 1,72,-1
 1092 1319 l 1,73,-1
 1077 591 l 1,74,-1
 1056 782 l 2,75,76
 1034 992 1034 992 1009 1071 c 128,-1,77
 984 1150 984 1150 928.5 1209.5 c 128,-1,78
 873 1269 873 1269 817.5 1297.5 c 128,-1,79
 762 1326 762 1326 701 1330 c 128,-1,80
 640 1334 640 1334 557 1338 c 1,81,-1
 544 1395 l 1,71,-1
1432 1315 m 1,82,-1
 1724 1356 l 1,83,-1
 1734 1284 l 1,84,85
 1668 1264 1668 1264 1633 1249 c 128,-1,86
 1598 1234 1598 1234 1572.5 1194.5 c 128,-1,87
 1547 1155 1547 1155 1514 1073.5 c 128,-1,88
 1481 992 1481 992 1451 749 c 2,89,-1
 1428 536 l 1,90,-1
 1432 1315 l 1,82,-1
524 1415 m 1,91,-1
 537 1319 l 1,92,93
 600 1321 600 1321 669.5 1317.5 c 128,-1,94
 739 1314 739 1314 798.5 1283 c 128,-1,95
 858 1252 858 1252 912 1195 c 128,-1,96
 966 1138 966 1138 989 1067 c 128,-1,97
 1012 996 1012 996 1067 539 c 1,98,-1
 1090 526 l 1,99,-1
 1108 1336 l 1,100,-1
 878 1376 l 1,101,-1
 524 1415 l 1,91,-1
1416 1334 m 1,102,-1
 1413 464 l 1,103,-1
 1436 467 l 1,104,105
 1489 965 1489 965 1530.5 1066.5 c 128,-1,106
 1572 1168 1572 1168 1600 1200 c 128,-1,107
 1628 1232 1628 1232 1674.5 1249.5 c 128,-1,108
 1721 1267 1721 1267 1747 1267 c 1,109,-1
 1747 1371 l 1,110,-1
 1416 1334 l 1,102,-1
1067 459 m 1,111,112
 1030 592 1030 592 1010.5 667 c 128,-1,113
 991 742 991 742 965.5 830 c 128,-1,114
 940 918 940 918 896 1005 c 128,-1,115
 852 1092 852 1092 759 1123 c 1,116,117
 661 1116 661 1116 624 1070 c 128,-1,118
 587 1024 587 1024 554.5 943.5 c 128,-1,119
 522 863 522 863 486 682 c 1,120,-1
 1067 459 l 1,111,112
1767 648 m 1,121,122
 1728 928 1728 928 1695 1021 c 128,-1,123
 1662 1114 1662 1114 1624 1100 c 1,124,125
 1562 1061 1562 1061 1540.5 1014 c 128,-1,126
 1519 967 1519 967 1510.5 921 c 128,-1,127
 1502 875 1502 875 1481 732 c 1,128,-1
 1466 568 l 1,129,-1
 1456 472 l 1,130,-1
 1767 635 l 1,131,-1
 1767 648 l 1,121,122
555 1514 m 1,132,-1
 544 1499 l 1,133,-1
 560 1475 l 1,134,-1
 681 1492 l 1,135,-1
 812 1504 l 1,136,-1
 991 1507 l 1,137,-1
 1289 1495 l 1,138,-1
 1484 1475 l 1,139,-1
 1688 1472 l 1,140,-1
 1754 1445 l 1,141,-1
 1749 1512 l 1,142,143
 1666 1544 1666 1544 1572 1558 c 128,-1,144
 1478 1572 1478 1572 1339 1581 c 128,-1,145
 1200 1590 1200 1590 1063 1587 c 128,-1,146
 926 1584 926 1584 812 1579 c 128,-1,147
 698 1574 698 1574 555 1514 c 1,132,-1
582 1519 m 1,148,149
 722 1556 722 1556 896 1561 c 128,-1,150
 1070 1566 1070 1566 1158.5 1566 c 128,-1,151
 1247 1566 1247 1566 1364 1561 c 128,-1,152
 1481 1556 1481 1556 1573.5 1541.5 c 128,-1,153
 1666 1527 1666 1527 1744 1497 c 1,154,-1
 1749 1460 l 1,155,-1
 1666 1480 l 1,156,-1
 1396 1499 l 1,157,-1
 1199 1509 l 1,158,-1
 959 1514 l 1,159,-1
 787 1512 l 1,160,-1
 645 1499 l 1,161,-1
 560 1485 l 1,162,-1
 555 1497 l 1,163,-1
 582 1519 l 1,148,149
954 1933 m 1,164,165
 1105 1916 1105 1916 1187 1912 c 128,-1,166
 1269 1908 1269 1908 1352.5 1903 c 128,-1,167
 1436 1898 1436 1898 1452.5 1907 c 128,-1,168
 1469 1916 1469 1916 1460 1933 c 128,-1,169
 1451 1950 1451 1950 1417 1965 c 128,-1,170
 1383 1980 1383 1980 1308.5 1987.5 c 128,-1,171
 1234 1995 1234 1995 1173.5 1995 c 128,-1,172
 1113 1995 1113 1995 1063.5 1987.5 c 128,-1,173
 1014 1980 1014 1980 954 1933 c 1,164,165
1443 1883 m 1,174,175
 1459 1814 1459 1814 1495.5 1795.5 c 128,-1,176
 1532 1777 1532 1777 1556 1772 c 128,-1,177
 1580 1767 1580 1767 1596.5 1785.5 c 128,-1,178
 1613 1804 1613 1804 1599 1829 c 128,-1,179
 1585 1854 1585 1854 1558.5 1872.5 c 128,-1,180
 1532 1891 1532 1891 1510.5 1893.5 c 128,-1,181
 1489 1896 1489 1896 1443 1883 c 1,174,175
1493 1888 m 1,182,183
 1528 1887 1528 1887 1554 1868.5 c 128,-1,184
 1580 1850 1580 1850 1592.5 1827 c 128,-1,185
 1605 1804 1605 1804 1596 1796.5 c 128,-1,186
 1587 1789 1587 1789 1574 1793 c 128,-1,187
 1561 1797 1561 1797 1541 1802 c 128,-1,188
 1521 1807 1521 1807 1500 1826.5 c 128,-1,189
 1479 1846 1479 1846 1472.5 1863 c 128,-1,190
 1466 1880 1466 1880 1493 1888 c 1,182,183
577 2364 m 1,191,-1
 524 1777 l 1,192,-1
 595 2364 l 1,193,-1
 577 2364 l 1,191,-1
340 338 m 1,194,195
 193 308 193 308 151.5 287 c 128,-1,196
 110 266 110 266 127.5 252.5 c 128,-1,197
 145 239 145 239 179.5 244 c 128,-1,198
 214 249 214 249 250.5 271 c 128,-1,199
 287 293 287 293 340 338 c 1,194,195
2077 370 m 1,200,201
 2057 420 2057 420 2016.5 417.5 c 128,-1,202
 1976 415 1976 415 1942 395 c 128,-1,203
 1908 375 1908 375 1846 366.5 c 128,-1,204
 1784 358 1784 358 1739 346.5 c 128,-1,205
 1694 335 1694 335 1817.5 344 c 128,-1,206
 1941 353 1941 353 2077 370 c 1,200,201
353 145 m 1,207,208
 381 5 381 5 297 -23 c 1,209,-1
 353 -51 l 1,210,211
 409 173 409 173 522 201 c 1,212,213
 802 201 802 201 830 89 c 0,214,215
 886 -136 886 -136 690 -220 c 1,216,-1
 522 -220 l 1,217,-1
 381 -79 l 1,218,219
 353 -248 353 -248 -12 -220 c 1,220,-1
 -40 61 l 1,221,-1
 -124 61 l 1,222,-1
 -124 201 l 1,223,224
 353 229 353 229 353 145 c 1,207,208
101 33 m 1,225,-1
 213 33 l 1,226,-1
 213 89 l 1,227,-1
 101 89 l 1,228,-1
 101 33 l 1,225,-1
101 -136 m 1,229,-1
 241 -108 l 1,230,-1
 213 -51 l 1,231,-1
 101 -51 l 1,232,-1
 101 -136 l 1,229,-1
578 -136 m 1,233,-1
 690 -108 l 1,234,-1
 662 89 l 1,235,-1
 522 61 l 1,236,237
 493 -79 493 -79 578 -136 c 1,233,-1
858 201 m 1,238,239
 1223 229 1223 229 1251 145 c 1,240,241
 1279 5 1279 5 1195 -23 c 1,242,243
 1279 5 1279 5 1279 -108 c 1,244,-1
 1391 201 l 1,245,-1
 1588 201 l 1,246,-1
 1700 -136 l 1,247,-1
 1700 -220 l 1,248,-1
 1419 -136 l 1,249,-1
 1363 -220 l 1,250,-1
 1223 -164 l 1,251,252
 1111 -248 1111 -248 858 -220 c 1,253,-1
 858 201 l 1,238,239
998 33 m 1,254,-1
 1111 33 l 1,255,-1
 1111 89 l 1,256,-1
 998 89 l 1,257,-1
 998 33 l 1,254,-1
998 -136 m 1,258,-1
 1139 -108 l 1,259,-1
 1111 -51 l 1,260,-1
 998 -51 l 1,261,-1
 998 -136 l 1,258,-1
1447 -51 m 1,262,-1
 1532 -51 l 1,263,-1
 1503 89 l 1,264,-1
 1447 33 l 1,265,-1
 1447 -51 l 1,262,-1
224 -287 m 1,266,-1
 617 -287 l 1,267,-1
 617 -427 l 1,268,-1
 421 -455 l 1,269,-1
 561 -455 l 1,270,-1
 561 -539 l 1,271,-1
 449 -539 l 1,272,-1
 393 -708 l 1,273,-1
 280 -680 l 1,274,-1
 224 -427 l 1,275,-1
 224 -287 l 1,266,-1
1094 -399 m 0,276,277
 1150 -624 1150 -624 954 -708 c 1,278,279
 673 -708 673 -708 645 -567 c 1,280,281
 589 -427 589 -427 785 -287 c 1,282,283
 1066 -287 1066 -287 1094 -399 c 0,276,277
841 -624 m 1,284,-1
 954 -596 l 1,285,-1
 926 -399 l 1,286,-1
 785 -427 l 1,287,288
 757 -567 757 -567 841 -624 c 1,284,-1
1126 -283 m 1,289,290
 1238 -227 1238 -227 1350 -395 c 1,291,292
 1350 -283 1350 -283 1407 -283 c 2,293,-1
 1855 -283 l 1,294,-1
 1855 -423 l 1,295,-1
 1743 -423 l 1,296,-1
 1743 -563 l 1,297,-1
 1996 -563 l 1,298,299
 1799 -367 1799 -367 1940 -283 c 1,300,-1
 2220 -283 l 1,301,-1
 2220 -395 l 1,302,-1
 2080 -451 l 1,303,304
 2248 -620 2248 -620 2080 -704 c 1,305,-1
 1631 -704 l 1,306,-1
 1603 -451 l 1,307,-1
 1491 -423 l 1,308,-1
 1463 -704 l 1,309,-1
 1378 -704 l 1,310,-1
 1238 -563 l 1,311,-1
 1238 -704 l 1,312,-1
 1126 -704 l 1,313,-1
 1126 -283 l 1,289,290
EndSplineSet
Validated: 37
EndChar

StartChar: questiondown
Encoding: 191 191 99
Width: 1176
GlyphClass: 1
Flags: W
LayerCount: 2
Fore
SplineSet
465 933 m 1,0,-1
 875 933 l 1,1,2
 867 790 867 790 828 714.5 c 128,-1,3
 789 639 789 639 738.5 601.5 c 128,-1,4
 688 564 688 564 644.5 530 c 128,-1,5
 601 496 601 496 601 444 c 256,6,7
 601 392 601 392 653 376 c 128,-1,8
 705 360 705 360 803 360 c 0,9,10
 872 360 872 360 953.5 380.5 c 128,-1,11
 1035 401 1035 401 1092 428 c 1,12,-1
 1092 75 l 1,13,14
 974 38 974 38 870.5 19 c 128,-1,15
 767 0 767 0 646 0 c 0,16,17
 524 0 524 0 396 28.5 c 128,-1,18
 268 57 268 57 176 135 c 128,-1,19
 84 213 84 213 84 348 c 0,20,21
 84 452 84 452 132.5 520.5 c 128,-1,22
 181 589 181 589 279.5 669 c 128,-1,23
 378 749 378 749 421.5 801 c 128,-1,24
 465 853 465 853 465 933 c 1,0,-1
893 1083 m 1,25,-1
 447 1083 l 1,26,-1
 447 1468 l 1,27,-1
 893 1468 l 1,28,-1
 893 1083 l 1,25,-1
EndSplineSet
Validated: 1
EndChar

StartChar: Agrave
Encoding: 192 192 100
Width: 1515
GlyphClass: 1
Flags: W
LayerCount: 2
Fore
SplineSet
-80 0 m 1,0,-1
 395 1444 l 1,1,-1
 1112 1444 l 1,2,-1
 1595 0 l 1,3,-1
 1049 0 l 1,4,-1
 958 260 l 1,5,-1
 529 260 l 1,6,-1
 438 0 l 1,7,-1
 -80 0 l 1,0,-1
755 1124 m 1,8,-1
 548 552 l 1,9,-1
 946 552 l 1,10,-1
 755 1124 l 1,8,-1
203 1796 m 1,11,-1
 665 1796 l 1,12,-1
 841 1478 l 1,13,-1
 203 1796 l 1,11,-1
EndSplineSet
Validated: 1
EndChar

StartChar: Aacute
Encoding: 193 193 101
Width: 1515
GlyphClass: 1
Flags: W
LayerCount: 2
Fore
SplineSet
673 1478 m 1,0,-1
 849 1796 l 1,1,-1
 1311 1796 l 1,2,-1
 673 1478 l 1,0,-1
-80 0 m 1,3,-1
 395 1444 l 1,4,-1
 1112 1444 l 1,5,-1
 1595 0 l 1,6,-1
 1049 0 l 1,7,-1
 958 260 l 1,8,-1
 529 260 l 1,9,-1
 438 0 l 1,10,-1
 -80 0 l 1,3,-1
755 1124 m 1,11,-1
 548 552 l 1,12,-1
 946 552 l 1,13,-1
 755 1124 l 1,11,-1
EndSplineSet
Validated: 1
EndChar

StartChar: Acircumflex
Encoding: 194 194 102
Width: 1515
GlyphClass: 1
Flags: W
LayerCount: 2
Fore
SplineSet
1030 1472 m 1,0,-1
 753 1646 l 1,1,-1
 473 1475 l 1,2,-1
 473 1534 l 1,3,-1
 751 1817 l 1,4,-1
 1030 1534 l 1,5,-1
 1030 1472 l 1,0,-1
-80 0 m 1,6,-1
 395 1444 l 1,7,-1
 1112 1444 l 1,8,-1
 1595 0 l 1,9,-1
 1049 0 l 1,10,-1
 958 260 l 1,11,-1
 529 260 l 1,12,-1
 438 0 l 1,13,-1
 -80 0 l 1,6,-1
755 1124 m 1,14,-1
 548 552 l 1,15,-1
 946 552 l 1,16,-1
 755 1124 l 1,14,-1
EndSplineSet
Validated: 1
EndChar

StartChar: Atilde
Encoding: 195 195 103
Width: 1515
GlyphClass: 1
Flags: W
LayerCount: 2
Fore
SplineSet
-80 0 m 1,0,-1
 395 1444 l 1,1,-1
 1112 1444 l 1,2,-1
 1595 0 l 1,3,-1
 1049 0 l 1,4,-1
 958 260 l 1,5,-1
 529 260 l 1,6,-1
 438 0 l 1,7,-1
 -80 0 l 1,0,-1
755 1124 m 1,8,-1
 548 552 l 1,9,-1
 946 552 l 1,10,-1
 755 1124 l 1,8,-1
1128 1636 m 1,11,12
 888 1404 888 1404 720 1586 c 128,-1,13
 552 1768 552 1768 467 1601 c 1,14,-1
 407 1648 l 1,15,16
 554 1918 554 1918 729 1727 c 128,-1,17
 904 1536 904 1536 1052 1676 c 1,18,-1
 1128 1636 l 1,11,12
EndSplineSet
Validated: 33
EndChar

StartChar: Adieresis
Encoding: 196 196 104
Width: 1515
GlyphClass: 1
Flags: W
LayerCount: 2
Fore
SplineSet
-80 0 m 1,0,-1
 395 1444 l 1,1,-1
 1112 1444 l 1,2,-1
 1595 0 l 1,3,-1
 1049 0 l 1,4,-1
 958 260 l 1,5,-1
 529 260 l 1,6,-1
 438 0 l 1,7,-1
 -80 0 l 1,0,-1
755 1124 m 1,8,-1
 548 552 l 1,9,-1
 946 552 l 1,10,-1
 755 1124 l 1,8,-1
563 1764 m 0,11,12
 614 1764 614 1764 646.5 1730.5 c 128,-1,13
 679 1697 679 1697 679 1647 c 1,14,15
 674 1586 674 1586 640.5 1555 c 128,-1,16
 607 1524 607 1524 557 1524 c 0,17,18
 509 1524 509 1524 476 1557 c 128,-1,19
 443 1590 443 1590 443 1640 c 0,20,21
 443 1696 443 1696 476 1730 c 128,-1,22
 509 1764 509 1764 563 1764 c 0,11,12
941 1764 m 0,23,24
 992 1764 992 1764 1024.5 1730.5 c 128,-1,25
 1057 1697 1057 1697 1057 1647 c 1,26,27
 1052 1586 1052 1586 1018.5 1555 c 128,-1,28
 985 1524 985 1524 935 1524 c 0,29,30
 887 1524 887 1524 854 1557 c 128,-1,31
 821 1590 821 1590 821 1640 c 0,32,33
 821 1696 821 1696 854 1730 c 128,-1,34
 887 1764 887 1764 941 1764 c 0,23,24
EndSplineSet
Validated: 1
EndChar

StartChar: Aring
Encoding: 197 197 105
Width: 1515
GlyphClass: 1
Flags: W
LayerCount: 2
Fore
SplineSet
-80 0 m 1,0,-1
 395 1444 l 1,1,-1
 1112 1444 l 1,2,-1
 1595 0 l 1,3,-1
 1049 0 l 1,4,-1
 958 260 l 1,5,-1
 529 260 l 1,6,-1
 438 0 l 1,7,-1
 -80 0 l 1,0,-1
755 1124 m 1,8,-1
 548 552 l 1,9,-1
 946 552 l 1,10,-1
 755 1124 l 1,8,-1
754 1844 m 0,11,12
 837 1844 837 1844 891.5 1789 c 128,-1,13
 946 1734 946 1734 946 1653 c 0,14,15
 946 1571 946 1571 886.5 1512.5 c 128,-1,16
 827 1454 827 1454 745 1454 c 0,17,18
 666 1454 666 1454 611.5 1507 c 128,-1,19
 557 1560 557 1560 557 1642 c 0,20,21
 557 1733 557 1733 612 1788.5 c 128,-1,22
 667 1844 667 1844 754 1844 c 0,11,12
753 1768 m 0,23,24
 699 1768 699 1768 666 1734 c 128,-1,25
 633 1700 633 1700 633 1644 c 0,26,27
 633 1594 633 1594 666 1561 c 128,-1,28
 699 1528 699 1528 747 1528 c 0,29,30
 797 1528 797 1528 830.5 1559 c 128,-1,31
 864 1590 864 1590 869 1651 c 1,32,33
 869 1701 869 1701 836.5 1734.5 c 128,-1,34
 804 1768 804 1768 753 1768 c 0,23,24
EndSplineSet
Validated: 1
EndChar

StartChar: AE
Encoding: 198 198 106
Width: 2062
GlyphClass: 1
Flags: W
LayerCount: 2
Fore
SplineSet
756 1122 m 1,0,-1
 548 552 l 1,1,-1
 756 552 l 1,2,-1
 756 1122 l 1,0,-1
756 0 m 1,3,-1
 756 260 l 1,4,-1
 529 260 l 1,5,-1
 438 0 l 1,6,-1
 -80 0 l 1,7,-1
 395 1444 l 1,8,-1
 2000 1444 l 1,9,-1
 2000 1014 l 1,10,-1
 1232 1014 l 1,11,-1
 1232 920 l 1,12,-1
 1568 920 l 1,13,-1
 1568 640 l 1,14,-1
 1232 640 l 1,15,-1
 1232 430 l 1,16,-1
 2122 430 l 1,17,-1
 2122 0 l 1,18,-1
 756 0 l 1,3,-1
EndSplineSet
Validated: 1
EndChar

StartChar: Ccedilla
Encoding: 199 199 107
Width: 1440
GlyphClass: 1
Flags: W
LayerCount: 2
Fore
SplineSet
692 4 m 1,0,1
 592 12 592 12 477 65.5 c 128,-1,2
 362 119 362 119 249.5 207.5 c 128,-1,3
 137 296 137 296 73.5 429.5 c 128,-1,4
 10 563 10 563 10 739 c 0,5,6
 10 913 10 913 73.5 1046.5 c 128,-1,7
 137 1180 137 1180 249.5 1268.5 c 128,-1,8
 362 1357 362 1357 477 1410.5 c 128,-1,9
 592 1464 592 1464 816 1476 c 1,10,11
 1048 1464 1048 1464 1170 1420 c 128,-1,12
 1292 1376 1292 1376 1416 1260 c 1,13,-1
 1132 944 l 1,14,15
 1060 1004 1060 1004 1004 1030 c 128,-1,16
 948 1056 948 1056 820 1064 c 1,17,18
 696 1048 696 1048 635 1013 c 128,-1,19
 574 978 574 978 530 918 c 128,-1,20
 486 858 486 858 478 738 c 1,21,22
 486 618 486 618 530 558 c 128,-1,23
 574 498 574 498 635 463 c 128,-1,24
 696 428 696 428 820 412 c 1,25,26
 948 420 948 420 1004 446 c 128,-1,27
 1060 472 1060 472 1132 532 c 1,28,-1
 1416 216 l 1,29,30
 1292 100 1292 100 1170 56 c 128,-1,31
 1048 12 1048 12 898 1 c 1,32,-1
 898 -112 l 1,33,34
 1005 -132 1005 -132 1057 -180 c 128,-1,35
 1109 -228 1109 -228 1109 -296 c 0,36,37
 1109 -388 1109 -388 1007.5 -456.5 c 128,-1,38
 906 -525 906 -525 746 -525 c 0,39,40
 683 -525 683 -525 587 -517 c 1,41,-1
 602 -430 l 1,42,43
 644 -442 644 -442 702 -444 c 0,44,45
 802 -444 802 -444 837.5 -413 c 128,-1,46
 873 -382 873 -382 873 -328 c 0,47,48
 873 -290 873 -290 834 -262 c 128,-1,49
 795 -234 795 -234 737 -234 c 0,50,51
 720 -234 720 -234 693 -237 c 1,52,-1
 692 4 l 1,0,1
EndSplineSet
Validated: 1
EndChar

StartChar: Egrave
Encoding: 200 200 108
Width: 1360
GlyphClass: 1
Flags: W
LayerCount: 2
Fore
SplineSet
203 1796 m 1,0,-1
 665 1796 l 1,1,-1
 841 1478 l 1,2,-1
 203 1796 l 1,0,-1
60 0 m 1,3,-1
 60 1444 l 1,4,-1
 1298 1444 l 1,5,-1
 1298 1014 l 1,6,-1
 530 1014 l 1,7,-1
 530 920 l 1,8,-1
 852 920 l 1,9,-1
 852 640 l 1,10,-1
 530 640 l 1,11,-1
 530 430 l 1,12,-1
 1420 430 l 1,13,-1
 1420 0 l 1,14,-1
 60 0 l 1,3,-1
EndSplineSet
Validated: 1
EndChar

StartChar: Eacute
Encoding: 201 201 109
Width: 1360
GlyphClass: 1
Flags: W
LayerCount: 2
Fore
SplineSet
673 1478 m 1,0,-1
 849 1796 l 1,1,-1
 1311 1796 l 1,2,-1
 673 1478 l 1,0,-1
60 0 m 1,3,-1
 60 1444 l 1,4,-1
 1298 1444 l 1,5,-1
 1298 1014 l 1,6,-1
 530 1014 l 1,7,-1
 530 920 l 1,8,-1
 852 920 l 1,9,-1
 852 640 l 1,10,-1
 530 640 l 1,11,-1
 530 430 l 1,12,-1
 1420 430 l 1,13,-1
 1420 0 l 1,14,-1
 60 0 l 1,3,-1
EndSplineSet
Validated: 1
EndChar

StartChar: Ecircumflex
Encoding: 202 202 110
Width: 1360
GlyphClass: 1
Flags: W
LayerCount: 2
Fore
SplineSet
1030 1472 m 1,0,-1
 753 1646 l 1,1,-1
 473 1475 l 1,2,-1
 473 1534 l 1,3,-1
 751 1817 l 1,4,-1
 1030 1534 l 1,5,-1
 1030 1472 l 1,0,-1
60 0 m 1,6,-1
 60 1444 l 1,7,-1
 1298 1444 l 1,8,-1
 1298 1014 l 1,9,-1
 530 1014 l 1,10,-1
 530 920 l 1,11,-1
 852 920 l 1,12,-1
 852 640 l 1,13,-1
 530 640 l 1,14,-1
 530 430 l 1,15,-1
 1420 430 l 1,16,-1
 1420 0 l 1,17,-1
 60 0 l 1,6,-1
EndSplineSet
Validated: 1
EndChar

StartChar: Edieresis
Encoding: 203 203 111
Width: 1360
GlyphClass: 1
Flags: W
LayerCount: 2
Fore
SplineSet
563 1764 m 0,0,1
 614 1764 614 1764 646.5 1730.5 c 128,-1,2
 679 1697 679 1697 679 1647 c 1,3,4
 674 1586 674 1586 640.5 1555 c 128,-1,5
 607 1524 607 1524 557 1524 c 0,6,7
 509 1524 509 1524 476 1557 c 128,-1,8
 443 1590 443 1590 443 1640 c 0,9,10
 443 1696 443 1696 476 1730 c 128,-1,11
 509 1764 509 1764 563 1764 c 0,0,1
941 1764 m 0,12,13
 992 1764 992 1764 1024.5 1730.5 c 128,-1,14
 1057 1697 1057 1697 1057 1647 c 1,15,16
 1052 1586 1052 1586 1018.5 1555 c 128,-1,17
 985 1524 985 1524 935 1524 c 0,18,19
 887 1524 887 1524 854 1557 c 128,-1,20
 821 1590 821 1590 821 1640 c 0,21,22
 821 1696 821 1696 854 1730 c 128,-1,23
 887 1764 887 1764 941 1764 c 0,12,13
60 0 m 1,24,-1
 60 1444 l 1,25,-1
 1298 1444 l 1,26,-1
 1298 1014 l 1,27,-1
 530 1014 l 1,28,-1
 530 920 l 1,29,-1
 852 920 l 1,30,-1
 852 640 l 1,31,-1
 530 640 l 1,32,-1
 530 430 l 1,33,-1
 1420 430 l 1,34,-1
 1420 0 l 1,35,-1
 60 0 l 1,24,-1
EndSplineSet
Validated: 1
EndChar

StartChar: Igrave
Encoding: 204 204 112
Width: 550
GlyphClass: 1
Flags: W
LayerCount: 2
Fore
SplineSet
40 1444 m 1,0,-1
 510 1444 l 1,1,-1
 510 0 l 1,2,-1
 40 0 l 1,3,-1
 40 1444 l 1,0,-1
26 1796 m 1,4,-1
 397 1796 l 1,5,-1
 510 1480 l 1,6,-1
 26 1796 l 1,4,-1
EndSplineSet
Validated: 1
EndChar

StartChar: Iacute
Encoding: 205 205 113
Width: 550
GlyphClass: 1
Flags: W
LayerCount: 2
Fore
SplineSet
508 0 m 1,0,-1
 41 0 l 1,1,-1
 41 1444 l 1,2,-1
 508 1444 l 1,3,-1
 508 0 l 1,0,-1
41 1480 m 1,4,-1
 154 1796 l 1,5,-1
 522 1796 l 1,6,-1
 41 1480 l 1,4,-1
EndSplineSet
Validated: 1
EndChar

StartChar: Icircumflex
Encoding: 206 206 114
Width: 550
GlyphClass: 1
Flags: W
LayerCount: 2
Fore
SplineSet
40 1444 m 1,0,-1
 510 1444 l 1,1,-1
 510 0 l 1,2,-1
 40 0 l 1,3,-1
 40 1444 l 1,0,-1
502 1478 m 1,4,-1
 274 1652 l 1,5,-1
 45 1481 l 1,6,-1
 45 1540 l 1,7,-1
 273 1823 l 1,8,-1
 502 1540 l 1,9,-1
 502 1478 l 1,4,-1
EndSplineSet
Validated: 1
EndChar

StartChar: Idieresis
Encoding: 207 207 115
Width: 550
GlyphClass: 1
Flags: W
LayerCount: 2
Fore
SplineSet
40 1444 m 1,0,-1
 510 1444 l 1,1,-1
 510 0 l 1,2,-1
 40 0 l 1,3,-1
 40 1444 l 1,0,-1
123 1764 m 0,4,5
 174 1764 174 1764 206.5 1730.5 c 128,-1,6
 239 1697 239 1697 239 1647 c 1,7,8
 234 1586 234 1586 200.5 1555 c 128,-1,9
 167 1524 167 1524 117 1524 c 0,10,11
 69 1524 69 1524 36 1557 c 128,-1,12
 3 1590 3 1590 3 1640 c 0,13,14
 3 1696 3 1696 36 1730 c 128,-1,15
 69 1764 69 1764 123 1764 c 0,4,5
435 1764 m 0,16,17
 486 1764 486 1764 518.5 1730.5 c 128,-1,18
 551 1697 551 1697 551 1647 c 1,19,20
 546 1586 546 1586 512.5 1555 c 128,-1,21
 479 1524 479 1524 429 1524 c 0,22,23
 381 1524 381 1524 348 1557 c 128,-1,24
 315 1590 315 1590 315 1640 c 0,25,26
 315 1696 315 1696 348 1730 c 128,-1,27
 381 1764 381 1764 435 1764 c 0,16,17
EndSplineSet
Validated: 1
EndChar

StartChar: Eth
Encoding: 208 208 116
Width: 1804
GlyphClass: 1
Flags: W
LayerCount: 2
Fore
SplineSet
212 0 m 1,0,-1
 212 542 l 1,1,-1
 -42 542 l 1,2,-1
 -42 794 l 1,3,-1
 212 794 l 1,4,-1
 212 1444 l 1,5,-1
 1064 1444 l 2,6,7
 1237 1444 1237 1444 1369 1398 c 128,-1,8
 1501 1352 1501 1352 1592 1274 c 128,-1,9
 1683 1196 1683 1196 1743.5 1063 c 128,-1,10
 1804 930 1804 930 1804 717 c 1,11,12
 1793 520 1793 520 1738 382 c 128,-1,13
 1683 244 1683 244 1592 164 c 128,-1,14
 1501 84 1501 84 1369.5 40 c 128,-1,15
 1238 -4 1238 -4 1040 0 c 1,16,-1
 212 0 l 1,0,-1
694 1086 m 1,17,-1
 694 796 l 1,18,-1
 974 796 l 1,19,-1
 974 542 l 1,20,-1
 694 542 l 1,21,-1
 694 360 l 1,22,-1
 969 360 l 2,23,24
 1062 360 1062 360 1119 399.5 c 128,-1,25
 1176 439 1176 439 1212 500.5 c 128,-1,26
 1248 562 1248 562 1258 722 c 1,27,28
 1255 868 1255 868 1217.5 937.5 c 128,-1,29
 1180 1007 1180 1007 1121 1046.5 c 128,-1,30
 1062 1086 1062 1086 967 1086 c 2,31,-1
 694 1086 l 1,17,-1
EndSplineSet
Validated: 33
EndChar

StartChar: Ntilde
Encoding: 209 209 117
Width: 1430
GlyphClass: 1
Flags: W
LayerCount: 2
Fore
SplineSet
1112 1636 m 1,0,1
 872 1404 872 1404 704 1586 c 128,-1,2
 536 1768 536 1768 451 1601 c 1,3,-1
 391 1648 l 1,4,5
 538 1918 538 1918 713 1727 c 128,-1,6
 888 1536 888 1536 1036 1676 c 1,7,-1
 1112 1636 l 1,0,1
60 0 m 1,8,-1
 60 1444 l 1,9,10
 732 1392 732 1392 960 904 c 1,11,-1
 960 1444 l 1,12,-1
 1430 1444 l 1,13,-1
 1430 0 l 1,14,-1
 960 0 l 1,15,16
 884 332 884 332 530 540 c 1,17,-1
 530 0 l 1,18,-1
 60 0 l 1,8,-1
EndSplineSet
Validated: 33
EndChar

StartChar: Ograve
Encoding: 210 210 118
Width: 1677
GlyphClass: 1
Flags: W
LayerCount: 2
Fore
SplineSet
1668 714 m 256,0,1
 1668 477 1668 477 1569 310 c 128,-1,2
 1470 143 1470 143 1282.5 59 c 128,-1,3
 1095 -25 1095 -25 835 -25 c 256,4,5
 575 -25 575 -25 388.5 59.5 c 128,-1,6
 202 144 202 144 106 309.5 c 128,-1,7
 10 475 10 475 10 714 c 0,8,9
 10 895 10 895 65 1032.5 c 128,-1,10
 120 1170 120 1170 226 1264 c 128,-1,11
 332 1358 332 1358 486 1406.5 c 128,-1,12
 640 1455 640 1455 835 1455 c 0,13,14
 1094 1455 1094 1455 1282 1369.5 c 128,-1,15
 1470 1284 1470 1284 1569 1117.5 c 128,-1,16
 1668 951 1668 951 1668 714 c 256,0,1
203 1796 m 1,17,-1
 665 1796 l 1,18,-1
 841 1478 l 1,19,-1
 203 1796 l 1,17,-1
523 710 m 0,20,21
 523 571 523 571 585.5 468 c 128,-1,22
 648 365 648 365 832 365 c 0,23,24
 974 365 974 365 1044.5 419 c 128,-1,25
 1115 473 1115 473 1132.5 542.5 c 128,-1,26
 1150 612 1150 612 1156 710 c 1,27,28
 1150 849 1150 849 1089 952.5 c 128,-1,29
 1028 1056 1028 1056 832 1056 c 0,30,31
 523 1056 523 1056 523 710 c 0,20,21
EndSplineSet
Validated: 1
EndChar

StartChar: Oacute
Encoding: 211 211 119
Width: 1677
GlyphClass: 1
Flags: W
LayerCount: 2
Fore
SplineSet
1668 714 m 256,0,1
 1668 477 1668 477 1569 310 c 128,-1,2
 1470 143 1470 143 1282.5 59 c 128,-1,3
 1095 -25 1095 -25 835 -25 c 256,4,5
 575 -25 575 -25 388.5 59.5 c 128,-1,6
 202 144 202 144 106 309.5 c 128,-1,7
 10 475 10 475 10 714 c 0,8,9
 10 895 10 895 65 1032.5 c 128,-1,10
 120 1170 120 1170 226 1264 c 128,-1,11
 332 1358 332 1358 486 1406.5 c 128,-1,12
 640 1455 640 1455 835 1455 c 0,13,14
 1094 1455 1094 1455 1282 1369.5 c 128,-1,15
 1470 1284 1470 1284 1569 1117.5 c 128,-1,16
 1668 951 1668 951 1668 714 c 256,0,1
673 1478 m 1,17,-1
 849 1796 l 1,18,-1
 1311 1796 l 1,19,-1
 673 1478 l 1,17,-1
523 710 m 0,20,21
 523 571 523 571 585.5 468 c 128,-1,22
 648 365 648 365 832 365 c 0,23,24
 974 365 974 365 1044.5 419 c 128,-1,25
 1115 473 1115 473 1132.5 542.5 c 128,-1,26
 1150 612 1150 612 1156 710 c 1,27,28
 1150 849 1150 849 1089 952.5 c 128,-1,29
 1028 1056 1028 1056 832 1056 c 0,30,31
 523 1056 523 1056 523 710 c 0,20,21
EndSplineSet
Validated: 1
EndChar

StartChar: Ocircumflex
Encoding: 212 212 120
Width: 1677
GlyphClass: 1
Flags: W
LayerCount: 2
Fore
SplineSet
1668 714 m 256,0,1
 1668 477 1668 477 1569 310 c 128,-1,2
 1470 143 1470 143 1282.5 59 c 128,-1,3
 1095 -25 1095 -25 835 -25 c 256,4,5
 575 -25 575 -25 388.5 59.5 c 128,-1,6
 202 144 202 144 106 309.5 c 128,-1,7
 10 475 10 475 10 714 c 0,8,9
 10 895 10 895 65 1032.5 c 128,-1,10
 120 1170 120 1170 226 1264 c 128,-1,11
 332 1358 332 1358 486 1406.5 c 128,-1,12
 640 1455 640 1455 835 1455 c 0,13,14
 1094 1455 1094 1455 1282 1369.5 c 128,-1,15
 1470 1284 1470 1284 1569 1117.5 c 128,-1,16
 1668 951 1668 951 1668 714 c 256,0,1
1114 1472 m 1,17,-1
 827 1657 l 1,18,-1
 537 1476 l 1,19,-1
 537 1538 l 1,20,-1
 824 1838 l 1,21,-1
 1114 1538 l 1,22,-1
 1114 1472 l 1,17,-1
523 710 m 0,23,24
 523 571 523 571 585.5 468 c 128,-1,25
 648 365 648 365 832 365 c 0,26,27
 974 365 974 365 1044.5 419 c 128,-1,28
 1115 473 1115 473 1132.5 542.5 c 128,-1,29
 1150 612 1150 612 1156 710 c 1,30,31
 1150 849 1150 849 1089 952.5 c 128,-1,32
 1028 1056 1028 1056 832 1056 c 0,33,34
 523 1056 523 1056 523 710 c 0,23,24
EndSplineSet
Validated: 1
EndChar

StartChar: Otilde
Encoding: 213 213 121
Width: 1677
GlyphClass: 1
Flags: W
LayerCount: 2
Fore
SplineSet
1668 714 m 256,0,1
 1668 477 1668 477 1569 310 c 128,-1,2
 1470 143 1470 143 1282.5 59 c 128,-1,3
 1095 -25 1095 -25 835 -25 c 256,4,5
 575 -25 575 -25 388.5 59.5 c 128,-1,6
 202 144 202 144 106 309.5 c 128,-1,7
 10 475 10 475 10 714 c 0,8,9
 10 895 10 895 65 1032.5 c 128,-1,10
 120 1170 120 1170 226 1264 c 128,-1,11
 332 1358 332 1358 486 1406.5 c 128,-1,12
 640 1455 640 1455 835 1455 c 0,13,14
 1094 1455 1094 1455 1282 1369.5 c 128,-1,15
 1470 1284 1470 1284 1569 1117.5 c 128,-1,16
 1668 951 1668 951 1668 714 c 256,0,1
1200 1640 m 1,17,18
 960 1408 960 1408 792 1590 c 128,-1,19
 624 1772 624 1772 539 1605 c 1,20,-1
 479 1652 l 1,21,22
 626 1922 626 1922 801 1731 c 128,-1,23
 976 1540 976 1540 1124 1680 c 1,24,-1
 1200 1640 l 1,17,18
523 710 m 0,25,26
 523 571 523 571 585.5 468 c 128,-1,27
 648 365 648 365 832 365 c 0,28,29
 974 365 974 365 1044.5 419 c 128,-1,30
 1115 473 1115 473 1132.5 542.5 c 128,-1,31
 1150 612 1150 612 1156 710 c 1,32,33
 1150 849 1150 849 1089 952.5 c 128,-1,34
 1028 1056 1028 1056 832 1056 c 0,35,36
 523 1056 523 1056 523 710 c 0,25,26
EndSplineSet
Validated: 33
EndChar

StartChar: Odieresis
Encoding: 214 214 122
Width: 1677
GlyphClass: 1
Flags: W
LayerCount: 2
Fore
SplineSet
1668 714 m 256,0,1
 1668 477 1668 477 1569 310 c 128,-1,2
 1470 143 1470 143 1282.5 59 c 128,-1,3
 1095 -25 1095 -25 835 -25 c 256,4,5
 575 -25 575 -25 388.5 59.5 c 128,-1,6
 202 144 202 144 106 309.5 c 128,-1,7
 10 475 10 475 10 714 c 0,8,9
 10 895 10 895 65 1032.5 c 128,-1,10
 120 1170 120 1170 226 1264 c 128,-1,11
 332 1358 332 1358 486 1406.5 c 128,-1,12
 640 1455 640 1455 835 1455 c 0,13,14
 1094 1455 1094 1455 1282 1369.5 c 128,-1,15
 1470 1284 1470 1284 1569 1117.5 c 128,-1,16
 1668 951 1668 951 1668 714 c 256,0,1
1123 1764 m 0,17,18
 1174 1764 1174 1764 1206.5 1730.5 c 128,-1,19
 1239 1697 1239 1697 1239 1647 c 1,20,21
 1234 1586 1234 1586 1200.5 1555 c 128,-1,22
 1167 1524 1167 1524 1117 1524 c 0,23,24
 1069 1524 1069 1524 1036 1557 c 128,-1,25
 1003 1590 1003 1590 1003 1640 c 0,26,27
 1003 1696 1003 1696 1036 1730 c 128,-1,28
 1069 1764 1069 1764 1123 1764 c 0,17,18
563 1764 m 0,29,30
 614 1764 614 1764 646.5 1730.5 c 128,-1,31
 679 1697 679 1697 679 1647 c 1,32,33
 674 1586 674 1586 640.5 1555 c 128,-1,34
 607 1524 607 1524 557 1524 c 0,35,36
 509 1524 509 1524 476 1557 c 128,-1,37
 443 1590 443 1590 443 1640 c 0,38,39
 443 1696 443 1696 476 1730 c 128,-1,40
 509 1764 509 1764 563 1764 c 0,29,30
523 710 m 0,41,42
 523 571 523 571 585.5 468 c 128,-1,43
 648 365 648 365 832 365 c 0,44,45
 974 365 974 365 1044.5 419 c 128,-1,46
 1115 473 1115 473 1132.5 542.5 c 128,-1,47
 1150 612 1150 612 1156 710 c 1,48,49
 1150 849 1150 849 1089 952.5 c 128,-1,50
 1028 1056 1028 1056 832 1056 c 0,51,52
 523 1056 523 1056 523 710 c 0,41,42
EndSplineSet
Validated: 1
EndChar

StartChar: Oslash
Encoding: 216 216 123
Width: 1677
GlyphClass: 1
Flags: W
LayerCount: 2
Fore
SplineSet
640 420 m 1,0,1
 644 372 644 372 828 368 c 0,2,3
 976 368 976 368 1066 444 c 128,-1,4
 1156 520 1156 520 1160 689 c 1,5,-1
 1160 812 l 1,6,-1
 640 420 l 1,0,1
1446 1274 m 1,7,-1
 1556 1362 l 1,8,-1
 1668 1212 l 1,9,-1
 1580 1134 l 1,10,11
 1668 951 1668 951 1668 714 c 256,12,13
 1668 477 1668 477 1569 310 c 128,-1,14
 1470 143 1470 143 1282.5 59 c 128,-1,15
 1095 -25 1095 -25 835 -25 c 256,16,17
 575 -25 575 -25 280 124 c 1,18,-1
 112 -8 l 1,19,-1
 2 140 l 1,20,-1
 136 248 l 1,21,22
 10 475 10 475 10 714 c 0,23,24
 10 895 10 895 65 1032.5 c 128,-1,25
 120 1170 120 1170 226 1264 c 128,-1,26
 332 1358 332 1358 486 1406.5 c 128,-1,27
 640 1455 640 1455 835 1455 c 0,28,29
 1094 1455 1094 1455 1245 1383.5 c 128,-1,30
 1396 1312 1396 1312 1446 1274 c 1,7,-1
1056 972 m 1,31,32
 1056 1048 1056 1048 836 1056 c 1,33,34
 516 1056 516 1056 530 707 c 1,35,36
 524 640 524 640 536 572 c 1,37,-1
 1056 972 l 1,31,32
EndSplineSet
Validated: 33
EndChar

StartChar: Ugrave
Encoding: 217 217 124
Width: 1454
GlyphClass: 1
Flags: W
LayerCount: 2
Fore
SplineSet
203 1796 m 1,0,-1
 665 1796 l 1,1,-1
 841 1478 l 1,2,-1
 203 1796 l 1,0,-1
480 1444 m 1,3,-1
 480 692 l 1,4,5
 476 540 476 540 536 486 c 128,-1,6
 596 432 596 432 728 436 c 1,7,8
 836 432 836 432 906 490 c 128,-1,9
 976 548 976 548 972 692 c 1,10,-1
 974 1444 l 1,11,-1
 1444 1444 l 1,12,-1
 1444 597 l 2,13,14
 1441 417 1441 417 1384.5 309.5 c 128,-1,15
 1328 202 1328 202 1241.5 130 c 128,-1,16
 1155 58 1155 58 1024.5 18 c 128,-1,17
 894 -22 894 -22 734 -26 c 1,18,19
 601 -23 601 -23 463.5 10.5 c 128,-1,20
 326 44 326 44 223.5 116 c 128,-1,21
 121 188 121 188 65.5 301 c 128,-1,22
 10 414 10 414 10 596 c 2,23,-1
 10 1444 l 1,24,-1
 480 1444 l 1,3,-1
EndSplineSet
Validated: 33
EndChar

StartChar: Uacute
Encoding: 218 218 125
Width: 1454
GlyphClass: 1
Flags: W
LayerCount: 2
Fore
SplineSet
673 1478 m 1,0,-1
 849 1796 l 1,1,-1
 1311 1796 l 1,2,-1
 673 1478 l 1,0,-1
480 1444 m 1,3,-1
 480 692 l 1,4,5
 476 540 476 540 536 486 c 128,-1,6
 596 432 596 432 728 436 c 1,7,8
 836 432 836 432 906 490 c 128,-1,9
 976 548 976 548 972 692 c 1,10,-1
 974 1444 l 1,11,-1
 1444 1444 l 1,12,-1
 1444 597 l 2,13,14
 1441 417 1441 417 1384.5 309.5 c 128,-1,15
 1328 202 1328 202 1241.5 130 c 128,-1,16
 1155 58 1155 58 1024.5 18 c 128,-1,17
 894 -22 894 -22 734 -26 c 1,18,19
 601 -23 601 -23 463.5 10.5 c 128,-1,20
 326 44 326 44 223.5 116 c 128,-1,21
 121 188 121 188 65.5 301 c 128,-1,22
 10 414 10 414 10 596 c 2,23,-1
 10 1444 l 1,24,-1
 480 1444 l 1,3,-1
EndSplineSet
Validated: 33
EndChar

StartChar: Ucircumflex
Encoding: 219 219 126
Width: 1454
GlyphClass: 1
Flags: W
LayerCount: 2
Fore
SplineSet
1030 1472 m 1,0,-1
 743 1657 l 1,1,-1
 453 1476 l 1,2,-1
 453 1538 l 1,3,-1
 740 1838 l 1,4,-1
 1030 1538 l 1,5,-1
 1030 1472 l 1,0,-1
480 1444 m 1,6,-1
 480 692 l 1,7,8
 476 540 476 540 536 486 c 128,-1,9
 596 432 596 432 728 436 c 1,10,11
 836 432 836 432 906 490 c 128,-1,12
 976 548 976 548 972 692 c 1,13,-1
 974 1444 l 1,14,-1
 1444 1444 l 1,15,-1
 1444 597 l 2,16,17
 1441 417 1441 417 1384.5 309.5 c 128,-1,18
 1328 202 1328 202 1241.5 130 c 128,-1,19
 1155 58 1155 58 1024.5 18 c 128,-1,20
 894 -22 894 -22 734 -26 c 1,21,22
 601 -23 601 -23 463.5 10.5 c 128,-1,23
 326 44 326 44 223.5 116 c 128,-1,24
 121 188 121 188 65.5 301 c 128,-1,25
 10 414 10 414 10 596 c 2,26,-1
 10 1444 l 1,27,-1
 480 1444 l 1,6,-1
EndSplineSet
Validated: 33
EndChar

StartChar: Udieresis
Encoding: 220 220 127
Width: 1454
GlyphClass: 1
Flags: W
LayerCount: 2
Fore
SplineSet
947 1768 m 0,0,1
 998 1768 998 1768 1030.5 1734.5 c 128,-1,2
 1063 1701 1063 1701 1063 1651 c 1,3,4
 1058 1590 1058 1590 1024.5 1559 c 128,-1,5
 991 1528 991 1528 941 1528 c 0,6,7
 893 1528 893 1528 860 1561 c 128,-1,8
 827 1594 827 1594 827 1644 c 0,9,10
 827 1700 827 1700 860 1734 c 128,-1,11
 893 1768 893 1768 947 1768 c 0,0,1
499 1764 m 0,12,13
 550 1764 550 1764 582.5 1730.5 c 128,-1,14
 615 1697 615 1697 615 1647 c 1,15,16
 610 1586 610 1586 576.5 1555 c 128,-1,17
 543 1524 543 1524 493 1524 c 0,18,19
 445 1524 445 1524 412 1557 c 128,-1,20
 379 1590 379 1590 379 1640 c 0,21,22
 379 1696 379 1696 412 1730 c 128,-1,23
 445 1764 445 1764 499 1764 c 0,12,13
480 1444 m 1,24,-1
 480 692 l 1,25,26
 476 540 476 540 536 486 c 128,-1,27
 596 432 596 432 728 436 c 1,28,29
 836 432 836 432 906 490 c 128,-1,30
 976 548 976 548 972 692 c 1,31,-1
 974 1444 l 1,32,-1
 1444 1444 l 1,33,-1
 1444 597 l 2,34,35
 1441 417 1441 417 1384.5 309.5 c 128,-1,36
 1328 202 1328 202 1241.5 130 c 128,-1,37
 1155 58 1155 58 1024.5 18 c 128,-1,38
 894 -22 894 -22 734 -26 c 1,39,40
 601 -23 601 -23 463.5 10.5 c 128,-1,41
 326 44 326 44 223.5 116 c 128,-1,42
 121 188 121 188 65.5 301 c 128,-1,43
 10 414 10 414 10 596 c 2,44,-1
 10 1444 l 1,45,-1
 480 1444 l 1,24,-1
EndSplineSet
Validated: 33
EndChar

StartChar: Yacute
Encoding: 221 221 128
Width: 1472
GlyphClass: 1
Flags: W
LayerCount: 2
Fore
SplineSet
1602 1444 m 1,0,-1
 972 530 l 1,1,-1
 972 0 l 1,2,-1
 500 0 l 1,3,-1
 500 530 l 1,4,-1
 -130 1444 l 1,5,-1
 440 1444 l 1,6,-1
 734 998 l 1,7,-1
 1032 1444 l 1,8,-1
 1602 1444 l 1,0,-1
621 1478 m 1,9,-1
 797 1796 l 1,10,-1
 1259 1796 l 1,11,-1
 621 1478 l 1,9,-1
EndSplineSet
Validated: 1
EndChar

StartChar: Thorn
Encoding: 222 222 129
Width: 1378
GlyphClass: 1
Flags: W
LayerCount: 2
Fore
SplineSet
510 272 m 1,0,-1
 510 0 l 1,1,-1
 40 0 l 1,2,-1
 40 1444 l 1,3,-1
 510 1444 l 1,4,-1
 510 1191 l 1,5,6
 910 1192 910 1192 1017.5 1163 c 128,-1,7
 1125 1134 1125 1134 1199 1084 c 128,-1,8
 1273 1034 1273 1034 1322 949.5 c 128,-1,9
 1371 865 1371 865 1371 729 c 1,10,11
 1363 603 1363 603 1318 515 c 128,-1,12
 1273 427 1273 427 1199 376 c 128,-1,13
 1125 325 1125 325 1018 297 c 128,-1,14
 911 269 911 269 750 271 c 2,15,-1
 510 272 l 1,0,-1
510 908 m 1,16,-1
 510 530 l 1,17,-1
 732 529 l 2,18,19
 807 529 807 529 853.5 549.5 c 128,-1,20
 900 570 900 570 929.5 602.5 c 128,-1,21
 959 635 959 635 967 719 c 1,22,23
 965 795 965 795 934.5 831.5 c 128,-1,24
 904 868 904 868 855.5 888 c 128,-1,25
 807 908 807 908 730 908 c 2,26,-1
 510 908 l 1,16,-1
EndSplineSet
Validated: 33
EndChar

StartChar: germandbls
Encoding: 223 223 130
Width: 1628
GlyphClass: 1
Flags: W
LayerCount: 2
Fore
SplineSet
558 559 m 1,0,-1
 558 -296 l 1,1,-1
 60 -296 l 1,2,-1
 60 1444 l 1,3,-1
 1045 1444 l 2,4,5
 1282 1442 1282 1442 1405.5 1362 c 128,-1,6
 1529 1282 1529 1282 1555 1094 c 1,7,8
 1564 950 1564 950 1494 868 c 128,-1,9
 1424 786 1424 786 1263 733 c 1,10,-1
 1263 729 l 1,11,12
 1342 719 1342 719 1409 686.5 c 128,-1,13
 1476 654 1476 654 1521.5 609.5 c 128,-1,14
 1567 565 1567 565 1592 509 c 128,-1,15
 1617 453 1617 453 1617 399 c 0,16,17
 1617 228 1617 228 1529.5 140 c 128,-1,18
 1442 52 1442 52 1304.5 25 c 128,-1,19
 1167 -2 1167 -2 971 0 c 2,20,-1
 684 0 l 1,21,-1
 684 292 l 1,22,-1
 879 292 l 2,23,24
 962 289 962 289 1024 328 c 128,-1,25
 1086 367 1086 367 1086 424 c 1,26,27
 1092 487 1092 487 1035.5 523 c 128,-1,28
 979 559 979 559 879 559 c 2,29,-1
 644 560 l 1,30,-1
 644 876 l 1,31,-1
 908 875 l 2,32,33
 937 875 937 875 969 905.5 c 128,-1,34
 1001 936 1001 936 1003 987 c 1,35,36
 999 1046 999 1046 964.5 1070 c 128,-1,37
 930 1094 930 1094 907 1094 c 2,38,-1
 558 1094 l 1,39,-1
 558 559 l 1,0,-1
EndSplineSet
Validated: 33
EndChar

StartChar: agrave
Encoding: 224 224 131
Width: 1515
GlyphClass: 1
Flags: W
LayerCount: 2
Fore
SplineSet
-80 0 m 1,0,-1
 395 1444 l 1,1,-1
 1112 1444 l 1,2,-1
 1595 0 l 1,3,-1
 1049 0 l 1,4,-1
 958 260 l 1,5,-1
 529 260 l 1,6,-1
 438 0 l 1,7,-1
 -80 0 l 1,0,-1
755 1124 m 1,8,-1
 548 552 l 1,9,-1
 946 552 l 1,10,-1
 755 1124 l 1,8,-1
203 1796 m 1,11,-1
 665 1796 l 1,12,-1
 841 1478 l 1,13,-1
 203 1796 l 1,11,-1
EndSplineSet
Validated: 1
EndChar

StartChar: aacute
Encoding: 225 225 132
Width: 1515
GlyphClass: 1
Flags: W
LayerCount: 2
Fore
SplineSet
673 1478 m 1,0,-1
 849 1796 l 1,1,-1
 1311 1796 l 1,2,-1
 673 1478 l 1,0,-1
-80 0 m 1,3,-1
 395 1444 l 1,4,-1
 1112 1444 l 1,5,-1
 1595 0 l 1,6,-1
 1049 0 l 1,7,-1
 958 260 l 1,8,-1
 529 260 l 1,9,-1
 438 0 l 1,10,-1
 -80 0 l 1,3,-1
755 1124 m 1,11,-1
 548 552 l 1,12,-1
 946 552 l 1,13,-1
 755 1124 l 1,11,-1
EndSplineSet
Validated: 1
EndChar

StartChar: acircumflex
Encoding: 226 226 133
Width: 1515
GlyphClass: 1
Flags: W
LayerCount: 2
Fore
SplineSet
-80 0 m 1,0,-1
 395 1444 l 1,1,-1
 1112 1444 l 1,2,-1
 1595 0 l 1,3,-1
 1049 0 l 1,4,-1
 958 260 l 1,5,-1
 529 260 l 1,6,-1
 438 0 l 1,7,-1
 -80 0 l 1,0,-1
755 1124 m 1,8,-1
 548 552 l 1,9,-1
 946 552 l 1,10,-1
 755 1124 l 1,8,-1
1030 1472 m 1,11,-1
 753 1646 l 1,12,-1
 473 1475 l 1,13,-1
 473 1534 l 1,14,-1
 751 1817 l 1,15,-1
 1030 1534 l 1,16,-1
 1030 1472 l 1,11,-1
EndSplineSet
Validated: 1
EndChar

StartChar: atilde
Encoding: 227 227 134
Width: 1515
GlyphClass: 1
Flags: W
LayerCount: 2
Fore
SplineSet
-80 0 m 1,0,-1
 395 1444 l 1,1,-1
 1112 1444 l 1,2,-1
 1595 0 l 1,3,-1
 1049 0 l 1,4,-1
 958 260 l 1,5,-1
 529 260 l 1,6,-1
 438 0 l 1,7,-1
 -80 0 l 1,0,-1
755 1124 m 1,8,-1
 548 552 l 1,9,-1
 946 552 l 1,10,-1
 755 1124 l 1,8,-1
1128 1636 m 1,11,12
 888 1404 888 1404 720 1586 c 128,-1,13
 552 1768 552 1768 467 1601 c 1,14,-1
 407 1648 l 1,15,16
 554 1918 554 1918 729 1727 c 128,-1,17
 904 1536 904 1536 1052 1676 c 1,18,-1
 1128 1636 l 1,11,12
EndSplineSet
Validated: 33
EndChar

StartChar: adieresis
Encoding: 228 228 135
Width: 1515
GlyphClass: 1
Flags: W
LayerCount: 2
Fore
SplineSet
-80 0 m 1,0,-1
 395 1444 l 1,1,-1
 1112 1444 l 1,2,-1
 1595 0 l 1,3,-1
 1049 0 l 1,4,-1
 958 260 l 1,5,-1
 529 260 l 1,6,-1
 438 0 l 1,7,-1
 -80 0 l 1,0,-1
755 1124 m 1,8,-1
 548 552 l 1,9,-1
 946 552 l 1,10,-1
 755 1124 l 1,8,-1
563 1764 m 0,11,12
 614 1764 614 1764 646.5 1730.5 c 128,-1,13
 679 1697 679 1697 679 1647 c 1,14,15
 674 1586 674 1586 640.5 1555 c 128,-1,16
 607 1524 607 1524 557 1524 c 0,17,18
 509 1524 509 1524 476 1557 c 128,-1,19
 443 1590 443 1590 443 1640 c 0,20,21
 443 1696 443 1696 476 1730 c 128,-1,22
 509 1764 509 1764 563 1764 c 0,11,12
941 1764 m 0,23,24
 992 1764 992 1764 1024.5 1730.5 c 128,-1,25
 1057 1697 1057 1697 1057 1647 c 1,26,27
 1052 1586 1052 1586 1018.5 1555 c 128,-1,28
 985 1524 985 1524 935 1524 c 0,29,30
 887 1524 887 1524 854 1557 c 128,-1,31
 821 1590 821 1590 821 1640 c 0,32,33
 821 1696 821 1696 854 1730 c 128,-1,34
 887 1764 887 1764 941 1764 c 0,23,24
EndSplineSet
Validated: 1
EndChar

StartChar: aring
Encoding: 229 229 136
Width: 1515
GlyphClass: 1
Flags: W
LayerCount: 2
Fore
SplineSet
-80 0 m 1,0,-1
 395 1444 l 1,1,-1
 1112 1444 l 1,2,-1
 1595 0 l 1,3,-1
 1049 0 l 1,4,-1
 958 260 l 1,5,-1
 529 260 l 1,6,-1
 438 0 l 1,7,-1
 -80 0 l 1,0,-1
755 1124 m 1,8,-1
 548 552 l 1,9,-1
 946 552 l 1,10,-1
 755 1124 l 1,8,-1
754 1844 m 0,11,12
 837 1844 837 1844 891.5 1789 c 128,-1,13
 946 1734 946 1734 946 1653 c 0,14,15
 946 1571 946 1571 886.5 1512.5 c 128,-1,16
 827 1454 827 1454 745 1454 c 0,17,18
 666 1454 666 1454 611.5 1507 c 128,-1,19
 557 1560 557 1560 557 1642 c 0,20,21
 557 1733 557 1733 612 1788.5 c 128,-1,22
 667 1844 667 1844 754 1844 c 0,11,12
753 1768 m 0,23,24
 699 1768 699 1768 666 1734 c 128,-1,25
 633 1700 633 1700 633 1644 c 0,26,27
 633 1594 633 1594 666 1561 c 128,-1,28
 699 1528 699 1528 747 1528 c 0,29,30
 797 1528 797 1528 830.5 1559 c 128,-1,31
 864 1590 864 1590 869 1651 c 1,32,33
 869 1701 869 1701 836.5 1734.5 c 128,-1,34
 804 1768 804 1768 753 1768 c 0,23,24
EndSplineSet
Validated: 1
EndChar

StartChar: ae
Encoding: 230 230 137
Width: 2062
GlyphClass: 1
Flags: W
LayerCount: 2
Fore
SplineSet
756 1122 m 1,0,-1
 548 552 l 1,1,-1
 756 552 l 1,2,-1
 756 1122 l 1,0,-1
756 0 m 1,3,-1
 756 260 l 1,4,-1
 529 260 l 1,5,-1
 438 0 l 1,6,-1
 -80 0 l 1,7,-1
 395 1444 l 1,8,-1
 2000 1444 l 1,9,-1
 2000 1014 l 1,10,-1
 1232 1014 l 1,11,-1
 1232 920 l 1,12,-1
 1568 920 l 1,13,-1
 1568 640 l 1,14,-1
 1232 640 l 1,15,-1
 1232 430 l 1,16,-1
 2122 430 l 1,17,-1
 2122 0 l 1,18,-1
 756 0 l 1,3,-1
EndSplineSet
Validated: 1
EndChar

StartChar: ccedilla
Encoding: 231 231 138
Width: 1484
GlyphClass: 1
Flags: W
LayerCount: 2
Fore
SplineSet
752 4 m 1,0,1
 609 0 609 0 419 83.5 c 128,-1,2
 229 167 229 167 119.5 334 c 128,-1,3
 10 501 10 501 10 743 c 0,4,5
 10 913 10 913 75.5 1046.5 c 128,-1,6
 141 1180 141 1180 257 1268.5 c 128,-1,7
 373 1357 373 1357 523.5 1400.5 c 128,-1,8
 674 1444 674 1444 844 1444 c 2,9,-1
 1240 1444 l 1,10,-1
 1484 1444 l 1,11,-1
 1484 1014 l 1,12,-1
 1032 1014 l 2,13,14
 880 1014 880 1014 807 1005 c 128,-1,15
 734 996 734 996 677 975 c 128,-1,16
 620 954 620 954 576 902 c 128,-1,17
 532 850 532 850 525 718 c 1,18,19
 530 590 530 590 576 535 c 128,-1,20
 622 480 622 480 688 462 c 128,-1,21
 754 444 754 444 824 437 c 128,-1,22
 894 430 894 430 1032 430 c 2,23,-1
 1484 430 l 1,24,-1
 1484 0 l 1,25,-1
 958 0 l 1,26,-1
 958 -112 l 1,27,28
 1065 -132 1065 -132 1117 -180 c 128,-1,29
 1169 -228 1169 -228 1169 -296 c 0,30,31
 1169 -388 1169 -388 1067.5 -456.5 c 128,-1,32
 966 -525 966 -525 806 -525 c 0,33,34
 743 -525 743 -525 647 -517 c 1,35,-1
 662 -430 l 1,36,37
 704 -442 704 -442 762 -444 c 0,38,39
 862 -444 862 -444 897.5 -413 c 128,-1,40
 933 -382 933 -382 933 -328 c 0,41,42
 933 -290 933 -290 894 -262 c 128,-1,43
 855 -234 855 -234 797 -234 c 0,44,45
 780 -234 780 -234 753 -237 c 1,46,-1
 752 4 l 1,0,1
EndSplineSet
Validated: 33
EndChar

StartChar: egrave
Encoding: 232 232 139
Width: 1360
GlyphClass: 1
Flags: W
LayerCount: 2
Fore
SplineSet
203 1796 m 1,0,-1
 665 1796 l 1,1,-1
 841 1478 l 1,2,-1
 203 1796 l 1,0,-1
60 0 m 1,3,-1
 60 1444 l 1,4,-1
 1298 1444 l 1,5,-1
 1298 1014 l 1,6,-1
 530 1014 l 1,7,-1
 530 920 l 1,8,-1
 852 920 l 1,9,-1
 852 640 l 1,10,-1
 530 640 l 1,11,-1
 530 430 l 1,12,-1
 1420 430 l 1,13,-1
 1420 0 l 1,14,-1
 60 0 l 1,3,-1
EndSplineSet
Validated: 1
EndChar

StartChar: eacute
Encoding: 233 233 140
Width: 1360
GlyphClass: 1
Flags: W
LayerCount: 2
Fore
SplineSet
673 1478 m 1,0,-1
 849 1796 l 1,1,-1
 1311 1796 l 1,2,-1
 673 1478 l 1,0,-1
60 0 m 1,3,-1
 60 1444 l 1,4,-1
 1298 1444 l 1,5,-1
 1298 1014 l 1,6,-1
 530 1014 l 1,7,-1
 530 920 l 1,8,-1
 852 920 l 1,9,-1
 852 640 l 1,10,-1
 530 640 l 1,11,-1
 530 430 l 1,12,-1
 1420 430 l 1,13,-1
 1420 0 l 1,14,-1
 60 0 l 1,3,-1
EndSplineSet
Validated: 1
EndChar

StartChar: ecircumflex
Encoding: 234 234 141
Width: 1360
GlyphClass: 1
Flags: W
LayerCount: 2
Fore
SplineSet
1030 1472 m 1,0,-1
 753 1646 l 1,1,-1
 473 1475 l 1,2,-1
 473 1534 l 1,3,-1
 751 1817 l 1,4,-1
 1030 1534 l 1,5,-1
 1030 1472 l 1,0,-1
60 0 m 1,6,-1
 60 1444 l 1,7,-1
 1298 1444 l 1,8,-1
 1298 1014 l 1,9,-1
 530 1014 l 1,10,-1
 530 920 l 1,11,-1
 852 920 l 1,12,-1
 852 640 l 1,13,-1
 530 640 l 1,14,-1
 530 430 l 1,15,-1
 1420 430 l 1,16,-1
 1420 0 l 1,17,-1
 60 0 l 1,6,-1
EndSplineSet
Validated: 1
EndChar

StartChar: edieresis
Encoding: 235 235 142
Width: 1360
GlyphClass: 1
Flags: W
LayerCount: 2
Fore
SplineSet
563 1764 m 0,0,1
 614 1764 614 1764 646.5 1730.5 c 128,-1,2
 679 1697 679 1697 679 1647 c 1,3,4
 674 1586 674 1586 640.5 1555 c 128,-1,5
 607 1524 607 1524 557 1524 c 0,6,7
 509 1524 509 1524 476 1557 c 128,-1,8
 443 1590 443 1590 443 1640 c 0,9,10
 443 1696 443 1696 476 1730 c 128,-1,11
 509 1764 509 1764 563 1764 c 0,0,1
941 1764 m 0,12,13
 992 1764 992 1764 1024.5 1730.5 c 128,-1,14
 1057 1697 1057 1697 1057 1647 c 1,15,16
 1052 1586 1052 1586 1018.5 1555 c 128,-1,17
 985 1524 985 1524 935 1524 c 0,18,19
 887 1524 887 1524 854 1557 c 128,-1,20
 821 1590 821 1590 821 1640 c 0,21,22
 821 1696 821 1696 854 1730 c 128,-1,23
 887 1764 887 1764 941 1764 c 0,12,13
60 0 m 1,24,-1
 60 1444 l 1,25,-1
 1298 1444 l 1,26,-1
 1298 1014 l 1,27,-1
 530 1014 l 1,28,-1
 530 920 l 1,29,-1
 852 920 l 1,30,-1
 852 640 l 1,31,-1
 530 640 l 1,32,-1
 530 430 l 1,33,-1
 1420 430 l 1,34,-1
 1420 0 l 1,35,-1
 60 0 l 1,24,-1
EndSplineSet
Validated: 1
EndChar

StartChar: igrave
Encoding: 236 236 143
Width: 550
GlyphClass: 1
Flags: W
LayerCount: 2
Fore
SplineSet
40 1444 m 1,0,-1
 510 1444 l 1,1,-1
 510 0 l 1,2,-1
 40 0 l 1,3,-1
 40 1444 l 1,0,-1
26 1796 m 1,4,-1
 397 1796 l 1,5,-1
 510 1480 l 1,6,-1
 26 1796 l 1,4,-1
EndSplineSet
Validated: 1
EndChar

StartChar: iacute
Encoding: 237 237 144
Width: 550
GlyphClass: 1
Flags: W
LayerCount: 2
Fore
SplineSet
508 0 m 1,0,-1
 41 0 l 1,1,-1
 41 1444 l 1,2,-1
 508 1444 l 1,3,-1
 508 0 l 1,0,-1
41 1480 m 1,4,-1
 154 1796 l 1,5,-1
 522 1796 l 1,6,-1
 41 1480 l 1,4,-1
EndSplineSet
Validated: 1
EndChar

StartChar: icircumflex
Encoding: 238 238 145
Width: 550
GlyphClass: 1
Flags: W
LayerCount: 2
Fore
SplineSet
40 1444 m 1,0,-1
 510 1444 l 1,1,-1
 510 0 l 1,2,-1
 40 0 l 1,3,-1
 40 1444 l 1,0,-1
502 1478 m 1,4,-1
 274 1652 l 1,5,-1
 45 1481 l 1,6,-1
 45 1540 l 1,7,-1
 273 1823 l 1,8,-1
 502 1540 l 1,9,-1
 502 1478 l 1,4,-1
EndSplineSet
Validated: 1
EndChar

StartChar: idieresis
Encoding: 239 239 146
Width: 550
GlyphClass: 1
Flags: W
LayerCount: 2
Fore
SplineSet
40 1444 m 1,0,-1
 510 1444 l 1,1,-1
 510 0 l 1,2,-1
 40 0 l 1,3,-1
 40 1444 l 1,0,-1
123 1764 m 0,4,5
 174 1764 174 1764 206.5 1730.5 c 128,-1,6
 239 1697 239 1697 239 1647 c 1,7,8
 234 1586 234 1586 200.5 1555 c 128,-1,9
 167 1524 167 1524 117 1524 c 0,10,11
 69 1524 69 1524 36 1557 c 128,-1,12
 3 1590 3 1590 3 1640 c 0,13,14
 3 1696 3 1696 36 1730 c 128,-1,15
 69 1764 69 1764 123 1764 c 0,4,5
435 1764 m 0,16,17
 486 1764 486 1764 518.5 1730.5 c 128,-1,18
 551 1697 551 1697 551 1647 c 1,19,20
 546 1586 546 1586 512.5 1555 c 128,-1,21
 479 1524 479 1524 429 1524 c 0,22,23
 381 1524 381 1524 348 1557 c 128,-1,24
 315 1590 315 1590 315 1640 c 0,25,26
 315 1696 315 1696 348 1730 c 128,-1,27
 381 1764 381 1764 435 1764 c 0,16,17
EndSplineSet
Validated: 1
EndChar

StartChar: eth
Encoding: 240 240 147
Width: 1804
GlyphClass: 1
Flags: W
LayerCount: 2
Fore
SplineSet
212 0 m 1,0,-1
 212 542 l 1,1,-1
 -42 542 l 1,2,-1
 -42 794 l 1,3,-1
 212 794 l 1,4,-1
 212 1444 l 1,5,-1
 1064 1444 l 2,6,7
 1237 1444 1237 1444 1369 1398 c 128,-1,8
 1501 1352 1501 1352 1592 1274 c 128,-1,9
 1683 1196 1683 1196 1743.5 1063 c 128,-1,10
 1804 930 1804 930 1804 717 c 1,11,12
 1793 520 1793 520 1738 382 c 128,-1,13
 1683 244 1683 244 1592 164 c 128,-1,14
 1501 84 1501 84 1369.5 40 c 128,-1,15
 1238 -4 1238 -4 1040 0 c 1,16,-1
 212 0 l 1,0,-1
694 1086 m 1,17,-1
 694 796 l 1,18,-1
 974 796 l 1,19,-1
 974 542 l 1,20,-1
 694 542 l 1,21,-1
 694 360 l 1,22,-1
 969 360 l 2,23,24
 1062 360 1062 360 1119 399.5 c 128,-1,25
 1176 439 1176 439 1212 500.5 c 128,-1,26
 1248 562 1248 562 1258 722 c 1,27,28
 1255 868 1255 868 1217.5 937.5 c 128,-1,29
 1180 1007 1180 1007 1121 1046.5 c 128,-1,30
 1062 1086 1062 1086 967 1086 c 2,31,-1
 694 1086 l 1,17,-1
EndSplineSet
Validated: 33
EndChar

StartChar: ntilde
Encoding: 241 241 148
Width: 1430
GlyphClass: 1
Flags: W
LayerCount: 2
Fore
SplineSet
1112 1636 m 1,0,1
 872 1404 872 1404 704 1586 c 128,-1,2
 536 1768 536 1768 451 1601 c 1,3,-1
 391 1648 l 1,4,5
 538 1918 538 1918 713 1727 c 128,-1,6
 888 1536 888 1536 1036 1676 c 1,7,-1
 1112 1636 l 1,0,1
60 0 m 1,8,-1
 60 1444 l 1,9,10
 732 1392 732 1392 960 904 c 1,11,-1
 960 1444 l 1,12,-1
 1430 1444 l 1,13,-1
 1430 0 l 1,14,-1
 960 0 l 1,15,16
 884 332 884 332 530 540 c 1,17,-1
 530 0 l 1,18,-1
 60 0 l 1,8,-1
EndSplineSet
Validated: 33
EndChar

StartChar: ograve
Encoding: 242 242 149
Width: 1677
GlyphClass: 1
Flags: W
LayerCount: 2
Fore
SplineSet
1668 714 m 256,0,1
 1668 477 1668 477 1569 310 c 128,-1,2
 1470 143 1470 143 1282.5 59 c 128,-1,3
 1095 -25 1095 -25 835 -25 c 256,4,5
 575 -25 575 -25 388.5 59.5 c 128,-1,6
 202 144 202 144 106 309.5 c 128,-1,7
 10 475 10 475 10 714 c 0,8,9
 10 895 10 895 65 1032.5 c 128,-1,10
 120 1170 120 1170 226 1264 c 128,-1,11
 332 1358 332 1358 486 1406.5 c 128,-1,12
 640 1455 640 1455 835 1455 c 0,13,14
 1094 1455 1094 1455 1282 1369.5 c 128,-1,15
 1470 1284 1470 1284 1569 1117.5 c 128,-1,16
 1668 951 1668 951 1668 714 c 256,0,1
203 1796 m 1,17,-1
 665 1796 l 1,18,-1
 841 1478 l 1,19,-1
 203 1796 l 1,17,-1
523 710 m 0,20,21
 523 571 523 571 585.5 468 c 128,-1,22
 648 365 648 365 832 365 c 0,23,24
 974 365 974 365 1044.5 419 c 128,-1,25
 1115 473 1115 473 1132.5 542.5 c 128,-1,26
 1150 612 1150 612 1156 710 c 1,27,28
 1150 849 1150 849 1089 952.5 c 128,-1,29
 1028 1056 1028 1056 832 1056 c 0,30,31
 523 1056 523 1056 523 710 c 0,20,21
EndSplineSet
Validated: 1
EndChar

StartChar: oacute
Encoding: 243 243 150
Width: 1677
GlyphClass: 1
Flags: W
LayerCount: 2
Fore
SplineSet
1668 714 m 256,0,1
 1668 477 1668 477 1569 310 c 128,-1,2
 1470 143 1470 143 1282.5 59 c 128,-1,3
 1095 -25 1095 -25 835 -25 c 256,4,5
 575 -25 575 -25 388.5 59.5 c 128,-1,6
 202 144 202 144 106 309.5 c 128,-1,7
 10 475 10 475 10 714 c 0,8,9
 10 895 10 895 65 1032.5 c 128,-1,10
 120 1170 120 1170 226 1264 c 128,-1,11
 332 1358 332 1358 486 1406.5 c 128,-1,12
 640 1455 640 1455 835 1455 c 0,13,14
 1094 1455 1094 1455 1282 1369.5 c 128,-1,15
 1470 1284 1470 1284 1569 1117.5 c 128,-1,16
 1668 951 1668 951 1668 714 c 256,0,1
673 1478 m 1,17,-1
 849 1796 l 1,18,-1
 1311 1796 l 1,19,-1
 673 1478 l 1,17,-1
523 710 m 0,20,21
 523 571 523 571 585.5 468 c 128,-1,22
 648 365 648 365 832 365 c 0,23,24
 974 365 974 365 1044.5 419 c 128,-1,25
 1115 473 1115 473 1132.5 542.5 c 128,-1,26
 1150 612 1150 612 1156 710 c 1,27,28
 1150 849 1150 849 1089 952.5 c 128,-1,29
 1028 1056 1028 1056 832 1056 c 0,30,31
 523 1056 523 1056 523 710 c 0,20,21
EndSplineSet
Validated: 1
EndChar

StartChar: ocircumflex
Encoding: 244 244 151
Width: 1677
GlyphClass: 1
Flags: W
LayerCount: 2
Fore
SplineSet
1668 714 m 256,0,1
 1668 477 1668 477 1569 310 c 128,-1,2
 1470 143 1470 143 1282.5 59 c 128,-1,3
 1095 -25 1095 -25 835 -25 c 256,4,5
 575 -25 575 -25 388.5 59.5 c 128,-1,6
 202 144 202 144 106 309.5 c 128,-1,7
 10 475 10 475 10 714 c 0,8,9
 10 895 10 895 65 1032.5 c 128,-1,10
 120 1170 120 1170 226 1264 c 128,-1,11
 332 1358 332 1358 486 1406.5 c 128,-1,12
 640 1455 640 1455 835 1455 c 0,13,14
 1094 1455 1094 1455 1282 1369.5 c 128,-1,15
 1470 1284 1470 1284 1569 1117.5 c 128,-1,16
 1668 951 1668 951 1668 714 c 256,0,1
1114 1472 m 1,17,-1
 827 1657 l 1,18,-1
 537 1476 l 1,19,-1
 537 1538 l 1,20,-1
 824 1838 l 1,21,-1
 1114 1538 l 1,22,-1
 1114 1472 l 1,17,-1
523 710 m 0,23,24
 523 571 523 571 585.5 468 c 128,-1,25
 648 365 648 365 832 365 c 0,26,27
 974 365 974 365 1044.5 419 c 128,-1,28
 1115 473 1115 473 1132.5 542.5 c 128,-1,29
 1150 612 1150 612 1156 710 c 1,30,31
 1150 849 1150 849 1089 952.5 c 128,-1,32
 1028 1056 1028 1056 832 1056 c 0,33,34
 523 1056 523 1056 523 710 c 0,23,24
EndSplineSet
Validated: 1
EndChar

StartChar: otilde
Encoding: 245 245 152
Width: 1677
GlyphClass: 1
Flags: W
LayerCount: 2
Fore
SplineSet
1668 714 m 256,0,1
 1668 477 1668 477 1569 310 c 128,-1,2
 1470 143 1470 143 1282.5 59 c 128,-1,3
 1095 -25 1095 -25 835 -25 c 256,4,5
 575 -25 575 -25 388.5 59.5 c 128,-1,6
 202 144 202 144 106 309.5 c 128,-1,7
 10 475 10 475 10 714 c 0,8,9
 10 895 10 895 65 1032.5 c 128,-1,10
 120 1170 120 1170 226 1264 c 128,-1,11
 332 1358 332 1358 486 1406.5 c 128,-1,12
 640 1455 640 1455 835 1455 c 0,13,14
 1094 1455 1094 1455 1282 1369.5 c 128,-1,15
 1470 1284 1470 1284 1569 1117.5 c 128,-1,16
 1668 951 1668 951 1668 714 c 256,0,1
1200 1640 m 1,17,18
 960 1408 960 1408 792 1590 c 128,-1,19
 624 1772 624 1772 539 1605 c 1,20,-1
 479 1652 l 1,21,22
 626 1922 626 1922 801 1731 c 128,-1,23
 976 1540 976 1540 1124 1680 c 1,24,-1
 1200 1640 l 1,17,18
523 710 m 0,25,26
 523 571 523 571 585.5 468 c 128,-1,27
 648 365 648 365 832 365 c 0,28,29
 974 365 974 365 1044.5 419 c 128,-1,30
 1115 473 1115 473 1132.5 542.5 c 128,-1,31
 1150 612 1150 612 1156 710 c 1,32,33
 1150 849 1150 849 1089 952.5 c 128,-1,34
 1028 1056 1028 1056 832 1056 c 0,35,36
 523 1056 523 1056 523 710 c 0,25,26
EndSplineSet
Validated: 33
EndChar

StartChar: odieresis
Encoding: 246 246 153
Width: 1677
GlyphClass: 1
Flags: W
LayerCount: 2
Fore
SplineSet
1668 714 m 256,0,1
 1668 477 1668 477 1569 310 c 128,-1,2
 1470 143 1470 143 1282.5 59 c 128,-1,3
 1095 -25 1095 -25 835 -25 c 256,4,5
 575 -25 575 -25 388.5 59.5 c 128,-1,6
 202 144 202 144 106 309.5 c 128,-1,7
 10 475 10 475 10 714 c 0,8,9
 10 895 10 895 65 1032.5 c 128,-1,10
 120 1170 120 1170 226 1264 c 128,-1,11
 332 1358 332 1358 486 1406.5 c 128,-1,12
 640 1455 640 1455 835 1455 c 0,13,14
 1094 1455 1094 1455 1282 1369.5 c 128,-1,15
 1470 1284 1470 1284 1569 1117.5 c 128,-1,16
 1668 951 1668 951 1668 714 c 256,0,1
1123 1764 m 0,17,18
 1174 1764 1174 1764 1206.5 1730.5 c 128,-1,19
 1239 1697 1239 1697 1239 1647 c 1,20,21
 1234 1586 1234 1586 1200.5 1555 c 128,-1,22
 1167 1524 1167 1524 1117 1524 c 0,23,24
 1069 1524 1069 1524 1036 1557 c 128,-1,25
 1003 1590 1003 1590 1003 1640 c 0,26,27
 1003 1696 1003 1696 1036 1730 c 128,-1,28
 1069 1764 1069 1764 1123 1764 c 0,17,18
563 1764 m 0,29,30
 614 1764 614 1764 646.5 1730.5 c 128,-1,31
 679 1697 679 1697 679 1647 c 1,32,33
 674 1586 674 1586 640.5 1555 c 128,-1,34
 607 1524 607 1524 557 1524 c 0,35,36
 509 1524 509 1524 476 1557 c 128,-1,37
 443 1590 443 1590 443 1640 c 0,38,39
 443 1696 443 1696 476 1730 c 128,-1,40
 509 1764 509 1764 563 1764 c 0,29,30
523 710 m 0,41,42
 523 571 523 571 585.5 468 c 128,-1,43
 648 365 648 365 832 365 c 0,44,45
 974 365 974 365 1044.5 419 c 128,-1,46
 1115 473 1115 473 1132.5 542.5 c 128,-1,47
 1150 612 1150 612 1156 710 c 1,48,49
 1150 849 1150 849 1089 952.5 c 128,-1,50
 1028 1056 1028 1056 832 1056 c 0,51,52
 523 1056 523 1056 523 710 c 0,41,42
EndSplineSet
Validated: 1
EndChar

StartChar: oslash
Encoding: 248 248 154
Width: 1677
GlyphClass: 1
Flags: W
LayerCount: 2
Fore
SplineSet
640 420 m 1,0,1
 644 372 644 372 828 368 c 0,2,3
 976 368 976 368 1066 444 c 128,-1,4
 1156 520 1156 520 1160 689 c 1,5,-1
 1160 812 l 1,6,-1
 640 420 l 1,0,1
1446 1274 m 1,7,-1
 1556 1362 l 1,8,-1
 1668 1212 l 1,9,-1
 1580 1134 l 1,10,11
 1668 951 1668 951 1668 714 c 256,12,13
 1668 477 1668 477 1569 310 c 128,-1,14
 1470 143 1470 143 1282.5 59 c 128,-1,15
 1095 -25 1095 -25 835 -25 c 256,16,17
 575 -25 575 -25 280 124 c 1,18,-1
 112 -8 l 1,19,-1
 2 140 l 1,20,-1
 136 248 l 1,21,22
 10 475 10 475 10 714 c 0,23,24
 10 895 10 895 65 1032.5 c 128,-1,25
 120 1170 120 1170 226 1264 c 128,-1,26
 332 1358 332 1358 486 1406.5 c 128,-1,27
 640 1455 640 1455 835 1455 c 0,28,29
 1094 1455 1094 1455 1245 1383.5 c 128,-1,30
 1396 1312 1396 1312 1446 1274 c 1,7,-1
1056 972 m 1,31,32
 1056 1048 1056 1048 836 1056 c 1,33,34
 516 1056 516 1056 530 707 c 1,35,36
 524 640 524 640 536 572 c 1,37,-1
 1056 972 l 1,31,32
EndSplineSet
Validated: 33
EndChar

StartChar: ugrave
Encoding: 249 249 155
Width: 1454
GlyphClass: 1
Flags: W
LayerCount: 2
Fore
SplineSet
203 1796 m 1,0,-1
 665 1796 l 1,1,-1
 841 1478 l 1,2,-1
 203 1796 l 1,0,-1
480 1444 m 1,3,-1
 480 692 l 1,4,5
 476 540 476 540 536 486 c 128,-1,6
 596 432 596 432 728 436 c 1,7,8
 836 432 836 432 906 490 c 128,-1,9
 976 548 976 548 972 692 c 1,10,-1
 974 1444 l 1,11,-1
 1444 1444 l 1,12,-1
 1444 597 l 2,13,14
 1441 417 1441 417 1384.5 309.5 c 128,-1,15
 1328 202 1328 202 1241.5 130 c 128,-1,16
 1155 58 1155 58 1024.5 18 c 128,-1,17
 894 -22 894 -22 734 -26 c 1,18,19
 601 -23 601 -23 463.5 10.5 c 128,-1,20
 326 44 326 44 223.5 116 c 128,-1,21
 121 188 121 188 65.5 301 c 128,-1,22
 10 414 10 414 10 596 c 2,23,-1
 10 1444 l 1,24,-1
 480 1444 l 1,3,-1
EndSplineSet
Validated: 33
EndChar

StartChar: uacute
Encoding: 250 250 156
Width: 1454
GlyphClass: 1
Flags: W
LayerCount: 2
Fore
SplineSet
673 1478 m 1,0,-1
 849 1796 l 1,1,-1
 1311 1796 l 1,2,-1
 673 1478 l 1,0,-1
480 1444 m 1,3,-1
 480 692 l 1,4,5
 476 540 476 540 536 486 c 128,-1,6
 596 432 596 432 728 436 c 1,7,8
 836 432 836 432 906 490 c 128,-1,9
 976 548 976 548 972 692 c 1,10,-1
 974 1444 l 1,11,-1
 1444 1444 l 1,12,-1
 1444 597 l 2,13,14
 1441 417 1441 417 1384.5 309.5 c 128,-1,15
 1328 202 1328 202 1241.5 130 c 128,-1,16
 1155 58 1155 58 1024.5 18 c 128,-1,17
 894 -22 894 -22 734 -26 c 1,18,19
 601 -23 601 -23 463.5 10.5 c 128,-1,20
 326 44 326 44 223.5 116 c 128,-1,21
 121 188 121 188 65.5 301 c 128,-1,22
 10 414 10 414 10 596 c 2,23,-1
 10 1444 l 1,24,-1
 480 1444 l 1,3,-1
EndSplineSet
Validated: 33
EndChar

StartChar: ucircumflex
Encoding: 251 251 157
Width: 1454
GlyphClass: 1
Flags: W
LayerCount: 2
Fore
SplineSet
1030 1472 m 1,0,-1
 743 1657 l 1,1,-1
 453 1476 l 1,2,-1
 453 1538 l 1,3,-1
 740 1838 l 1,4,-1
 1030 1538 l 1,5,-1
 1030 1472 l 1,0,-1
480 1444 m 1,6,-1
 480 692 l 1,7,8
 476 540 476 540 536 486 c 128,-1,9
 596 432 596 432 728 436 c 1,10,11
 836 432 836 432 906 490 c 128,-1,12
 976 548 976 548 972 692 c 1,13,-1
 974 1444 l 1,14,-1
 1444 1444 l 1,15,-1
 1444 597 l 2,16,17
 1441 417 1441 417 1384.5 309.5 c 128,-1,18
 1328 202 1328 202 1241.5 130 c 128,-1,19
 1155 58 1155 58 1024.5 18 c 128,-1,20
 894 -22 894 -22 734 -26 c 1,21,22
 601 -23 601 -23 463.5 10.5 c 128,-1,23
 326 44 326 44 223.5 116 c 128,-1,24
 121 188 121 188 65.5 301 c 128,-1,25
 10 414 10 414 10 596 c 2,26,-1
 10 1444 l 1,27,-1
 480 1444 l 1,6,-1
EndSplineSet
Validated: 33
EndChar

StartChar: udieresis
Encoding: 252 252 158
Width: 1454
GlyphClass: 1
Flags: W
LayerCount: 2
Fore
SplineSet
947 1768 m 0,0,1
 998 1768 998 1768 1030.5 1734.5 c 128,-1,2
 1063 1701 1063 1701 1063 1651 c 1,3,4
 1058 1590 1058 1590 1024.5 1559 c 128,-1,5
 991 1528 991 1528 941 1528 c 0,6,7
 893 1528 893 1528 860 1561 c 128,-1,8
 827 1594 827 1594 827 1644 c 0,9,10
 827 1700 827 1700 860 1734 c 128,-1,11
 893 1768 893 1768 947 1768 c 0,0,1
499 1764 m 0,12,13
 550 1764 550 1764 582.5 1730.5 c 128,-1,14
 615 1697 615 1697 615 1647 c 1,15,16
 610 1586 610 1586 576.5 1555 c 128,-1,17
 543 1524 543 1524 493 1524 c 0,18,19
 445 1524 445 1524 412 1557 c 128,-1,20
 379 1590 379 1590 379 1640 c 0,21,22
 379 1696 379 1696 412 1730 c 128,-1,23
 445 1764 445 1764 499 1764 c 0,12,13
480 1444 m 1,24,-1
 480 692 l 1,25,26
 476 540 476 540 536 486 c 128,-1,27
 596 432 596 432 728 436 c 1,28,29
 836 432 836 432 906 490 c 128,-1,30
 976 548 976 548 972 692 c 1,31,-1
 974 1444 l 1,32,-1
 1444 1444 l 1,33,-1
 1444 597 l 2,34,35
 1441 417 1441 417 1384.5 309.5 c 128,-1,36
 1328 202 1328 202 1241.5 130 c 128,-1,37
 1155 58 1155 58 1024.5 18 c 128,-1,38
 894 -22 894 -22 734 -26 c 1,39,40
 601 -23 601 -23 463.5 10.5 c 128,-1,41
 326 44 326 44 223.5 116 c 128,-1,42
 121 188 121 188 65.5 301 c 128,-1,43
 10 414 10 414 10 596 c 2,44,-1
 10 1444 l 1,45,-1
 480 1444 l 1,24,-1
EndSplineSet
Validated: 33
EndChar

StartChar: yacute
Encoding: 253 253 159
Width: 1472
GlyphClass: 1
Flags: W
LayerCount: 2
Fore
SplineSet
1602 1444 m 1,0,-1
 972 530 l 1,1,-1
 972 0 l 1,2,-1
 500 0 l 1,3,-1
 500 530 l 1,4,-1
 -130 1444 l 1,5,-1
 440 1444 l 1,6,-1
 734 998 l 1,7,-1
 1032 1444 l 1,8,-1
 1602 1444 l 1,0,-1
621 1478 m 1,9,-1
 797 1796 l 1,10,-1
 1259 1796 l 1,11,-1
 621 1478 l 1,9,-1
EndSplineSet
Validated: 1
EndChar

StartChar: thorn
Encoding: 254 254 160
Width: 1378
GlyphClass: 1
Flags: W
LayerCount: 2
Fore
SplineSet
510 272 m 1,0,-1
 510 0 l 1,1,-1
 40 0 l 1,2,-1
 40 1444 l 1,3,-1
 510 1444 l 1,4,-1
 510 1191 l 1,5,6
 910 1192 910 1192 1017.5 1163 c 128,-1,7
 1125 1134 1125 1134 1199 1084 c 128,-1,8
 1273 1034 1273 1034 1322 949.5 c 128,-1,9
 1371 865 1371 865 1371 729 c 1,10,11
 1363 603 1363 603 1318 515 c 128,-1,12
 1273 427 1273 427 1199 376 c 128,-1,13
 1125 325 1125 325 1018 297 c 128,-1,14
 911 269 911 269 750 271 c 2,15,-1
 510 272 l 1,0,-1
510 908 m 1,16,-1
 510 530 l 1,17,-1
 732 529 l 2,18,19
 807 529 807 529 853.5 549.5 c 128,-1,20
 900 570 900 570 929.5 602.5 c 128,-1,21
 959 635 959 635 967 719 c 1,22,23
 965 795 965 795 934.5 831.5 c 128,-1,24
 904 868 904 868 855.5 888 c 128,-1,25
 807 908 807 908 730 908 c 2,26,-1
 510 908 l 1,16,-1
EndSplineSet
Validated: 33
EndChar

StartChar: ydieresis
Encoding: 255 255 161
Width: 1472
GlyphClass: 1
Flags: W
LayerCount: 2
Fore
SplineSet
1602 1444 m 1,0,-1
 972 530 l 1,1,-1
 972 0 l 1,2,-1
 500 0 l 1,3,-1
 500 530 l 1,4,-1
 -130 1444 l 1,5,-1
 440 1444 l 1,6,-1
 734 998 l 1,7,-1
 1032 1444 l 1,8,-1
 1602 1444 l 1,0,-1
499 1764 m 0,9,10
 550 1764 550 1764 582.5 1730.5 c 128,-1,11
 615 1697 615 1697 615 1647 c 1,12,13
 610 1586 610 1586 576.5 1555 c 128,-1,14
 543 1524 543 1524 493 1524 c 0,15,16
 445 1524 445 1524 412 1557 c 128,-1,17
 379 1590 379 1590 379 1640 c 0,18,19
 379 1696 379 1696 412 1730 c 128,-1,20
 445 1764 445 1764 499 1764 c 0,9,10
947 1768 m 0,21,22
 998 1768 998 1768 1030.5 1734.5 c 128,-1,23
 1063 1701 1063 1701 1063 1651 c 1,24,25
 1058 1590 1058 1590 1024.5 1559 c 128,-1,26
 991 1528 991 1528 941 1528 c 0,27,28
 893 1528 893 1528 860 1561 c 128,-1,29
 827 1594 827 1594 827 1644 c 0,30,31
 827 1700 827 1700 860 1734 c 128,-1,32
 893 1768 893 1768 947 1768 c 0,21,22
EndSplineSet
Validated: 1
EndChar

StartChar: OE
Encoding: 338 338 162
Width: 2062
GlyphClass: 1
Flags: W
LayerCount: 2
Fore
SplineSet
756 0 m 1,0,1
 580 -8 580 -8 396 86 c 128,-1,2
 212 180 212 180 116 330 c 128,-1,3
 20 480 20 480 24 716 c 1,4,5
 16 896 16 896 76 1026 c 128,-1,6
 136 1156 136 1156 240 1250 c 128,-1,7
 344 1344 344 1344 492 1392 c 128,-1,8
 640 1440 640 1440 832 1444 c 1,9,-1
 2000 1444 l 1,10,-1
 2000 1014 l 1,11,-1
 1232 1014 l 1,12,-1
 1232 848 l 1,13,-1
 1728 848 l 1,14,-1
 1728 596 l 1,15,-1
 1232 596 l 1,16,-1
 1232 430 l 1,17,-1
 2122 430 l 1,18,-1
 2122 0 l 1,19,-1
 756 0 l 1,0,1
523 710 m 0,20,21
 523 571 523 571 585.5 468 c 128,-1,22
 648 365 648 365 832 365 c 1,23,-1
 832 1056 l 1,24,25
 523 1056 523 1056 523 710 c 0,20,21
EndSplineSet
Validated: 33
EndChar

StartChar: oe
Encoding: 339 339 163
Width: 2062
GlyphClass: 1
Flags: W
LayerCount: 2
Fore
SplineSet
756 0 m 1,0,1
 580 -8 580 -8 396 86 c 128,-1,2
 212 180 212 180 116 330 c 128,-1,3
 20 480 20 480 24 716 c 1,4,5
 16 896 16 896 76 1026 c 128,-1,6
 136 1156 136 1156 240 1250 c 128,-1,7
 344 1344 344 1344 492 1392 c 128,-1,8
 640 1440 640 1440 832 1444 c 1,9,-1
 2000 1444 l 1,10,-1
 2000 1014 l 1,11,-1
 1232 1014 l 1,12,-1
 1232 848 l 1,13,-1
 1728 848 l 1,14,-1
 1728 596 l 1,15,-1
 1232 596 l 1,16,-1
 1232 430 l 1,17,-1
 2122 430 l 1,18,-1
 2122 0 l 1,19,-1
 756 0 l 1,0,1
523 710 m 0,20,21
 523 571 523 571 585.5 468 c 128,-1,22
 648 365 648 365 832 365 c 1,23,-1
 832 1056 l 1,24,25
 523 1056 523 1056 523 710 c 0,20,21
EndSplineSet
Validated: 33
EndChar

StartChar: Scaron
Encoding: 352 352 164
Width: 1135
GlyphClass: 1
Flags: W
LayerCount: 2
Fore
SplineSet
1196 1444 m 1,0,-1
 408 1444 l 2,1,2
 132 1444 132 1444 80 1176 c 128,-1,3
 28 908 28 908 376 588 c 1,4,5
 587 422 587 422 304 430 c 1,6,-1
 0 430 l 1,7,-1
 0 0 l 1,8,-1
 768 0 l 1,9,10
 1080 52 1080 52 1086 320 c 128,-1,11
 1092 588 1092 588 768 872 c 1,12,13
 587 1022 587 1022 844 1014 c 1,14,-1
 1196 1014 l 1,15,-1
 1196 1444 l 1,0,-1
922 1824 m 1,16,-1
 632 1458 l 1,17,-1
 345 1824 l 1,18,-1
 345 1900 l 1,19,-1
 635 1679 l 1,20,-1
 922 1904 l 1,21,-1
 922 1824 l 1,16,-1
EndSplineSet
Validated: 41
EndChar

StartChar: scaron
Encoding: 353 353 165
Width: 1135
GlyphClass: 1
Flags: W
LayerCount: 2
Fore
SplineSet
1196 1444 m 1,0,-1
 408 1444 l 2,1,2
 132 1444 132 1444 80 1176 c 128,-1,3
 28 908 28 908 376 588 c 1,4,5
 587 422 587 422 304 430 c 1,6,-1
 0 430 l 1,7,-1
 0 0 l 1,8,-1
 768 0 l 1,9,10
 1080 52 1080 52 1086 320 c 128,-1,11
 1092 588 1092 588 768 872 c 1,12,13
 587 1022 587 1022 844 1014 c 1,14,-1
 1196 1014 l 1,15,-1
 1196 1444 l 1,0,-1
922 1824 m 1,16,-1
 632 1458 l 1,17,-1
 345 1824 l 1,18,-1
 345 1900 l 1,19,-1
 635 1679 l 1,20,-1
 922 1904 l 1,21,-1
 922 1824 l 1,16,-1
EndSplineSet
Validated: 41
EndChar

StartChar: Ydieresis
Encoding: 376 376 166
Width: 1472
GlyphClass: 1
Flags: W
LayerCount: 2
Fore
SplineSet
1602 1444 m 1,0,-1
 972 530 l 1,1,-1
 972 0 l 1,2,-1
 500 0 l 1,3,-1
 500 530 l 1,4,-1
 -130 1444 l 1,5,-1
 440 1444 l 1,6,-1
 734 998 l 1,7,-1
 1032 1444 l 1,8,-1
 1602 1444 l 1,0,-1
499 1764 m 0,9,10
 550 1764 550 1764 582.5 1730.5 c 128,-1,11
 615 1697 615 1697 615 1647 c 1,12,13
 610 1586 610 1586 576.5 1555 c 128,-1,14
 543 1524 543 1524 493 1524 c 0,15,16
 445 1524 445 1524 412 1557 c 128,-1,17
 379 1590 379 1590 379 1640 c 0,18,19
 379 1696 379 1696 412 1730 c 128,-1,20
 445 1764 445 1764 499 1764 c 0,9,10
947 1768 m 0,21,22
 998 1768 998 1768 1030.5 1734.5 c 128,-1,23
 1063 1701 1063 1701 1063 1651 c 1,24,25
 1058 1590 1058 1590 1024.5 1559 c 128,-1,26
 991 1528 991 1528 941 1528 c 0,27,28
 893 1528 893 1528 860 1561 c 128,-1,29
 827 1594 827 1594 827 1644 c 0,30,31
 827 1700 827 1700 860 1734 c 128,-1,32
 893 1768 893 1768 947 1768 c 0,21,22
EndSplineSet
Validated: 1
EndChar

StartChar: Zcaron
Encoding: 381 381 167
Width: 1400
GlyphClass: 1
Flags: W
LayerCount: 2
Fore
SplineSet
922 1824 m 1,0,-1
 632 1458 l 1,1,-1
 345 1824 l 1,2,-1
 345 1900 l 1,3,-1
 635 1679 l 1,4,-1
 922 1904 l 1,5,-1
 922 1824 l 1,0,-1
40 1444 m 1,6,-1
 1360 1444 l 1,7,-1
 1360 1014 l 1,8,9
 876 668 876 668 804 432 c 1,10,-1
 1360 430 l 1,11,-1
 1360 0 l 1,12,-1
 40 0 l 1,13,14
 16 508 16 508 739 1014 c 1,15,-1
 40 1014 l 1,16,-1
 40 1444 l 1,6,-1
EndSplineSet
Validated: 33
EndChar

StartChar: zcaron
Encoding: 382 382 168
Width: 1400
GlyphClass: 1
Flags: W
LayerCount: 2
Fore
SplineSet
922 1824 m 1,0,-1
 632 1458 l 1,1,-1
 345 1824 l 1,2,-1
 345 1900 l 1,3,-1
 635 1679 l 1,4,-1
 922 1904 l 1,5,-1
 922 1824 l 1,0,-1
40 1444 m 1,6,-1
 1360 1444 l 1,7,-1
 1360 1014 l 1,8,9
 876 668 876 668 804 432 c 1,10,-1
 1360 430 l 1,11,-1
 1360 0 l 1,12,-1
 40 0 l 1,13,14
 16 508 16 508 739 1014 c 1,15,-1
 40 1014 l 1,16,-1
 40 1444 l 1,6,-1
EndSplineSet
Validated: 33
EndChar

StartChar: quoteleft
Encoding: 8216 8216 169
Width: 647
GlyphClass: 1
Flags: W
LayerCount: 2
Fore
SplineSet
474 816 m 1024,0,-1
476 814 m 1,1,-1
 170 1128 l 1,2,-1
 170 1444 l 1,3,-1
 477 1444 l 1,4,-1
 476 814 l 1,1,-1
EndSplineSet
Validated: 1
EndChar

StartChar: quoteright
Encoding: 8217 8217 170
Width: 647
GlyphClass: 1
Flags: W
LayerCount: 2
Fore
SplineSet
168 815 m 1024,0,-1
170 813 m 1,1,-1
 170 1444 l 1,2,-1
 477 1444 l 1,3,-1
 477 1129 l 1,4,-1
 170 813 l 1,1,-1
EndSplineSet
Validated: 1
EndChar

StartChar: quotedblleft
Encoding: 8220 8220 171
Width: 1139
GlyphClass: 1
Flags: W
LayerCount: 2
Fore
SplineSet
940 816 m 1024,0,-1
502 816 m 1024,1,-1
504 814 m 1,2,-1
 197 1128 l 1,3,-1
 197 1444 l 1,4,-1
 504 1444 l 1,5,-1
 504 814 l 1,2,-1
942 814 m 1,6,-1
 635 1128 l 1,7,-1
 635 1444 l 1,8,-1
 942 1444 l 1,9,-1
 942 814 l 1,6,-1
EndSplineSet
Validated: 1
EndChar

StartChar: quotedblright
Encoding: 8221 8221 172
Width: 1139
GlyphClass: 1
Flags: W
LayerCount: 2
Fore
SplineSet
633 815 m 1024,0,-1
195 815 m 1024,1,-1
197 813 m 1,2,-1
 197 1444 l 1,3,-1
 504 1444 l 1,4,-1
 504 1129 l 1,5,-1
 197 813 l 1,2,-1
635 813 m 1,6,-1
 635 1444 l 1,7,-1
 942 1444 l 1,8,-1
 942 1129 l 1,9,-1
 635 813 l 1,6,-1
EndSplineSet
Validated: 1
EndChar

StartChar: quotedblbase
Encoding: 8222 8222 173
Width: 1484
GlyphClass: 1
Flags: W
LayerCount: 2
Fore
SplineSet
1032 430 m 1,0,-1
 1032 722 l 1,1,-1
 1484 722 l 1,2,-1
 1484 0 l 1,3,-1
 844 0 l 2,4,5
 609 0 609 0 419 83.5 c 128,-1,6
 229 167 229 167 119.5 334 c 128,-1,7
 10 501 10 501 10 743 c 0,8,9
 10 913 10 913 75.5 1046.5 c 128,-1,10
 141 1180 141 1180 257 1268.5 c 128,-1,11
 373 1357 373 1357 523.5 1400.5 c 128,-1,12
 674 1444 674 1444 844 1444 c 2,13,-1
 1240 1444 l 1,14,-1
 1484 1444 l 1,15,-1
 1484 1014 l 1,16,-1
 1032 1014 l 2,17,18
 880 1014 880 1014 807 1005 c 128,-1,19
 734 996 734 996 677 975 c 128,-1,20
 620 954 620 954 576 902 c 128,-1,21
 532 850 532 850 525 718 c 1,22,23
 530 590 530 590 576 535 c 128,-1,24
 622 480 622 480 688 462 c 128,-1,25
 754 444 754 444 824 437 c 128,-1,26
 894 430 894 430 1032 430 c 1,0,-1
EndSplineSet
Validated: 1
EndChar

StartChar: dagger
Encoding: 8224 8224 174
Width: 1484
GlyphClass: 1
Flags: W
LayerCount: 2
Fore
SplineSet
1032 430 m 2,0,-1
 1484 430 l 1,1,-1
 1484 0 l 1,2,-1
 844 0 l 2,3,4
 609 0 609 0 419 83.5 c 128,-1,5
 229 167 229 167 119.5 334 c 128,-1,6
 10 501 10 501 10 743 c 0,7,8
 10 913 10 913 75.5 1046.5 c 128,-1,9
 141 1180 141 1180 257 1268.5 c 128,-1,10
 373 1357 373 1357 523.5 1400.5 c 128,-1,11
 674 1444 674 1444 844 1444 c 2,12,-1
 1240 1444 l 1,13,-1
 1484 1444 l 1,14,-1
 1484 1014 l 1,15,-1
 1032 1014 l 2,16,17
 880 1014 880 1014 807 1005 c 128,-1,18
 734 996 734 996 677 975 c 128,-1,19
 620 954 620 954 576 902 c 128,-1,20
 532 850 532 850 525 718 c 1,21,22
 530 590 530 590 576 535 c 128,-1,23
 622 480 622 480 688 462 c 128,-1,24
 754 444 754 444 824 437 c 128,-1,25
 894 430 894 430 1032 430 c 2,0,-1
EndSplineSet
Validated: 1
EndChar

StartChar: glyph98
Encoding: 65540 -1 176
Width: 2059
GlyphClass: 1
Flags: W
LayerCount: 2
Fore
SplineSet
181 992 m 1,0,-1
 181 969 l 1,1,-1
 298 974 l 1,2,3
 309 992 309 992 245 1021 c 1,4,5
 204 1021 204 1021 181 992 c 1,0,-1
286 1266 m 1,6,-1
 286 1260 l 1,7,-1
 298 1260 l 1,8,-1
 298 1266 l 1,9,-1
 286 1266 l 1,6,-1
298 1260 m 1,10,-1
 298 1249 l 1,11,-1
 315 1237 l 1,12,-1
 327 1249 l 1,13,-1
 321 1266 l 1,14,-1
 298 1260 l 1,10,-1
286 776 m 1,15,-1
 333 776 l 1,16,-1
 356 753 l 1,17,18
 356 677 356 677 327 677 c 1,19,20
 263 665 263 665 251 724 c 1,21,22
 257 764 257 764 286 776 c 1,15,-1
181 1079 m 1,23,24
 263 1097 263 1097 344 1039 c 1,25,-1
 385 945 l 1,26,-1
 379 922 l 1,27,-1
 198 904 l 1,28,-1
 123 904 l 1,29,-1
 117 916 l 1,30,31
 99 1056 99 1056 181 1079 c 1,23,24
373 1529 m 1,32,-1
 426 1482 l 1,33,-1
 432 1482 l 1,34,-1
 420 1523 l 1,35,-1
 403 1535 l 1,36,-1
 373 1529 l 1,32,-1
239 1324 m 1,37,-1
 426 1319 l 1,38,-1
 438 1313 l 1,39,40
 432 1289 432 1289 449 1284 c 1,41,-1
 449 1254 l 1,42,-1
 391 1254 l 1,43,-1
 373 1202 l 1,44,-1
 403 1149 l 1,45,-1
 368 1132 l 1,46,47
 338 1126 338 1126 333 1144 c 1,48,-1
 163 1307 l 1,49,-1
 239 1324 l 1,37,-1
455 1465 m 1,50,-1
 455 1459 l 1,51,-1
 461 1459 l 1,52,-1
 461 1465 l 1,53,-1
 455 1465 l 1,50,-1
379 1605 m 1,54,-1
 438 1587 l 1,55,-1
 478 1523 l 1,56,-1
 566 1511 l 1,57,-1
 578 1482 l 1,58,-1
 578 1441 l 1,59,-1
 461 1459 l 1,60,-1
 461 1447 l 1,61,-1
 531 1406 l 1,62,-1
 508 1359 l 1,63,-1
 467 1371 l 1,64,-1
 391 1435 l 1,65,66
 356 1447 356 1447 292 1511 c 1,67,68
 333 1593 333 1593 379 1605 c 1,54,-1
461 595 m 1,69,70
 537 618 537 618 589 548 c 1,71,-1
 548 496 l 1,72,-1
 525 496 l 1,73,74
 513 519 513 519 473 519 c 1,75,76
 443 496 443 496 432 467 c 1,77,78
 438 403 438 403 449 403 c 1,79,-1
 403 362 l 1,80,81
 368 356 368 356 362 449 c 1,82,83
 397 583 397 583 461 595 c 1,69,70
613 309 m 1,84,-1
 613 280 l 1,85,86
 630 280 630 280 624 263 c 1,87,88
 677 263 677 263 712 350 c 1,89,90
 718 385 718 385 694 403 c 1,91,92
 677 408 677 408 636 362 c 1,93,-1
 613 309 l 1,84,-1
671 461 m 1,94,95
 700 467 700 467 753 443 c 1,96,-1
 776 414 l 1,97,-1
 776 333 l 1,98,99
 735 222 735 222 648 198 c 1,100,101
 560 210 560 210 548 268 c 1,102,103
 548 414 548 414 671 461 c 1,94,95
554 1762 m 1,104,-1
 589 1756 l 1,105,-1
 613 1710 l 1,106,-1
 630 1698 l 1,107,-1
 624 1803 l 1,108,-1
 689 1780 l 1,109,-1
 694 1686 l 1,110,111
 770 1663 770 1663 782 1634 c 1,112,-1
 776 1570 l 1,113,-1
 689 1616 l 1,114,-1
 677 1616 l 1,115,-1
 683 1593 l 1,116,-1
 694 1593 l 1,117,-1
 718 1540 l 1,118,-1
 677 1511 l 1,119,-1
 613 1587 l 1,120,-1
 531 1721 l 1,121,-1
 531 1745 l 1,122,-1
 554 1762 l 1,104,-1
764 1214 m 1,123,-1
 764 1184 l 1,124,-1
 799 1272 l 1,125,-1
 811 1278 l 1,126,-1
 811 1295 l 1,127,-1
 788 1272 l 1,128,-1
 764 1214 l 1,123,-1
811 1307 m 1,129,-1
 811 1295 l 1,130,-1
 823 1301 l 1,131,-1
 823 1313 l 1,132,-1
 811 1307 l 1,129,-1
823 1319 m 1,133,-1
 823 1313 l 1,134,-1
 829 1313 l 1,135,-1
 829 1319 l 1,136,-1
 823 1319 l 1,133,-1
829 1324 m 1,137,-1
 829 1319 l 1,138,-1
 834 1319 l 1,139,-1
 834 1324 l 1,140,-1
 829 1324 l 1,137,-1
834 1336 m 1,141,-1
 834 1330 l 1,142,-1
 840 1330 l 1,143,-1
 840 1336 l 1,144,-1
 834 1336 l 1,141,-1
840 1342 m 1,145,-1
 840 1336 l 1,146,-1
 846 1336 l 1,147,-1
 846 1342 l 1,148,-1
 840 1342 l 1,145,-1
939 1254 m 1,149,-1
 939 1237 l 1,150,-1
 951 1237 l 1,151,-1
 945 1254 l 1,152,-1
 939 1254 l 1,149,-1
951 1237 m 1,153,-1
 951 1225 l 1,154,-1
 963 1225 l 1,155,-1
 957 1237 l 1,156,-1
 951 1237 l 1,153,-1
963 1225 m 1,157,-1
 963 1214 l 1,158,-1
 974 1214 l 1,159,-1
 969 1225 l 1,160,-1
 963 1225 l 1,157,-1
974 1214 m 1,161,-1
 974 1208 l 1,162,-1
 986 1208 l 1,163,-1
 986 1214 l 1,164,-1
 974 1214 l 1,161,-1
928 1791 m 1,165,166
 969 1791 969 1791 986 1762 c 1,167,168
 1004 1710 1004 1710 945 1686 c 1,169,170
 887 1692 887 1692 881 1721 c 1,171,172
 858 1756 858 1756 928 1791 c 1,165,166
986 1208 m 1,173,-1
 986 1202 l 1,174,-1
 992 1202 l 1,175,-1
 992 1208 l 1,176,-1
 986 1208 l 1,173,-1
998 1202 m 1,177,-1
 1009 1184 l 1,178,-1
 1021 1184 l 1,179,-1
 1004 1202 l 1,180,-1
 998 1202 l 1,177,-1
1021 1184 m 1,181,-1
 1021 1173 l 1,182,-1
 1044 1173 l 1,183,-1
 1039 1184 l 1,184,-1
 1021 1184 l 1,181,-1
893 403 m 1,185,186
 934 338 934 338 928 298 c 1,187,-1
 951 280 l 1,188,-1
 998 379 l 1,189,190
 1021 385 1021 385 1021 362 c 1,191,192
 1056 216 1056 216 1044 210 c 1,193,-1
 1056 187 l 1,194,-1
 1056 134 l 1,195,-1
 1021 117 l 1,196,-1
 998 123 l 1,197,-1
 980 228 l 1,198,-1
 928 140 l 1,199,-1
 881 228 l 1,200,-1
 852 128 l 1,201,-1
 799 158 l 1,202,-1
 834 268 l 1,203,-1
 846 280 l 1,204,205
 840 303 840 303 881 373 c 1,206,-1
 881 397 l 1,207,-1
 893 403 l 1,185,186
747 1068 m 1,208,-1
 764 928 l 1,209,-1
 776 928 l 1,210,-1
 799 840 l 1,211,-1
 846 747 l 1,212,-1
 998 741 l 1,213,-1
 1068 747 l 1,214,-1
 963 759 l 1,215,-1
 881 753 l 2,216,217
 846 747 846 747 782 928 c 0,218,219
 759 992 759 992 759 1062 c 2,220,-1
 764 1184 l 1,221,-1
 753 1167 l 1,222,-1
 747 1097 l 1,223,224
 759 1085 759 1085 747 1068 c 1,208,-1
1068 1190 m 1,225,-1
 1068 1184 l 1,226,-1
 1079 1184 l 1,227,-1
 1079 1190 l 1,228,-1
 1068 1190 l 1,225,-1
811 601 m 1,229,-1
 1138 595 l 1,230,-1
 1126 566 l 1,231,-1
 817 572 l 1,232,-1
 805 589 l 1,233,-1
 811 601 l 1,229,-1
823 648 m 2,234,-1
 1114 648 l 1,235,-1
 1138 630 l 1,236,-1
 1138 613 l 1,237,-1
 805 618 l 1,238,239
 811 648 811 648 823 648 c 2,234,-1
834 560 m 1,240,-1
 1114 554 l 1,241,-1
 1138 537 l 1,242,-1
 1149 490 l 1,243,-1
 1161 478 l 1,244,-1
 1155 467 l 1,245,-1
 788 478 l 1,246,247
 823 566 823 566 834 560 c 1,240,-1
1132 1307 m 1,248,-1
 1149 1284 l 1,249,-1
 1161 1289 l 1,250,-1
 1149 1307 l 1,251,-1
 1132 1307 l 1,248,-1
1138 397 m 2,252,-1
 1173 397 l 1,253,-1
 1225 163 l 1,254,-1
 1225 140 l 1,255,-1
 1179 128 l 1,256,257
 1155 146 1155 146 1114 350 c 0,258,259
 1103 397 1103 397 1138 397 c 2,252,-1
1138 1855 m 1,260,-1
 1184 1850 l 1,261,-1
 1196 1838 l 1,262,263
 1179 1803 1179 1803 1179 1750 c 1,264,-1
 1208 1745 l 1,265,-1
 1231 1745 l 1,266,-1
 1249 1832 l 1,267,-1
 1301 1826 l 1,268,-1
 1307 1815 l 1,269,-1
 1249 1564 l 1,270,-1
 1190 1575 l 1,271,272
 1196 1645 1196 1645 1208 1645 c 1,273,274
 1225 1686 1225 1686 1173 1686 c 1,275,-1
 1155 1680 l 1,276,-1
 1138 1593 l 1,277,-1
 1079 1599 l 1,278,279
 1097 1739 1097 1739 1138 1855 c 1,260,-1
1289 1103 m 1,280,-1
 1289 1085 l 1,281,-1
 1313 1097 l 1,282,-1
 1313 1103 l 1,283,-1
 1289 1103 l 1,280,-1
998 1564 m 1,284,-1
 1044 1552 l 1,285,-1
 1091 1505 l 1,286,-1
 1114 1459 l 1,287,-1
 1109 1435 l 1,288,289
 1155 1447 1155 1447 1161 1365 c 1,290,-1
 1173 1365 l 1,291,-1
 1301 1190 l 1,292,-1
 1354 1085 l 2,293,294
 1365 1062 1365 1062 1301 1021 c 1,295,-1
 1284 1021 l 1,296,297
 1249 1062 1249 1062 1225 1056 c 1,298,-1
 1254 992 l 1,299,300
 1231 963 1231 963 1202 957 c 1,301,-1
 1155 998 l 1,302,303
 1155 1097 1155 1097 1103 1126 c 2,304,-1
 1056 1149 l 1,305,-1
 1021 1155 l 1,306,-1
 998 1120 l 1,307,-1
 998 1021 l 1,308,-1
 1056 951 l 1,309,-1
 1149 904 l 1,310,-1
 1161 893 l 1,311,-1
 1173 811 l 1,312,313
 1149 665 1149 665 1120 653 c 1,314,-1
 817 659 l 1,315,316
 729 782 729 782 706 1021 c 1,317,-1
 706 1144 l 1,318,-1
 741 1272 l 1,319,-1
 776 1336 l 1,320,-1
 846 1412 l 1,321,322
 910 1465 910 1465 1004 1494 c 1,323,-1
 998 1564 l 1,284,-1
1330 473 m 0,324,325
 1359 490 1359 490 1389 432 c 1,326,-1
 1354 385 l 1,327,328
 1342 338 1342 338 1406 309 c 1,329,-1
 1465 315 l 1,330,-1
 1488 286 l 1,331,-1
 1482 245 l 1,332,333
 1330 228 1330 228 1278 350 c 1,334,-1
 1278 414 l 1,335,336
 1301 455 1301 455 1330 473 c 0,324,325
1418 1570 m 1,337,-1
 1418 1529 l 1,338,-1
 1430 1523 l 1,339,-1
 1476 1535 l 1,340,-1
 1523 1599 l 1,341,-1
 1523 1640 l 1,342,-1
 1511 1645 l 1,343,344
 1470 1657 1470 1657 1418 1570 c 1,337,-1
1465 1710 m 1,345,346
 1564 1727 1564 1727 1593 1651 c 1,347,348
 1605 1593 1605 1593 1546 1517 c 1,349,350
 1488 1453 1488 1453 1447 1453 c 0,351,352
 1359 1459 1359 1459 1348 1535 c 1,353,354
 1359 1657 1359 1657 1465 1710 c 1,345,346
1488 607 m 1,355,-1
 1523 601 l 1,356,357
 1523 583 1523 583 1546 583 c 1,358,-1
 1529 531 l 1,359,-1
 1605 525 l 1,360,-1
 1640 502 l 1,361,-1
 1663 426 l 1,362,-1
 1640 362 l 1,363,364
 1622 356 1622 356 1581 397 c 1,365,-1
 1599 443 l 1,366,-1
 1570 455 l 1,367,368
 1482 443 1482 443 1465 531 c 1,369,-1
 1488 607 l 1,355,-1
1651 1383 m 1,370,-1
 1651 1377 l 1,371,-1
 1686 1377 l 1,372,-1
 1715 1400 l 1,373,-1
 1715 1418 l 1,374,-1
 1651 1383 l 1,370,-1
1710 753 m 1,375,376
 1774 735 1774 735 1762 712 c 1,377,378
 1774 689 1774 689 1733 648 c 1,379,380
 1680 630 1680 630 1657 683 c 1,381,382
 1657 753 1657 753 1710 753 c 1,375,376
1721 1500 m 1,383,-1
 1768 1447 l 1,384,-1
 1780 1412 l 1,385,386
 1797 1330 1797 1330 1669 1324 c 1,387,-1
 1634 1249 l 1,388,-1
 1564 1254 l 1,389,-1
 1570 1284 l 1,390,-1
 1628 1359 l 1,391,-1
 1628 1365 l 1,392,-1
 1546 1313 l 1,393,-1
 1511 1342 l 1,394,395
 1505 1371 1505 1371 1523 1377 c 1,396,-1
 1721 1500 l 1,383,-1
1651 1173 m 1,397,-1
 1675 1173 l 1,398,-1
 1675 1155 l 1,399,-1
 1692 1138 l 1,400,-1
 1710 1138 l 1,401,-1
 1745 1196 l 1,402,403
 1844 1243 1844 1243 1890 1144 c 1,404,405
 1890 1114 1890 1114 1844 1109 c 1,406,-1
 1803 1144 l 1,407,-1
 1762 1085 l 1,408,409
 1657 1044 1657 1044 1605 1144 c 1,410,-1
 1651 1173 l 1,397,-1
1640 969 m 1,411,-1
 1698 969 l 1,412,-1
 1896 939 l 1,413,-1
 1890 840 l 1,414,-1
 1838 846 l 1,415,-1
 1832 840 l 1,416,-1
 1826 887 l 1,417,-1
 1791 899 l 1,418,-1
 1785 864 l 1,419,-1
 1739 858 l 1,420,-1
 1721 864 l 1,421,-1
 1721 904 l 1,422,-1
 1686 904 l 1,423,-1
 1680 858 l 1,424,-1
 1616 869 l 1,425,-1
 1628 963 l 1,426,-1
 1640 969 l 1,411,-1
53 1062 m 1,427,-1
 53 910 l 1,428,-1
 64 893 l 1,429,-1
 64 834 l 1,430,-1
 76 823 l 1,431,-1
 88 741 l 1,432,-1
 99 735 l 1,433,-1
 99 706 l 1,434,-1
 181 525 l 1,435,-1
 298 373 l 1,436,-1
 356 315 l 1,437,-1
 484 216 l 1,438,439
 700 88 700 88 939 64 c 1,440,-1
 1138 70 l 1,441,442
 1237 88 1237 88 1383 134 c 1,443,-1
 1383 146 l 1,444,-1
 1447 163 l 1,445,-1
 1570 239 l 1,446,-1
 1733 385 l 1,447,-1
 1850 548 l 1,448,449
 1949 770 1949 770 1960 928 c 0,450,451
 1978 1138 1978 1138 1896 1354 c 1,452,-1
 1797 1535 l 1,453,454
 1517 1920 1517 1920 1044 1943 c 1,455,-1
 887 1937 l 1,456,-1
 683 1890 l 1,457,458
 397 1791 397 1791 204 1523 c 1,459,460
 76 1319 76 1319 53 1062 c 1,427,-1
1144 1990 m 1,461,462
 1383 1955 1383 1955 1575 1826 c 1,463,-1
 1750 1675 l 1,464,465
 1867 1540 1867 1540 1937 1377 c 1,466,467
 1943 1324 1943 1324 1978 1249 c 1,468,469
 2095 782 2095 782 1785 362 c 1,470,471
 1488 29 1488 29 1091 0 c 1,472,473
 910 -6 910 -6 805 18 c 0,474,475
 105 198 105 198 12 916 c 1,476,477
 6 1097 6 1097 29 1202 c 1,478,479
 204 1873 204 1873 875 1990 c 1,480,-1
 1144 1990 l 1,461,462
EndSplineSet
Validated: 37
EndChar
